<svg width="28" height="26" viewBox="0 0 28 26" fill="none" xmlns="http://www.w3.org/2000/svg">
<g clip-path="url(#clip0_5_801)">
<mask id="mask0_5_801" style="mask-type:luminance" maskUnits="userSpaceOnUse" x="0" y="11" width="25" height="4">
<path d="M23.3004 14.1998C23.3004 14.0998 23.3004 14.0998 23.3004 14.1998V14.1998ZM24.3004 14.0998C24.0004 13.9998 23.7004 14.0998 23.4004 14.1998C23.6004 14.1998 24.3004 14.4998 24.3004 14.0998ZM23.4004 14.7998L23.7004 14.6998C23.5004 14.5998 23.6004 14.7998 23.4004 14.7998ZM23.4004 14.4998V14.3998L23.2004 14.4998H23.4004ZM13.7004 12.8998C13.7004 12.7998 13.7004 12.7998 13.7004 12.6998V12.8998ZM13.4004 13.1998C13.4004 13.1998 13.3004 13.1998 13.2004 13.1998C13.3004 13.2998 13.4004 13.2998 13.4004 13.1998ZM14.2004 12.8998H14.1004C14.1004 12.8998 14.1004 12.9998 14.2004 12.8998ZM19.1004 13.5998C19.2004 13.4998 19.3004 13.3998 19.4004 13.3998C19.1004 13.2998 19.2004 13.4998 19.1004 13.5998ZM11.6004 14.3998L11.5004 14.2998C11.5004 14.2998 11.5004 14.3998 11.6004 14.3998ZM13.5004 14.3998C13.5004 14.2998 13.5004 14.2998 13.5004 14.1998V14.3998ZM14.5004 13.0998L14.6004 12.9998C14.5004 12.9998 14.5004 13.0998 14.5004 13.0998ZM11.0004 14.3998C11.0004 14.4998 10.9004 14.5998 10.9004 14.5998C11.0004 14.5998 11.0004 14.4998 11.0004 14.3998ZM14.2004 14.2998C14.1004 14.2998 14.1004 14.2998 14.0004 14.3998C14.1004 14.3998 14.1004 14.3998 14.2004 14.2998Z" fill="white"/>
<path d="M5.3 14.5L5.7 14.3C5.7 14.4 5.9 14.4 5.8 14.5L5.9 14.4V14.5C6.6 14.7 6.9 14 7.7 14.5L8 14.3C8.1 14.3 8.1 14.5 8.3 14.6C8.2 14.4 8.5 14.6 8.5 14.4C8.6 14.5 8.5 14.5 8.5 14.6C8.9 14.8 9.1 14.5 9.5 14.6C9.3 14.5 9 14.4 8.8 14.3C9.1 14.2 9.2 14.4 9.5 14.3L9.4 14.4C9.6 14.7 9.9 14.3 10 14.6C10.2 14.6 10.3 14.3 10.5 14.3V14.6H10.7V14.4C10.8 14.4 10.8 14.4 10.8 14.5C10.9 14.3 11.1 14.4 11.3 14.3V14.4C11.3 14.4 11.3 14.4 11.3 14.3C11.4 14.5 11.5 14.4 11.6 14.5C11.5 14.5 11.4 14.6 11.4 14.5C11.3 14.7 11.6 14.6 11.7 14.6C11.6 14.5 11.7 14.5 11.8 14.5C11.8 14.5 11.8 14.5 11.8 14.6C12 14.7 12 14.3 12.2 14.6V14.4L12.4 14.5C12.3 14.2 12.6 14.5 12.6 14.2C12.8 14.2 12.6 14.4 12.7 14.4C12.9 14.5 13.1 14.2 13.2 14.3C13.3 14.2 13.5 14.3 13.6 14.2V14.3C13.7 14.3 13.7 14.2 13.8 14.2C13.8 14.2 13.8 14.2 13.8 14.3C14 14.2 14.2 14.2 14.4 14.2C14.4 14.3 14.4 14.4 14.3 14.4C14.5 14.5 14.8 14.2 15.1 14.3V14.4L15.2 14.3C15.2 14.3 15.2 14.4 15.2 14.5C15.5 14.5 15.8 14.6 15.9 14.3C15.8 14.4 16.1 14.5 15.9 14.6C16.2 14.4 16.5 14.5 16.8 14.5L16.9 14.4H16.8C16.9 14.4 17 14.3 17.1 14.3C17.1 14.4 17.2 14.5 17.3 14.5C17.3 14.3 17.7 14.7 17.8 14.5C17.8 14.5 17.7 14.5 17.8 14.6C18.2 14.6 18.7 14.4 19.2 14.6C19.2 14.3 19.6 14.4 19.8 14.2C19.9 14.4 19.7 14.3 19.6 14.4C19.7 14.4 19.7 14.6 19.9 14.5V14.6C20 14.6 19.8 14.4 20.1 14.4V14.5L20.2 14.3C20.7 14.4 21 14.3 21.5 14.5C21.5 14.5 21.5 14.4 21.4 14.4C21.6 14.4 21.7 14.2 22 14.4V14.5C22.4 14.6 22.3 14.4 22.7 14.3C22.6 14.3 22.4 14.4 22.4 14.2C22.4 14.1 22.6 14.1 22.7 14.2L22.6 14C22.6 14.1 22.4 14.1 22.3 14.1V14C22.2 14.1 22.1 14 21.9 14.1H22.1C22.1 14.3 21.8 14.1 21.7 14.1C21.7 13.9 21.8 14 21.6 13.8C21.3 13.7 21.4 14 21.2 14.1L21.3 14.2C21.2 14.2 21.2 14.4 21 14.3C21 14.2 21.1 14.2 21.1 14.1C21.1 14 21 14.3 20.8 14.2C20.9 14 21.1 14 21.3 14C21.3 13.9 21.3 13.9 21.3 13.8C20.8 14 20.3 14 19.8 13.9C20 13.7 19.7 13.9 19.7 13.7C19.7 13.9 19.5 13.7 19.4 13.8C19.3 13.6 19.6 13.7 19.5 13.6C19.3 13.6 19 13.9 18.6 13.8C18.6 13.7 18.7 13.7 18.7 13.7C18.5 13.7 18.3 14.1 18.1 13.8C18.2 13.7 18.3 13.6 18.4 13.5C18.3 13.5 18.3 13.5 18.3 13.4L18.4 13.3C18.1 13.2 18.3 13.6 18.1 13.7L17.9 13.5C17.6 13.4 17.3 13.4 17.2 13.7C17.1 13.7 16.9 13.7 17 13.5C17.1 13.3 17.1 13.1 17.4 13.2C17.5 13.4 17.2 13.4 17.3 13.4C17.4 13.4 17.7 13.5 17.7 13.4H17.4C17.4 13.2 17.5 13.4 17.6 13.3C17.5 13.1 17.3 13.3 17.2 13.2C17 13.2 17 13.2 16.7 13.3C16.7 13.5 16.8 13.4 17 13.5C16.6 13.5 16.1 13.8 15.6 13.5L15.8 13.3C15.6 13.3 15.4 13.4 15.4 13.2C15.6 13.3 15.5 13.1 15.6 13.1C15.6 13.1 15.7 13.1 15.6 13C15.5 13.1 15.3 13.2 15.2 13.3C15.3 13.2 15.1 13.2 15.1 13.1C15 13.1 15.1 13.2 15.1 13.3C15 13.3 14.9 13.4 14.8 13.3C14.7 13.2 14.9 13.2 14.9 13.1L14.5 13.3C14.5 13.3 14.4 13.4 14.4 13.3C14.3 13.2 14.4 13.2 14.5 13.2C14.2 13 14.2 13.5 13.9 13.2L13.8 13.3V13.2L13.7 13.3C13.5 13.4 13.6 13.1 13.5 13C13.4 13 13.4 12.9 13.4 12.9L13.2 13C13.1 13.2 12.8 13.2 12.9 13.5C12.8 13.5 12.8 13.4 12.8 13.4C12.6 13.4 12.8 13.2 12.5 13.2C12.5 13.1 12.5 13.2 12.6 13.1C12.5 13.1 12.5 13.1 12.5 13.1V13C12.5 13.1 12.4 13.1 12.3 13.1L12.4 12.9C12.3 13 12.3 13 12.2 13L12.3 12.9C12.1 12.9 12.3 13.2 12.1 13L12.3 13.1C12.1 13.1 12.2 13.4 12.1 13.5C11.9 13.7 11.5 13.3 11.4 13.7C11.3 13.6 11.4 13.5 11.3 13.4C11.4 13.4 11.6 13.3 11.6 13.1C11.9 12.9 11.8 13.6 12.1 13.3C12 13.1 11.9 13.1 11.9 13.2C11.9 13.1 12 13 12 12.9C11.8 13 11.5 12.8 11.4 12.8C11.4 12.9 11.2 13 11.1 12.9C11.1 13 10.8 13.1 11 13.3C10.8 13.3 10.8 13 10.6 13.2C10.6 13 10.4 13.1 10.5 12.9C10.6 13.1 10.8 12.8 10.9 12.7L10.6 12.6C10.7 12.7 10.6 12.8 10.6 12.8L10.5 12.6C10.5 13 9.9 12.3 9.8 12.7C9.9 12.7 10 12.8 10 12.6C10.2 12.7 10 12.9 10.1 13C9.8 13.1 9.4 12.9 9.1 13.1C9.1 13 9.3 13 9.3 12.9C9 12.8 8.8 13.1 8.6 13.3V13.1C8.4 13.3 8.5 13 8.3 13.1C8.3 13.1 8.4 13.2 8.3 13.2C8.1 13.2 8.2 13 8.1 13C7.9 13.3 7.9 12.8 7.7 12.9V12.8C7.5 12.9 7.1 12.6 6.8 12.6C6.8 12.6 7 12.6 7 12.8H6.7C6.7 12.8 6.5 12.7 6.6 12.6H6.7L6.6 12.5C6.3 12.6 6.7 12.8 6.7 13C6.5 12.9 6.5 13.1 6.4 13.1C6.3 12.9 6.6 12.9 6.4 12.7C6.3 12.6 6 12.7 5.9 12.9C5.5 12.7 5.1 13 5 12.7C5 12.7 5 12.8 4.9 12.8V12.7C4.6 12.6 4.7 13 4.6 12.9C4.6 12.8 4.6 12.8 4.6 12.8C4.3 12.7 4.2 13.2 3.9 13V12.9H3.8L4 13C3.9 13.4 3.5 12.8 3.3 12.9C3.3 12.8 3.5 12.8 3.4 12.7C3.2 12.7 3.3 13.1 3.1 12.9C3.2 12.9 3.1 12.7 3.2 12.6C3.1 12.6 3 12.5 2.9 12.6L2.8 12.5C2.7 12.6 2.6 12.5 2.5 12.5V12.4C2.4 12.8 2.2 12.4 2 12.4V12.3C1.9 12.3 1.8 12.5 1.6 12.3V12.2C1.5 12.3 1.2 12.1 1.2 12.3C1.1 12.3 1.3 12.1 1.1 12.1C1.1 12.2 1 12.2 0.9 12.2C0.9 12.2 0.9 12.2 0.8 12.2C0.8 12.1 0.8 12.1 0.9 12.1C0.9 12.1 0.9 12.1 0.9 12.2V12.1C0.7 12 0.8 12.2 0.6 12.1C0.6 12 0.6 12 0.6 11.9L0 12.1C0 12.2 0.1 12.2 0.1 12.4H0.3C0.4 12.6 0.2 12.6 0.2 12.6H0.3H0.4C0.4 13 1 13 0.8 13.2C0.9 13.2 0.9 13.1 1 13C1 13 1 13.1 1.1 13.1L0.9 13.2C1.2 13.2 0.9 13.4 1.2 13.5C1.4 13.4 1.7 13.9 1.9 13.9C2.2 13.9 1.7 13.7 1.9 13.6C2 13.6 2 13.7 2.1 13.7V13.5C2.3 13.5 2.2 13.7 2.2 13.6C2.4 13.7 2.2 13.7 2.2 13.8C2.2 13.8 2.4 13.7 2.4 13.8C2.4 13.9 2.2 13.9 2.4 13.9C2.8 13.8 3 14 3.4 14V14.1C3.4 14.1 3.5 14 3.5 14.1V14.2C3.7 14.1 4 14.1 4.2 14.1L4 14.3L4.2 14.2V14.4C4.2 14.2 4.5 14.3 4.7 14.3V14.4L4.8 14.3V14.4C4.9 14.4 5 14.2 5.2 14.3C5.2 14.2 5.2 14.4 5.3 14.5ZM10.7 14.3C10.5 14.2 10.6 14.3 10.7 14.3V14.3ZM19.3 14.4H19.1C19.2 14.5 19.3 14.4 19.3 14.4C19.3 14.5 19.3 14.5 19.3 14.4ZM7.5 14.1C7.5 13.9 7.6 14.1 7.7 14C7.6 14.1 7.6 14.3 7.5 14.1ZM10.3 14.1C10.3 14.2 10.2 14.2 10.1 14.3C10 14.3 10.1 14.2 10.1 14.1H10C10 13.9 10.2 14.2 10.3 14.1ZM13.9 14.2C14 14.2 14.1 14.1 14.1 14.1V14C14 14 13.8 14 13.8 14.1C13.8 14 13.8 14.3 13.9 14.2ZM8.7 13.8C8.8 13.8 8.8 13.5 9 13.6L8.9 13.7V13.8C8.9 13.6 8.8 13.8 8.7 13.8ZM15.1 14.1C15.2 14.1 15.3 14 15.3 13.9C15.3 13.9 15.3 13.9 15.3 13.8C15.3 13.9 15.1 14 15.1 14.1C15 14.1 15 14.1 15.1 14.1ZM14.9 13.9C14.8 13.9 14.8 13.7 14.7 13.8C14.7 13.9 14.8 14.2 14.6 14.1C14.7 13.9 14.7 13.8 14.8 13.7L14.9 13.9ZM14.7 14.2L14.5 14.1C14.6 13.9 14.6 14.1 14.7 14.2C14.8 14.3 14.8 14.3 14.7 14.2ZM16.4 14.3C16.4 14.4 16.4 14.4 16.3 14.4L16.4 14.3C16.3 14.3 16.2 14.2 16.4 14.3ZM14.9 14.2H15.1C15.1 14.2 14.9 14.1 14.9 14.2ZM15.9 14.1C16 14.1 16.1 14.1 16.2 14.1C16.2 14.2 16 14.2 15.9 14.1ZM20.8 14.3L20.7 14.2H20.8V14.3ZM17.7 13.8C18 14 18.2 14 18.4 14C18.5 14.1 18.3 14.2 18.3 14.3C18.3 13.8 18.1 14.3 17.9 14.1C17.9 14.1 18 14.1 18 14C17.9 14 17.9 13.9 17.8 14V14.1C17.8 14.1 17.8 14.1 17.8 14C17.8 13.9 17.8 13.9 17.7 13.8ZM15.8 13.7C15.8 13.7 15.9 13.8 15.8 13.9C15.7 13.8 15.7 13.7 15.8 13.7ZM15.8 13.5L15.6 13.7L15.7 13.6L15.5 13.7C15.5 13.6 15.6 13.5 15.7 13.5C15.7 13.4 15.8 13.4 15.8 13.5ZM12.7 13.6H12.6C12.7 13.5 12.8 13.5 12.9 13.5C12.7 13.2 12.9 13.6 12.6 13.4C12.9 13.4 12.7 13.2 12.7 13.1C12.7 13.3 12.3 13.2 12.5 13.6C12.5 13.5 12.7 13.9 12.7 13.6ZM5.9 13.1C5.9 12.9 6.2 13.1 6.2 13.2C6.2 13.1 6 13.1 5.9 13.1ZM4.1 13.1C4.2 13.1 4.3 12.9 4.4 13.1L4.2 13.2C4.2 13.1 4.1 13.2 4.1 13.1ZM2.8 13V13.2H2.9L2.8 13ZM3 12.7C3 12.7 2.8 12.7 2.9 12.8L3 12.7ZM1.7 12.9V12.7H1.6L1.7 12.9ZM1.8 13V12.9C1.8 12.9 1.9 12.8 2 12.9C2 13 1.9 12.9 1.9 13C1.9 13 2 13.1 2.1 13C2 12.8 2 12.8 2 12.7C1.8 12.6 1.8 12.8 1.8 12.9C1.8 12.9 1.8 12.9 1.8 13ZM2.5 13.1C2.5 13 2.5 13 2.5 13.1C2.3 13 2.2 12.9 2.3 12.7H2.4C2.3 12.7 2.4 12.7 2.4 12.8C2.5 12.9 2.5 12.8 2.6 12.7C2.5 12.8 2.4 12.9 2.5 13.1C2.5 13 2.5 13 2.5 13.1C2.6 13 2.6 13 2.6 13.1C2.6 13.1 2.6 13 2.5 13.1C2.6 13.1 2.6 13.1 2.5 13.1ZM1.7 13.1V13.2H1.6L1.7 13.1ZM5.5 13.2C5.5 13.2 5.7 13.2 5.7 13.1L5.8 13.3C5.7 13.3 5.6 13.4 5.7 13.4C5.5 13.3 5.5 13.4 5.5 13.2ZM10.5 13.4C10.5 13.5 10.2 13.3 10.2 13.5C10.1 13.3 10.4 13.4 10.5 13.4ZM10.6 13.7C10.7 13.6 10.7 13.5 10.8 13.6H10.7C10.8 13.7 10.8 13.7 10.6 13.7ZM7.8 13.7H7.9L8 13.6L7.8 13.7ZM6.5 13.9C6.6 13.8 6.5 13.7 6.5 13.7C6.5 13.7 6.5 13.7 6.6 13.7C6.6 13.7 6.6 13.7 6.5 13.7C6.4 13.7 6.3 13.7 6.3 13.8C6.4 13.7 6.5 13.7 6.5 13.9ZM3.7 13.9C3.8 13.9 3.8 13.8 3.9 13.9C3.8 13.9 3.7 13.9 3.7 13.9ZM7.2 14C7.2 13.9 7.4 13.9 7.3 13.8H7.2C7.3 13.8 7.2 13.6 7.4 13.7H7.3C7.4 13.8 7.2 13.9 7.4 13.9C7.4 14 7.3 14.1 7.2 14ZM3.5 14.1C3.6 14.1 3.5 13.8 3.7 14C3.6 14 3.7 14.2 3.5 14.1Z" fill="white"/>
<path d="M5.7 12.9C5.7 12.9 5.6 12.9 5.5 12.9C5.6 12.9 5.7 13 5.7 12.9ZM22.1 13.6C22.2 13.3 22 13.5 21.9 13.5C22 13.5 22.1 13.7 22.1 13.6ZM21.5 14C21.5 13.9 21.6 13.9 21.7 13.9C21.6 13.8 21.5 13.8 21.5 14ZM22.1 13.9C22 13.8 21.8 13.8 21.7 13.8C21.8 13.8 21.9 13.9 22.1 13.9ZM19.4 13.7C19.5 13.5 19.7 13.6 19.7 13.6C19.2 13.4 19.7 13.3 19.8 13.2C19.5 13.3 19.5 13.5 19.4 13.7ZM18.5 13.6C18.3 13.6 18.3 13.8 18.3 13.9C18.5 14 18.6 13.8 18.8 13.7C18.6 13.8 18.5 13.8 18.5 13.6ZM17.7 13.2C17.7 13.2 17.8 13.2 17.8 13.1H17.5C17.4 13.1 17.6 13.1 17.7 13.2ZM17.2 13.4C17 13.4 17 13.1 16.9 13.2L17 13.6L17.2 13.4ZM16.4 13.2L16.5 12.8C16.3 12.9 16.4 13.2 16.4 13.2ZM15.9 13L16 12.9L15.6 13H15.9ZM8.4 12.9C8.4 13.2 8.9 13.1 9 13.2C8.9 12.8 8.7 13.3 8.4 12.9ZM6.2 13.1L6.6 13C6.2 12.9 6.5 13 6.2 13.1Z" fill="white"/>
</mask>
<g mask="url(#mask0_5_801)">
<path d="M0.5 12.1C0.8 12.5 1.4 12.7 1.7 13.1C1.8 13.2 1.9 13.2 2.1 13.3C2.9 13.6 3.3 13.9 3.9 13.7C4 13.7 4.4 13.9 4.5 13.8C4.8 13.4 4.8 13.8 5.1 13.8C5.3 13.8 5.5 13.8 5.7 13.7C6.3 13.6 6.8 13.6 7.4 13.7C8.1 13.9 8.5 13.5 8.9 13.8C9 13.9 9.2 13.8 9.3 13.7C9.4 13.7 9.6 13.7 9.6 13.6C9.7 13.6 9.8 13.4 9.9 13.4C10.6 13.6 11.2 13.5 12 13.6C12.2 13.6 12.4 13.6 12.6 13.7C13.3 13.8 13.5 13.5 14.3 13.6C14.5 13.6 15.2 13.7 15.4 13.7C16 13.6 16.2 13.9 16.7 14C16.9 14 17.2 14 17.4 13.9C17.6 13.8 21.1 14.1 21.3 14" stroke="#1D1D1B" stroke-width="3" stroke-miterlimit="10" stroke-linejoin="round" stroke-dasharray="20 20"/>
</g>
<mask id="mask1_5_801" style="mask-type:luminance" maskUnits="userSpaceOnUse" x="7" y="6" width="20" height="13">
<path d="M7.49991 18.0998C7.79991 18.0998 8.09991 17.9998 8.29991 17.7998C7.99991 17.7998 7.39991 17.6998 7.49991 18.0998ZM8.09991 17.0998L7.79991 17.2998C8.09991 17.3998 7.99991 17.1998 8.09991 17.0998ZM8.19991 17.4998L8.29991 17.5998L8.39991 17.3998L8.19991 17.4998ZM23.8999 15.6998C23.8999 15.7998 23.8999 15.8998 23.9999 15.8998L23.8999 15.6998ZM24.2999 14.8998L24.3999 14.7998C24.3999 14.7998 24.3999 14.7998 24.2999 14.8998ZM23.1999 15.7998H23.2999C23.2999 15.7998 23.2999 15.7998 23.1999 15.7998ZM15.3999 16.9998C15.2999 17.0998 15.2999 17.1998 15.1999 17.2998C15.4999 17.3998 15.3999 17.0998 15.3999 16.9998ZM25.6999 15.1998V15.0998C25.5999 15.0998 25.5999 15.1998 25.6999 15.1998ZM23.6999 12.9998C23.6999 13.0998 23.6999 13.0998 23.7999 13.0998L23.6999 12.9998ZM24.6999 15.0998C24.5999 15.1998 24.5999 15.1998 24.5999 15.2998C24.5999 15.2998 24.6999 15.1998 24.6999 15.0998ZM24.4999 14.7998C24.3999 14.7998 24.3999 14.7998 24.4999 14.7998V14.7998ZM15.3999 16.9998L15.4999 16.8998C15.3999 16.8998 15.3999 16.8998 15.3999 16.9998ZM9.19991 17.8998C9.29991 17.8998 9.29991 17.7998 9.29991 17.6998C9.29991 17.7998 9.19991 17.7998 9.19991 17.8998ZM11.2999 9.1998C11.3999 9.1998 11.3999 9.1998 11.2999 9.1998C11.2999 9.0998 11.3999 9.0998 11.2999 9.1998Z" fill="white"/>
<path d="M14.9996 13.3998L15.6996 13.1998C15.6996 13.2998 15.9996 13.4998 15.7996 13.5998L16.0996 13.3998V13.5998C17.1996 14.1998 18.0996 13.1998 19.1996 14.0998V14.1998L19.7996 13.9998C19.8996 14.0998 19.9996 14.3998 20.1996 14.4998C20.0996 14.1998 20.5996 14.4998 20.6996 14.2998C20.8996 14.4998 20.6996 14.4998 20.6996 14.5998C21.2996 14.9998 21.7996 14.5998 22.4996 14.9998C22.0996 14.6998 21.7996 14.4998 21.2996 14.2998C21.7996 14.1998 21.8996 14.5998 22.4996 14.5998L22.1996 14.6998C22.4996 15.1998 23.0996 14.5998 23.1996 15.1998C23.4996 15.1998 23.7996 14.7998 24.1996 14.8998L24.0996 15.2998L24.4996 15.3998V15.0998C24.5996 15.0998 24.6996 15.1998 24.6996 15.2998C24.8996 14.9998 25.2996 15.2998 25.6996 15.0998L25.7996 15.2998C25.7996 15.2998 25.7996 15.1998 25.8996 15.1998C25.9996 15.4998 26.2996 15.3998 26.2996 15.6998C26.1996 15.6998 25.8996 15.7998 25.8996 15.6998C25.5996 15.8998 26.2996 15.8998 26.4996 15.9998C26.2996 15.7998 26.4996 15.7998 26.6996 15.7998V15.8998C26.6996 15.8998 26.7996 15.8998 26.7996 15.9998L25.8996 12.1998C25.6996 12.2998 25.7996 12.7998 25.3996 12.3998L25.4996 12.6998L25.1996 12.5998C25.3996 13.1998 24.8996 12.6998 24.9996 13.2998C24.6996 13.3998 24.8996 12.9998 24.7996 13.0998C24.4996 13.0998 24.1996 13.6998 23.9996 13.3998C23.7996 13.6998 23.4996 13.5998 23.3996 13.7998L23.2996 13.5998C23.1996 13.6998 23.0996 13.7998 22.9996 13.7998V13.6998C22.6996 13.8998 22.3996 13.9998 21.9996 14.0998C21.9996 13.8998 21.8996 13.7998 22.0996 13.6998C21.6996 13.4998 21.3996 14.1998 20.8996 14.1998V14.0998L20.4996 13.9998C20.4996 13.8998 20.4996 13.7998 20.3996 13.6998C19.8996 13.7998 19.3996 13.8998 19.2996 14.3998C19.3996 14.2998 18.9996 14.1998 19.1996 13.8998C18.8996 14.2998 18.2996 14.3998 17.7996 14.5998L17.5996 14.7998L17.6996 14.6998C17.4996 14.7998 17.3996 14.8998 17.1996 15.0998C17.0996 14.9998 16.9996 14.7998 16.7996 14.7998C16.8996 15.0998 16.0996 14.6998 15.9996 14.9998C15.8996 14.8998 16.0996 14.8998 15.9996 14.7998C15.3996 14.9998 14.5996 15.5998 13.7996 15.4998C13.9996 16.0998 13.2996 16.0998 12.9996 16.3998C12.7996 16.0998 13.1996 16.1998 13.1996 15.8998C12.9996 15.9998 12.9996 15.4998 12.6996 15.7998C12.6996 15.6998 12.6996 15.6998 12.7996 15.6998C12.5996 15.6998 12.9996 16.0998 12.5996 16.0998L12.4996 15.8998L12.3996 16.2998C11.5996 16.2998 11.0996 16.5998 10.3996 16.4998C10.3996 16.5998 10.4996 16.6998 10.4996 16.6998C10.1996 16.6998 9.99961 17.1998 9.59961 16.9998L9.69961 16.8998C9.09961 16.7998 9.29961 17.2998 8.69961 17.4998C8.79961 17.4998 9.09961 17.2998 9.19961 17.4998C9.19961 17.6998 8.89961 17.6998 8.69961 17.5998L8.89961 17.8998C8.89961 17.6998 9.19961 17.6998 9.29961 17.4998C9.29961 17.4998 9.29961 17.5998 9.29961 17.6998C9.49961 17.5998 9.59961 17.4998 9.79961 17.3998H9.49961C9.49961 17.0998 9.99961 17.2998 10.0996 17.1998C10.1996 17.4998 9.99961 17.4998 10.2996 17.6998C10.8996 17.6998 10.4996 17.2998 10.8996 16.9998L10.7996 16.8998C10.8996 16.7998 10.9996 16.4998 11.2996 16.6998C11.3996 16.8998 11.1996 16.8998 11.0996 17.0998C11.1996 17.1998 11.2996 16.6998 11.4996 16.8998C11.3996 17.1998 11.1996 17.3998 10.7996 17.3998C10.8996 17.4998 10.8996 17.5998 10.8996 17.6998C11.5996 17.1998 12.2996 16.8998 13.0996 16.7998C12.7996 17.2998 13.2996 16.7998 13.2996 17.1998C13.2996 16.8998 13.5996 17.0998 13.7996 16.9998C13.9996 17.2998 13.4996 17.2998 13.6996 17.4998C14.0996 17.2998 14.3996 16.6998 14.9996 16.6998C14.9996 16.7998 14.8996 16.8998 14.8996 16.8998C15.1996 16.6998 15.3996 15.8998 15.7996 16.3998C15.6996 16.5998 15.5996 16.7998 15.4996 16.9998C15.4996 16.9998 15.5996 16.9998 15.6996 17.0998V17.2998C16.0996 17.2998 15.7996 16.7998 15.9996 16.3998L16.3996 16.6998C16.8996 16.7998 17.2996 16.4998 17.3996 15.9998C17.4996 15.9998 17.7996 15.8998 17.7996 16.1998C17.6996 16.5998 17.6996 16.8998 17.1996 16.9998C16.9996 16.6998 17.3996 16.5998 17.2996 16.5998C17.0996 16.6998 16.6996 16.5998 16.5996 16.7998L17.0996 16.6998C17.1996 17.0998 16.8996 16.7998 16.8996 16.9998C17.1996 17.2998 17.2996 16.8998 17.5996 16.9998C17.9996 16.7998 17.8996 16.8998 18.2996 16.6998C18.1996 16.2998 18.0996 16.4998 17.7996 16.3998C18.3996 16.1998 18.9996 15.3998 19.8996 15.7998L19.5996 16.1998C19.8996 16.1998 20.1996 15.7998 20.2996 16.1998C19.9996 16.0998 20.1996 16.3998 20.0996 16.4998C20.0996 16.4998 19.9996 16.5998 20.0996 16.6998C20.2996 16.3998 20.4996 16.1998 20.6996 15.9998C20.5996 16.0998 20.8996 16.1998 20.9996 16.2998C21.1996 16.1998 20.8996 16.0998 20.8996 15.9998C20.9996 15.9998 21.0996 15.5998 21.2996 15.8998C21.4996 16.0998 21.1996 16.1998 21.1996 16.3998L21.6996 15.8998V15.9998C21.6996 15.8998 21.7996 15.7998 21.8996 15.8998C21.9996 15.9998 21.8996 16.0998 21.7996 16.0998C22.2996 16.2998 22.1996 15.3998 22.6996 15.7998L22.7996 15.5998L22.8996 15.6998L22.9996 15.4998C23.2996 15.2998 23.1996 15.7998 23.3996 15.8998C23.4996 15.8998 23.6996 16.0998 23.5996 16.0998L23.8996 15.7998C23.8996 15.4998 24.4996 15.2998 24.1996 14.6998C24.2996 14.6998 24.3996 14.7998 24.3996 14.8998C24.6996 14.7998 24.4996 15.2998 24.8996 15.0998C24.8996 15.1998 24.8996 15.1998 24.7996 15.1998C24.8996 15.1998 24.9996 15.0998 24.9996 15.0998C24.9996 15.1998 25.0996 15.1998 25.0996 15.2998C24.9996 15.0998 25.1996 15.0998 25.2996 15.0998V15.4998C25.2996 15.3998 25.3996 15.1998 25.5996 15.1998C25.5996 15.1998 25.5996 15.1998 25.6996 15.1998V15.4998C25.9996 15.2998 25.4996 14.9998 25.9996 15.0998L25.4996 14.9998C25.8996 14.7998 25.5996 14.3998 25.6996 14.1998C25.8996 13.8998 26.1996 13.9998 26.4996 13.8998V13.7998C26.2996 13.7998 26.0996 13.8998 26.0996 13.9998C25.9996 13.7998 26.0996 13.6998 25.8996 13.4998C26.0996 13.4998 26.3996 13.3998 26.3996 13.0998L26.7996 14.4998C26.3996 14.8998 26.2996 13.6998 25.9996 14.2998C26.0996 14.5998 26.2996 14.4998 26.3996 14.3998C26.4996 14.5998 26.3996 14.7998 26.2996 14.9998C26.4996 14.8998 26.6996 14.8998 26.8996 14.8998L26.2996 12.6998C26.1996 12.5998 25.9996 12.5998 25.8996 12.4998C25.7996 12.5998 25.4996 12.6998 25.3996 12.5998C25.3996 12.7998 24.8996 12.7998 25.0996 13.1998C24.6996 13.1998 24.7996 12.5998 24.4996 12.9998C24.5996 12.6998 24.1996 12.6998 24.3996 12.4998C24.5996 12.7998 24.8996 12.3998 25.0996 12.2998L24.4996 11.9998C24.5996 12.0998 24.4996 12.2998 24.3996 12.2998L24.2996 11.9998C24.2996 12.5998 23.2996 11.2998 23.0996 11.9998C23.2996 11.9998 23.3996 12.2998 23.4996 11.8998C23.7996 12.1998 23.4996 12.3998 23.5996 12.5998C23.0996 12.6998 22.2996 12.1998 21.7996 12.4998C21.8996 12.2998 22.0996 12.3998 22.0996 12.0998C21.6996 11.8998 21.1996 12.3998 20.7996 12.4998L20.8996 12.1998C20.4996 12.3998 20.6996 11.9998 20.2996 12.0998C20.2996 12.0998 20.3996 12.2998 20.2996 12.2998C19.9996 12.1998 20.1996 11.9998 19.9996 11.8998C19.5996 12.2998 19.7996 11.4998 19.1996 11.6998V11.5998C18.7996 11.6998 18.1996 11.0998 17.6996 10.9998C17.6996 11.0998 18.0996 11.0998 18.0996 11.3998H17.4996C17.4996 11.2998 17.1996 11.1998 17.2996 11.0998C17.3996 11.0998 17.4996 11.1998 17.4996 11.1998L17.3996 10.9998C16.8996 11.0998 17.4996 11.4998 17.4996 11.7998C17.1996 11.5998 17.0996 11.8998 16.8996 11.8998C16.7996 11.5998 17.1996 11.5998 16.9996 11.2998C16.7996 11.0998 16.2996 11.1998 16.0996 11.4998C15.7996 10.6998 14.9996 11.0998 14.8996 10.4998C14.8996 10.4998 14.7996 10.6998 14.6996 10.5998L14.7996 10.4998C14.3996 10.1998 14.3996 10.8998 14.1996 10.6998C14.1996 10.5998 14.2996 10.5998 14.2996 10.4998C13.7996 10.1998 13.4996 10.9998 12.9996 10.4998C12.9996 10.3998 12.9996 10.3998 13.0996 10.3998C13.0996 10.2998 12.9996 10.2998 12.8996 10.3998L13.0996 10.6998C12.9996 10.9998 12.4996 9.9998 11.9996 9.9998C11.9996 9.8998 12.3996 9.9998 12.1996 9.7998C11.8996 9.6998 11.8996 10.3998 11.5996 9.9998C11.7996 9.9998 11.6996 9.5998 11.8996 9.5998C11.6996 9.4998 11.4996 9.2998 11.4996 9.4998C11.3996 9.3998 11.3996 9.3998 11.3996 9.2998C11.1996 9.3998 10.9996 9.0998 10.7996 8.9998V8.8998C10.4996 9.3998 10.2996 8.7998 9.99961 8.6998L10.0996 8.4998C9.89961 8.5998 9.59961 8.4998 9.49961 8.2998L9.59961 8.0998C9.39961 8.1998 9.09961 7.6998 8.89961 7.9998C8.79961 7.8998 9.09961 7.6998 8.79961 7.4998C8.69961 7.5998 8.49961 7.5998 8.39961 7.4998C8.39961 7.4998 8.39961 7.3998 8.29961 7.3998C8.29961 7.2998 8.39961 7.1998 8.39961 7.2998C8.49961 7.2998 8.39961 7.2998 8.39961 7.3998L8.49961 7.2998C8.39961 7.0998 8.39961 7.3998 8.09961 7.1998C8.09961 6.9998 8.19961 6.9998 8.29961 6.8998C8.29961 6.8998 7.99961 6.8998 7.79961 6.7998H7.29961C7.29961 6.8998 7.39961 7.0998 7.19961 7.1998L7.49961 7.3998C7.59961 7.6998 7.29961 7.5998 7.09961 7.5998L7.29961 7.6998V7.7998L7.49961 7.8998C6.99961 7.9998 7.99961 8.5998 7.39961 8.5998C7.49961 8.5998 7.69961 8.5998 7.79961 8.4998C8.09961 8.4998 7.99961 8.6998 8.09961 8.7998H7.69961C8.29961 9.0998 7.59961 9.0998 7.99961 9.4998C8.49961 9.5998 8.69961 10.3998 8.99961 10.5998C9.49961 10.7998 8.79961 10.1998 9.19961 10.1998C9.49961 10.2998 9.29961 10.3998 9.49961 10.5998L9.59961 10.2998C9.89961 10.3998 9.59961 10.5998 9.79961 10.5998C9.99961 10.8998 9.69961 10.6998 9.59961 10.8998C9.79961 10.7998 9.99961 10.8998 10.0996 10.9998C10.0996 11.0998 9.79961 10.9998 9.99961 11.0998C10.7996 11.1998 10.9996 11.6998 11.6996 11.8998L11.5996 11.9998C11.6996 11.9998 11.6996 11.8998 11.7996 11.9998V12.0998C12.1996 12.0998 12.6996 12.1998 13.0996 12.2998L12.8996 12.3998L13.2996 12.2998V12.5998C13.3996 12.2998 13.8996 12.6998 14.2996 12.6998V12.8998L14.4996 12.7998L14.3996 12.9998C14.5996 12.9998 14.8996 12.7998 15.1996 12.9998C14.9996 12.8998 14.9996 13.1998 14.9996 13.3998ZM24.5996 14.8998H24.6996C24.6996 14.9998 24.5996 14.9998 24.5996 14.8998H24.3996C24.3996 14.6998 24.4996 14.8998 24.5996 14.8998ZM14.2996 15.6998L14.4996 15.5998C14.3996 15.5998 14.2996 15.6998 14.2996 15.5998C14.2996 15.5998 14.1996 15.5998 14.2996 15.6998ZM23.9996 12.8998L24.0996 12.7998L24.1996 12.9998L23.9996 12.8998ZM19.0996 13.5998C19.1996 13.2998 19.2996 13.6998 19.4996 13.5998C19.3996 13.5998 19.2996 13.8998 19.0996 13.5998ZM23.9996 14.3998C23.9996 14.5998 23.6996 14.5998 23.6996 14.6998C23.5996 14.5998 23.6996 14.4998 23.7996 14.3998C23.6996 14.3998 23.6996 14.3998 23.5996 14.3998C23.5996 13.9998 23.7996 14.5998 23.9996 14.3998ZM23.6996 13.4998L23.7996 13.2998H23.6996V13.4998ZM22.6996 13.5998C22.4996 13.6998 22.3996 13.7998 22.4996 13.9998C22.4996 13.9998 22.4996 14.0998 22.5996 14.0998C22.7996 13.9998 23.0996 13.9998 23.0996 13.6998C22.8996 13.8998 22.7996 13.2998 22.6996 13.5998ZM21.2996 13.4998C21.3996 13.4998 21.5996 12.9998 21.9996 13.3998L21.7996 13.4998H21.8996V13.6998C21.7996 13.1998 21.3996 13.4998 21.2996 13.4998ZM20.8996 14.3998C20.6996 14.4998 20.5996 14.7998 20.6996 14.9998C20.5996 14.7998 20.8996 14.4998 20.9996 14.2998C20.9996 14.3998 20.9996 14.3998 20.8996 14.3998ZM21.1996 14.6998C21.2996 14.6998 21.3996 14.9998 21.4996 14.6998C21.3996 14.4998 21.2996 14.0998 21.5996 14.0998C21.4996 14.4998 21.5996 14.5998 21.2996 14.8998L21.1996 14.6998ZM21.3996 13.8998L21.7996 13.9998C21.7996 14.3998 21.5996 13.9998 21.3996 13.8998H21.2996C21.2996 13.8998 21.2996 13.8998 21.3996 13.8998ZM18.8996 14.5998L18.9996 14.4998C18.9996 14.3998 18.9996 14.3998 19.0996 14.3998L18.9996 14.4998C18.9996 14.5998 19.1996 14.6998 18.8996 14.5998ZM21.0996 13.9998L20.7996 14.0998C20.8996 14.1998 21.0996 14.1998 21.0996 13.9998ZM19.5996 14.6998C19.3996 14.6998 19.2996 14.7998 19.0996 14.7998C19.1996 14.5998 19.4996 14.4998 19.5996 14.6998ZM11.9996 16.4998L12.1996 16.6998L11.9996 16.7998V16.4998ZM14.2996 16.3998H14.3996L14.4996 16.4998L14.2996 16.3998ZM16.8996 16.0998C16.8996 16.0998 16.7996 16.0998 16.7996 15.9998C16.4996 15.8998 16.1996 15.8998 15.8996 15.9998C15.6996 15.8998 15.9996 15.5998 15.9996 15.4998C16.1996 16.3998 16.2996 15.3998 16.5996 15.5998C16.5996 15.6998 16.3996 15.6998 16.3996 15.7998C16.4996 15.8998 16.5996 15.8998 16.6996 15.7998C16.6996 15.6998 16.6996 15.6998 16.6996 15.6998V15.7998C16.6996 15.8998 16.6996 15.8998 16.7996 15.9998L16.8996 16.0998ZM19.9996 15.3998C19.9996 15.2998 19.8996 15.2998 19.9996 15.0998C20.0996 15.1998 20.0996 15.2998 19.9996 15.3998C19.9996 15.3998 19.9996 15.4998 19.8996 15.4998C19.8996 15.4998 19.9996 15.4998 19.9996 15.3998ZM19.9996 15.8998L20.2996 15.4998L20.1996 15.6998L20.3996 15.4998C20.4996 15.6998 20.3996 15.8998 20.1996 15.8998C20.0996 15.8998 20.0996 15.8998 19.9996 15.8998ZM24.6996 14.0998H24.8996C24.7996 14.1998 24.6996 14.2998 24.4996 14.3998C24.9996 14.8998 24.4996 14.2998 24.9996 14.3998C24.4996 14.4998 24.8996 14.7998 24.9996 14.9998C24.9996 14.5998 25.5996 14.6998 25.1996 14.0998C25.0996 14.1998 24.5996 13.5998 24.6996 14.0998ZM16.5996 11.2998C16.6996 10.9998 17.0996 11.3998 17.0996 11.5998C16.9996 11.3998 16.7996 11.3998 16.5996 11.2998ZM13.4996 10.4998C13.6996 10.5998 13.8996 10.2998 13.9996 10.6998H13.5996C13.4996 10.5998 13.3996 10.6998 13.4996 10.4998ZM11.1996 9.6998L11.0996 9.9998H11.1996V9.6998ZM11.5996 9.4998C11.4996 9.4998 11.2996 9.4998 11.3996 9.5998L11.5996 9.4998ZM9.29961 8.8998L9.49961 8.5998L9.29961 8.4998V8.8998ZM9.39961 9.0998C9.39961 9.0998 9.49961 8.9998 9.49961 8.8998C9.59961 8.7998 9.69961 8.8998 9.79961 8.9998C9.79961 9.0998 9.69961 8.9998 9.59961 8.9998C9.69961 8.9998 9.69961 9.1998 9.89961 9.1998C9.79961 8.9998 9.89961 8.9998 9.89961 8.7998C9.49961 8.4998 9.49961 8.7998 9.49961 8.9998C9.39961 8.9998 9.39961 9.0998 9.39961 9.0998ZM10.5996 9.6998C10.5996 9.6998 10.4996 9.5998 10.4996 9.4998C10.2996 9.2998 10.0996 9.1998 10.2996 8.9998L10.4996 9.0998C10.3996 9.0998 10.3996 9.0998 10.3996 9.1998C10.4996 9.3998 10.5996 9.1998 10.7996 9.1998C10.6996 9.2998 10.4996 9.2998 10.4996 9.5998C10.5996 9.5998 10.5996 9.6998 10.6996 9.6998C10.6996 9.6998 10.7996 9.6998 10.7996 9.7998V9.8998C10.7996 9.7998 10.6996 9.7998 10.6996 9.7998C10.6996 9.6998 10.6996 9.7998 10.5996 9.6998ZM9.19961 9.2998C9.19961 9.2998 9.19961 9.3998 9.09961 9.4998H8.99961C8.89961 9.2998 9.09961 9.1998 9.19961 9.2998ZM15.7996 11.2998C15.7996 11.2998 16.1996 11.3998 16.1996 11.1998L16.2996 11.4998C16.0996 11.3998 15.9996 11.5998 15.9996 11.6998C15.7996 11.4998 15.6996 11.5998 15.7996 11.2998ZM24.5996 13.3998C24.4996 13.4998 24.0996 13.1998 23.9996 13.4998C23.7996 12.9998 24.3996 13.1998 24.5996 13.3998ZM24.7996 13.7998C24.8996 13.6998 24.8996 13.3998 25.0996 13.6998C24.9996 13.7998 24.8996 13.5998 24.8996 13.6998C24.8996 13.8998 24.8996 13.8998 24.7996 13.7998ZM19.6996 12.9998L19.9996 13.0998L20.0996 12.8998L19.6996 12.9998ZM17.3996 12.7998H17.5996L17.4996 12.6998C17.4996 12.5998 17.3996 12.4998 17.4996 12.4998C17.3996 12.4998 17.0996 12.3998 17.1996 12.5998C17.2996 12.4998 17.4996 12.5998 17.4996 12.7998H17.3996ZM12.3996 11.5998C12.4996 11.5998 12.4996 11.4998 12.6996 11.6998C12.5996 11.7998 12.3996 11.6998 12.3996 11.5998ZM18.5996 13.2998C18.5996 13.0998 18.8996 13.2998 18.7996 12.9998H18.5996C18.7996 13.0998 18.6996 12.5998 18.8996 12.8998L18.6996 12.7998C18.8996 12.8998 18.4996 13.0998 18.7996 13.1998C18.9996 13.2998 18.6996 13.3998 18.5996 13.2998ZM11.9996 11.8998C12.1996 11.8998 12.0996 11.4998 12.3996 11.7998C12.1996 11.7998 12.1996 12.1998 11.9996 11.8998Z" fill="white"/>
<path d="M12 9.6C12 9.6 11.9 9.5 11.8 9.5C11.9 9.6 12 9.6 12 9.6ZM25.4 12.5C25.4 12.5 25.4 12.6 25.5 12.6C25.4 12.6 25.4 12.6 25.4 12.5ZM9.5 18.1C9.5 18.4 9.6 18.1 9.7 18.1C9.6 18.1 9.5 18 9.5 18.1ZM9.5 17.8C9.6 17.8 9.7 17.8 9.9 17.8C9.8 17.8 9.6 17.7 9.5 17.8ZM11.9 17.3C11.9 17.5 11.6 17.4 11.6 17.4C12.1 17.5 11.6 17.7 11.6 17.9C11.9 17.8 11.8 17.6 11.9 17.3ZM12.5 17.1H12.4C12.4 17.1 12.4 17.1 12.5 17.1ZM12.7 17.2C12.8 17.1 12.8 16.9 12.9 16.8C12.7 16.7 12.6 17 12.5 17.1C12.6 17.1 12.7 17 12.7 17.2ZM17.8 17.1C17.8 17.1 17.7 17.1 17.7 17.2L18 17.1C18.1 17.1 17.9 17.1 17.8 17.1ZM18.6 16.4C18.8 16.3 18.8 16.6 18.9 16.5L18.8 16.2L18.6 16.4ZM19.8 16.5V16.9C19.9 16.8 19.8 16.5 19.8 16.5ZM20.6 16.6L20.5 16.7L20.8 16.5L20.6 16.6ZM20.8 11.9C20.8 12.2 21.2 12.2 21.4 12.3C21.2 11.9 21 12.3 20.8 11.9ZM12.4 9.9L12.8 10C12.5 9.7 12.8 9.9 12.4 9.9Z" fill="white"/>
</mask>
<g mask="url(#mask1_5_801)">
<path d="M7.79961 6.89978C7.69961 7.29978 8.19961 8.09978 8.69961 8.69978C8.89961 8.99978 9.39961 9.49978 9.79961 9.69978C10.3996 10.0998 10.7996 10.1998 11.3996 10.5998C11.8996 10.8998 12.4996 11.2998 13.0996 11.1998C13.2996 11.1998 13.7996 11.3998 13.9996 11.3998C14.4996 11.4998 14.5996 11.5998 15.0996 11.6998C15.2996 11.6998 15.4996 11.6998 15.6996 11.7998L16.9996 12.2998C18.0996 12.4998 18.3996 12.7998 19.2996 12.8998C19.5996 12.8998 19.8996 12.9998 20.1996 13.0998C20.2996 13.0998 20.3996 13.1998 20.4996 13.1998C20.6996 13.2998 20.8996 13.1998 21.0996 13.1998C21.7996 13.0998 22.3996 13.0998 23.0996 13.1998C23.6996 13.2998 25.2996 12.7998 25.8996 13.6998C26.9996 15.4998 23.4996 14.4998 22.5996 14.7998C22.0996 14.9998 21.4996 15.1998 20.8996 15.3998C19.6996 15.7998 21.6996 15.0998 16.8996 15.8998C16.0996 15.9998 15.7996 15.8998 14.8996 16.2998C14.3996 16.4998 13.7996 16.5998 13.2996 16.5998C13.2996 16.6998 12.9996 16.5998 12.9996 16.5998C12.7996 16.5998 12.9996 16.8998 12.8996 16.8998C12.6996 16.8998 12.5996 16.8998 12.3996 16.8998C10.6996 16.8998 9.09961 17.4998 7.59961 18.0998" stroke="#1D1D1B" stroke-width="3" stroke-miterlimit="10" stroke-linejoin="round" stroke-dasharray="42 42"/>
</g>
</g>
<defs>
<clipPath id="clip0_5_801">
<rect width="28" height="25.5" fill="white"/>
</clipPath>
</defs>
</svg>
