<svg width="150" height="59" viewBox="0 0 150 59" fill="none" xmlns="http://www.w3.org/2000/svg">
<path d="M101.694 91.9404C101.694 91.775 101.86 91.5269 102.108 91.4442C102.108 91.3615 102.025 91.1961 101.943 91.0307C101.115 91.1961 101.943 91.6923 101.529 91.9404C101.529 91.9404 101.612 91.9404 101.694 91.9404ZM97.8074 92.9328C97.9728 92.8501 98.1382 92.8501 98.2209 92.8501L98.0555 92.5193C97.8074 92.602 97.7247 92.6847 97.8074 92.9328ZM8.81967 68.4529C9.56399 68.5356 8.73696 69.1973 8.81967 68.4529ZM2.03807 54.6416C2.36888 54.5589 2.28618 54.807 2.45159 54.8897C2.53429 54.807 2.53429 54.7243 2.53429 54.6416C2.36888 54.5589 2.20348 54.3935 2.03807 54.2281C2.03807 54.3935 2.03807 54.4762 2.03807 54.6416ZM-3.66839 39.0936C-3.75109 39.0936 -3.83379 39.1763 -3.83379 39.259C-3.75109 39.1763 -3.66839 39.1763 -3.66839 39.0936ZM6.25589 -7.13702C6.17319 -7.05431 6.09049 -6.97161 6.00779 -6.80621C6.09049 -6.88891 6.17319 -6.97161 6.3386 -6.97161C6.3386 -7.05431 6.25589 -7.05431 6.25589 -7.13702ZM104.589 -32.4439C104.589 -32.4439 104.506 -32.5266 104.424 -32.6093C104.424 -32.6093 104.424 -32.5266 104.424 -32.4439H104.589ZM114.265 -28.3088C114.182 -28.2261 114.1 -28.1434 114.017 -28.0607C114.1 -28.0607 114.1 -27.978 114.1 -27.978C114.265 -27.8126 114.431 -27.8126 114.596 -27.8953C114.513 -27.978 114.513 -28.1434 114.431 -28.2261L114.265 -28.3088ZM147.181 49.4314C147.76 49.266 147.925 48.7698 148.339 48.5217C148.256 47.4465 147.925 46.5368 148.917 45.9579C148.587 45.7098 148.587 44.8828 149.166 44.8001C148.835 44.7174 148.504 44.7174 148.09 44.8001C147.925 45.2963 147.677 45.7925 147.346 46.206C147.594 47.1157 147.346 48.7698 146.684 49.3487C146.933 49.7622 146.767 50.1757 146.933 50.5065C147.346 50.2584 147.346 49.9276 147.181 49.4314ZM140.895 60.8443C140.647 60.4308 140.73 60.5962 140.565 60.2654C141.226 59.9346 141.722 59.273 141.722 58.5286C141.143 59.1903 140.151 59.5211 139.82 60.5135H139.407C139.407 61.0097 139.159 61.4232 138.828 61.754C138.91 61.754 139.076 61.754 139.159 61.754C139.738 61.5059 140.316 61.1751 140.647 60.6789C140.647 60.8443 140.647 60.927 140.895 60.8443ZM118.566 83.7529C118.4 83.4221 118.979 83.3394 118.897 83.0085C118.648 83.1739 118.483 83.2566 118.318 83.4221C118.4 83.6702 118.483 83.8356 118.566 83.7529ZM114.761 85.1588C115.34 84.9107 115.919 84.5799 116.333 84.2491C116.167 84.2491 116.002 84.1664 115.919 84.0837C115.837 84.4972 115.258 84.5799 114.761 84.7453C114.761 84.9107 114.761 84.9934 114.761 85.1588ZM110.957 87.7226C111.04 87.9707 110.874 88.0534 111.04 88.2188C111.371 88.1361 111.371 87.6399 110.957 87.7226ZM109.303 88.3842C109.22 88.715 110.047 88.5496 109.717 88.3015L109.303 88.3842ZM90.695 94.0907C90.8604 94.008 91.0258 94.0079 90.8604 93.7598C90.695 93.8425 90.5296 93.8425 90.5296 94.0079C90.6123 94.0079 90.695 94.008 90.695 94.0907ZM66.2978 95.5793C66.2151 95.9928 66.9594 95.7447 66.7113 95.4966L66.2978 95.5793ZM65.8843 95.4139C65.6362 95.3312 65.3054 95.2485 65.0573 95.0004C63.8994 95.0004 62.907 94.6696 61.9146 94.0907C62.08 94.9177 61.3357 95.0831 60.8394 95.7447C61.9146 95.9101 62.8243 95.4139 63.6513 96.2409C63.8994 95.9928 63.4032 95.662 63.8994 95.5793C64.3956 95.4966 64.9746 95.5793 65.3054 95.9928C65.3881 95.9928 65.5535 95.9101 65.6362 95.9101C65.8016 95.9101 65.967 95.8274 66.0497 95.7447C65.967 95.662 65.967 95.4966 65.8843 95.4139ZM19.6537 70.6859C19.6537 70.5205 19.571 70.4378 19.6537 70.3551C19.3229 70.4378 18.9094 70.4378 18.4131 70.3551C18.165 69.7762 17.6688 69.3627 17.0072 69.1145C17.1726 68.5356 16.2629 68.2048 15.8494 67.7913C15.7667 67.6259 15.9321 67.5432 15.7667 67.2951C15.1877 67.4605 15.3532 66.9643 15.105 66.7162C14.8569 66.4681 14.4434 66.3854 14.278 66.1373C14.1126 65.9719 14.1126 65.7238 14.0299 65.5583C13.7818 65.2275 13.3683 65.0621 13.2856 64.814C13.2029 64.7313 13.6991 64.814 13.2029 64.7313C13.0375 64.6486 12.7067 64.2351 12.4586 63.7389C12.4586 63.9043 12.4586 64.0697 12.5413 64.1524C12.1278 64.1524 12.1278 64.5659 11.4661 64.4005C11.4661 64.4832 11.4661 64.6486 11.3834 64.7313C11.9624 65.8065 12.8721 66.6335 13.7818 67.3778L14.1953 68.3702C14.8569 68.7837 15.1877 69.6935 15.7667 70.5205C15.9321 70.6859 16.3456 70.2724 16.511 70.5205C16.5937 70.8513 16.6764 71.2648 16.5937 71.5956C16.8418 71.5956 16.9245 71.761 17.0072 72.0091C17.8342 71.8437 18.165 72.6707 18.5785 73.3324C19.0748 72.5053 19.4056 71.5956 19.6537 70.6859ZM9.56399 60.5962C9.81209 60.927 9.9775 61.3405 10.0602 61.8367C10.5564 61.5886 10.1429 61.0924 10.1429 60.5962C9.64669 60.1 9.31588 59.4384 9.15048 58.6941C8.65426 58.9422 8.73696 58.1978 8.40615 58.1978C8.81967 59.273 8.48886 60.6789 9.23318 61.2578C9.56399 60.927 8.73696 60.6789 9.56399 60.5962ZM6.5867 56.2957L7.08292 56.213C7.00021 56.1303 7.00021 56.0476 6.91751 55.9649L6.504 56.0476L6.5867 56.2957ZM0.0532174 7.5013H-0.0294847V7.25319H-0.277592V7.5013H0.0532174ZM0.797539 28.5904L0.301324 28.7558L0.384027 29.0039L0.880241 28.8385L0.797539 28.5904ZM-0.442997 33.139C-0.442997 33.2217 -0.525699 33.3044 -0.442997 33.3871C-0.360294 33.8006 -0.525699 34.2142 -0.112187 34.3796C-0.19489 34.4623 -0.360294 34.545 -0.442997 34.6277C-0.277592 35.372 0.218622 36.0336 0.880241 36.4471C1.04565 36.2817 1.21105 36.199 1.54186 36.4471C1.54186 36.3644 1.54186 36.199 1.54186 36.1163C1.29375 35.4547 0.880241 34.545 1.45916 33.966C0.797539 33.966 1.04565 33.2217 1.04565 32.8909C0.714836 32.8082 -0.0294847 33.139 -0.442997 33.139ZM2.78239 43.5595C3.0305 43.4768 3.19591 43.4768 3.0305 43.2287L2.78239 43.3114C2.78239 43.3941 2.78239 43.4768 2.78239 43.5595ZM15.3532 -10.8586C15.5186 -9.78349 14.1126 -9.9489 13.9472 -9.03917C16.1802 -9.28728 16.4283 -11.3548 17.9169 -12.43C18.0823 -12.43 18.165 -12.43 18.3304 -12.43C18.0823 -12.5127 17.9996 -12.6781 17.9996 -12.9262C17.6688 -12.7608 17.5034 -12.8435 17.4207 -12.9262C17.2553 -12.6781 17.0072 -12.5127 16.6764 -12.43C16.5937 -11.9338 16.4283 -11.8511 16.4283 -11.4375C15.8494 -11.4375 15.684 -11.1067 15.3532 -10.8586ZM56.5389 -31.2861C56.6216 -32.6093 54.9676 -31.2034 56.5389 -31.2861ZM73.1621 -34.5942C73.1621 -34.5115 73.1621 -34.4288 73.2448 -34.3461C73.4102 -34.3461 73.4929 -34.5115 73.4929 -34.6769C73.4102 -34.6769 73.2448 -34.5942 73.1621 -34.5942ZM76.4702 -35.4212C76.1394 -35.3385 75.8913 -35.1731 76.0567 -34.925C76.3048 -35.0077 76.3048 -35.1731 76.4702 -35.4212ZM78.1242 -34.925C78.2069 -34.8423 78.2896 -34.6769 78.6204 -34.6769C79.1994 -34.6769 79.861 -34.7596 80.5226 -34.7596C80.1091 -35.2558 80.4399 -35.6693 80.5226 -36.1655C80.2745 -35.9174 79.9437 -35.752 79.5302 -35.752C79.2821 -36.0828 80.1918 -35.8347 79.9437 -36.1655L78.9513 -35.8347C79.6129 -35.1731 78.455 -35.3385 78.1242 -34.925ZM92.7626 -28.6396C92.7626 -28.5569 92.7626 -28.4742 92.8453 -28.3915L93.0934 -28.4742L93.0107 -28.7223L92.7626 -28.6396ZM107.07 -30.3764C106.987 -30.4591 106.822 -30.5418 106.739 -30.6245C106.739 -30.5418 106.657 -30.3764 106.657 -30.2937C106.822 -30.2937 106.987 -30.2937 107.07 -30.3764ZM146.271 9.89967C145.857 9.98237 146.023 9.40345 145.527 9.40345C145.444 9.56886 145.361 9.73426 145.279 9.89967C145.527 10.0651 146.436 10.0651 146.271 9.89967ZM145.857 12.2153C145.279 12.6288 145.857 13.6213 146.519 13.6213C146.354 12.7115 146.106 11.8845 145.692 11.0575C145.527 11.3056 145.444 11.5537 145.279 11.8018C145.361 12.0499 145.692 12.0499 145.857 12.2153ZM145.692 10.3132C145.692 10.3959 145.361 10.8094 145.692 10.8094C145.692 10.8094 146.023 10.3132 145.692 10.3132ZM143.211 8.65913H143.459V8.41102H143.211V8.65913ZM82.4248 91.2788C82.0939 91.5269 81.6804 91.6923 81.1842 91.775C81.4323 91.8577 81.1015 92.0231 81.0188 92.2712C81.2669 92.1885 81.5977 92.1885 81.8458 92.1885C82.0112 91.9404 82.2593 91.6923 82.5075 91.6096L82.4248 91.2788ZM70.0194 92.2712C71.6734 92.1885 73.4102 91.775 75.1469 91.9404C75.3124 91.8577 75.147 91.4442 75.3951 91.4442C76.7183 91.6096 77.2145 91.0307 78.3723 90.948C78.3723 90.8653 78.3723 90.8653 78.2896 90.7826C76.7183 91.0307 75.2297 91.1961 73.6583 91.5269C73.4929 91.6096 73.6583 91.775 73.4929 91.8577C72.3351 91.1961 71.508 92.2712 70.2675 91.9404C70.2675 92.1058 70.1848 92.1885 70.0194 92.2712ZM24.5331 69.28C24.6985 69.28 24.6985 69.1973 24.6985 69.1145C24.7812 69.0318 24.6985 69.0318 24.6985 68.9491H24.6158C24.5331 69.1145 24.4504 69.1973 24.3677 69.28C24.4504 69.28 24.4504 69.28 24.5331 69.28ZM6.17319 54.0627C6.17319 53.8973 6.17319 53.8146 6.17319 53.6492C6.09049 53.6492 6.00779 53.6492 5.92508 53.8146C5.92508 53.98 6.09049 54.0627 6.17319 54.0627ZM31.232 -22.437C31.1493 -22.5197 30.9012 -22.6024 30.9012 -22.3543C30.9839 -22.2715 31.1493 -22.1888 31.3147 -22.1888C31.3147 -22.2715 31.232 -22.3543 31.232 -22.437ZM31.3147 -23.3467V-23.5121H30.9012C30.7358 -23.1813 30.6531 -22.8505 31.1493 -22.8505C31.1493 -23.0159 31.232 -23.1813 31.3147 -23.3467ZM31.9763 -21.5272C30.9839 -21.4445 30.0742 -21.5272 29.3298 -21.6926C29.2471 -21.1137 29.4126 -20.5348 29.578 -20.0386C29.1644 -19.7078 28.8336 -19.2943 28.5028 -18.8808C28.5028 -18.7981 28.5028 -18.798 28.5028 -18.798C28.5855 -18.7153 28.5855 -18.7153 28.6682 -18.7153C29.4126 -18.798 30.405 -19.0462 31.4801 -19.1289C31.8109 -19.5424 32.2244 -20.0386 32.6379 -20.5348C32.8861 -20.8656 33.6304 -21.1964 33.7958 -21.6099C33.3823 -21.6099 32.8033 -21.5272 32.3898 -21.5272C32.3071 -21.5272 32.3071 -21.4445 32.3071 -21.4445C32.1417 -21.4445 32.059 -21.5272 31.9763 -21.5272ZM41.1563 -21.6099C41.239 -21.6099 41.239 -21.6926 41.3217 -21.6926C41.239 -21.6926 41.1563 -21.6926 41.1563 -21.6099ZM143.955 38.0185C144.203 37.9358 144.286 37.6877 144.203 37.4395C144.038 37.5222 143.955 37.7704 143.955 38.0185ZM114.017 69.5281C114.017 69.4454 113.934 69.4454 113.934 69.3627C113.852 69.4454 113.686 69.5281 113.604 69.6108C113.769 69.6935 113.852 69.6108 114.017 69.5281ZM110.461 76.3097C110.213 75.8962 111.04 75.9788 110.792 75.7307C110.213 75.8134 110.378 75.9788 109.799 75.9788C109.965 76.3097 110.13 76.4751 110.461 76.3097ZM109.634 75.648C109.882 75.4826 110.213 75.3999 110.047 75.1518C109.799 75.1518 109.468 75.2345 109.634 75.648ZM98.3863 83.3394C97.7247 83.5048 96.9804 83.7529 96.4842 84.001C96.8977 84.0837 96.9804 84.3318 97.0631 84.7453C97.2285 84.5799 97.4766 84.4145 97.3112 84.0837C97.8901 84.0837 97.9728 83.5875 98.3863 83.3394ZM25.1947 66.4681C25.3601 66.3027 25.6082 66.3027 25.8563 66.3854C25.6909 66.0546 25.5255 65.8065 25.3601 65.4756C24.8639 65.5583 24.6985 65.8892 24.5331 66.3027C24.7812 66.3027 25.0293 66.3854 25.1947 66.4681ZM21.8039 60.927L21.7212 60.6789L21.225 60.8443V60.927L21.3077 61.0924L21.8039 60.927ZM3.60942 20.3202C3.60942 20.4856 3.69212 20.5683 3.85753 20.7337C4.10563 20.1548 4.43644 19.7412 4.84995 19.245C4.76725 18.9142 4.76725 18.5834 4.60185 18.2526C3.69212 18.7488 4.35374 20.0721 3.60942 20.3202ZM19.8191 -12.3473C19.7364 -12.3473 19.6537 -12.3473 19.571 -12.3473V-12.0165H19.8191V-12.3473ZM44.7952 -16.6478C44.8779 -16.4824 45.126 -16.317 45.4568 -16.2343C45.7049 -16.3997 45.953 -16.5651 46.2011 -16.7305C45.7876 -16.7305 45.2914 -16.6478 44.7952 -16.6478ZM82.6729 -23.5948C82.6729 -23.7602 82.8383 -23.7602 82.8383 -24.0083H82.5902C82.5902 -23.8429 82.4248 -23.8429 82.4248 -23.6775L82.5075 -23.5948H82.6729ZM102.604 -24.4218C102.439 -24.3391 102.191 -24.3391 101.943 -24.3391C102.108 -24.2564 102.273 -24.1737 102.521 -24.091C102.604 -24.091 102.687 -24.091 102.77 -24.091L102.604 -24.4218ZM104.175 -19.7078C104.01 -19.377 104.258 -19.5424 104.175 -19.2116C104.754 -19.1289 104.754 -19.7905 104.175 -19.7078ZM109.799 -16.3997C109.634 -16.1516 109.634 -16.0689 109.882 -15.9862C109.882 -16.1516 109.965 -16.317 110.047 -16.3997H109.799ZM127.58 11.2229C127.663 11.3056 127.663 11.3056 127.58 11.2229C127.911 10.9748 128.325 10.7267 128.655 10.3959C128.407 10.0651 128.573 9.89966 128.738 9.65156C128.49 9.81696 128.159 9.81696 127.911 9.89967C128.159 10.4786 127.746 10.8094 127.58 11.2229ZM136.843 38.9282C136.512 38.7628 136.678 38.9282 136.347 39.0936C136.347 39.5898 137.091 39.3417 136.843 38.9282ZM135.189 44.8828L135.106 44.8001C135.023 44.7174 134.941 44.7174 134.775 44.7174C134.775 44.7174 134.775 44.8001 134.775 44.8828C134.858 44.8001 135.023 44.8001 135.189 44.8828ZM111.453 68.6183C111.95 68.1221 112.446 67.5432 112.942 67.1297C112.777 67.1297 112.777 67.047 112.777 66.8816C113.19 66.7162 113.604 66.4681 114.017 66.1373C113.769 66.1373 113.604 66.1373 113.355 66.1373C112.942 66.5508 112.363 66.7989 111.867 66.7989C111.867 66.7989 111.95 66.7989 111.95 66.8816C111.288 67.2951 111.205 67.9567 110.874 68.4529C111.122 68.4529 111.288 68.5356 111.453 68.6183ZM85.2366 83.0912C84.9885 83.3394 85.7328 83.4221 85.6501 83.2567C85.5674 83.174 85.5674 83.0912 85.2366 83.0912ZM81.0188 83.4221C80.9361 83.0085 81.3496 83.0913 81.5977 82.9258C81.1015 82.8431 80.4399 83.0085 80.0264 83.2567C80.1091 83.3394 80.1918 83.4221 80.1918 83.5048C80.5226 83.3394 80.7707 83.3393 81.0188 83.4221ZM77.0491 84.7453C77.2145 84.6626 77.4626 84.5799 77.5453 84.4972C77.2972 84.2491 77.0491 84.001 76.8837 83.6702C76.5529 83.8356 76.3875 84.3318 75.8086 84.0837C75.8086 84.4972 76.0567 84.7453 76.3875 84.9107C76.6356 84.828 76.801 84.828 77.0491 84.7453ZM75.2297 87.9707L75.5605 87.8053V87.7226C75.3123 87.4745 75.0642 87.8053 75.2297 87.9707ZM57.9449 88.3015C58.0276 88.8804 57.1178 88.4669 57.9449 88.3015ZM50.5016 81.5199C50.6671 81.3545 50.2535 80.7756 50.2535 81.1064L50.5016 81.5199ZM6.09049 34.3796C6.09049 34.4623 6.09049 34.545 6.09049 34.6277C6.17319 34.8758 6.3386 34.9585 6.6694 34.8758C6.75211 34.4623 6.504 34.2969 6.09049 34.3796ZM7.57913 11.8845L7.66183 12.1326L7.90994 12.0499L7.82724 11.8018L7.57913 11.8845ZM8.15805 28.5904C8.15805 29.0039 8.15805 29.3347 8.07535 29.6655C8.73696 29.6655 8.48886 28.9212 8.15805 28.5904ZM6.91751 43.6422C6.91751 43.7249 6.91751 43.7249 6.91751 43.8076C6.91751 43.8903 6.91751 43.973 7.00022 44.0557C7.00022 43.8903 6.91751 43.8076 6.91751 43.6422ZM21.5558 -9.70079C21.8039 -9.70079 21.6385 -9.61809 21.5558 -9.36998C21.6385 -9.28728 21.8039 -9.28728 21.8866 -9.28728C21.8866 -9.61809 21.6385 -10.0316 21.5558 -9.70079ZM55.2984 -15.7381C55.2157 -16.0689 54.9676 -16.5651 55.0503 -16.7305C54.6368 -16.7305 54.7195 -16.3997 54.306 -16.3997C53.8924 -16.7305 53.727 -16.5651 53.0654 -16.317C53.0654 -16.5651 52.9 -16.4824 52.7346 -16.5651C52.8173 -16.2343 52.8173 -15.8208 52.7346 -15.49L52.8173 -15.4073C53.727 -16.0689 54.1405 -15.3246 55.2984 -15.7381ZM117.242 1.38132C117.739 1.46403 117.987 1.05051 117.491 0.967812C117.491 1.21592 117.325 1.21592 117.242 1.38132ZM131.881 19.9894C131.55 19.9067 131.302 19.7412 131.136 19.7412C131.302 19.4104 131.715 19.245 131.715 18.9142C131.136 18.9969 131.054 19.5758 130.475 19.7412C130.64 19.9893 130.64 20.3202 130.475 20.651C130.723 21.0645 131.054 21.478 131.467 21.8088C131.633 21.6434 131.633 21.3953 131.963 21.3953C131.715 20.9818 131.715 20.4856 131.881 19.9894ZM90.695 83.3394C90.6123 83.174 90.5296 82.9258 90.2815 83.0912C90.3642 83.2567 90.5296 83.3394 90.695 83.3394ZM66.6286 86.8955C66.4632 86.5647 66.2151 86.3166 65.967 86.1512C65.7189 86.2339 65.3881 86.2339 65.14 86.2339C64.9746 86.7302 65.5535 87.061 65.8016 87.3918C65.6362 86.6474 66.0497 86.8128 66.6286 86.8955ZM59.6816 83.4221C60.4259 83.5048 59.5989 84.1664 59.6816 83.4221ZM12.7067 36.5298C13.0375 36.5298 13.1202 36.3644 12.9548 36.0336C12.7067 36.1163 12.624 36.2817 12.7067 36.5298ZM13.6991 26.3574C13.8645 26.8536 13.7818 27.1018 13.2856 27.2672C13.0375 27.6807 13.0375 28.2596 13.1202 28.7558C13.5337 28.5904 14.1126 28.3423 14.3607 27.9288C14.3607 27.8461 14.278 27.7634 14.1953 27.6807C14.6088 27.3499 14.278 27.2672 14.1953 26.7709C14.278 26.6882 14.278 26.6055 14.3607 26.5228C14.278 26.4401 14.1126 26.3574 14.0299 26.2747C13.8645 26.3574 13.7818 26.3574 13.6991 26.3574ZM15.0223 35.5374C15.105 35.4547 15.105 35.372 15.0223 35.2893H14.9396L15.0223 35.5374ZM20.7288 4.68942C20.8115 5.18563 20.8115 5.68184 20.7288 6.17806C21.1423 5.92995 21.4731 5.59914 21.8039 5.26833C21.3077 4.77212 22.052 4.35861 21.8866 3.8624C21.7212 3.8624 21.5558 3.9451 21.3904 3.9451C21.225 4.35861 20.8942 4.44131 20.7288 4.68942ZM26.4353 -9.86619C26.7661 -9.86619 27.0142 -9.8662 27.4277 -9.9489C27.5104 -9.9489 27.5104 -10.0316 27.5931 -10.0316C27.5931 -10.0316 27.5931 -10.1143 27.5931 -10.197C27.2623 -10.197 27.2623 -10.4451 26.9315 -10.6932C26.8488 -10.3624 26.518 -10.3624 26.3526 -10.2797C26.1872 -10.0316 26.1045 -9.78349 26.1045 -9.53539H26.1872C26.1872 -9.61809 26.3526 -9.78349 26.4353 -9.86619ZM35.2844 -4.49054C35.2844 -4.57325 35.3671 -4.65595 35.2844 -4.90405C35.2017 -4.73865 35.2017 -4.57325 35.119 -4.49054H35.2844ZM37.1039 -4.73865C37.0212 -4.65595 37.1039 -4.57325 37.1866 -4.57325C37.2693 -4.65595 37.2693 -4.65595 37.352 -4.73865C37.2693 -4.73865 37.1866 -4.73865 37.1039 -4.73865ZM104.175 -13.1743C104.258 -12.9262 104.093 -12.5127 104.424 -12.6781C104.506 -12.8435 104.341 -13.0916 104.175 -13.1743ZM111.619 -6.22729C111.288 -6.64081 110.792 -6.80621 110.213 -6.80621C110.047 -6.31 109.882 -5.89648 109.717 -5.40027C110.13 -5.23486 110.213 -5.40027 110.874 -5.48297C110.957 -5.40027 110.957 -5.31757 111.04 -5.31757C111.205 -5.56567 111.371 -5.97919 111.619 -6.22729ZM114.927 0.306194C115.34 0.223492 115.258 0.4716 115.671 0.4716C115.671 0.14079 115.671 -0.272725 115.506 -0.438129C114.927 -0.686236 115.175 0.14079 114.927 0.306194ZM126.505 49.7622C126.588 49.6795 126.671 49.5968 126.671 49.5141C126.422 49.4314 126.092 49.4314 125.926 49.6795C126.092 49.6795 126.34 49.6795 126.505 49.7622C126.505 49.6795 126.505 49.6795 126.505 49.7622ZM121.378 62.9946C121.378 62.7465 121.874 62.7465 121.626 62.4157C121.129 62.333 120.964 62.9119 121.378 62.9946ZM112.28 64.4005C112.446 64.4005 112.611 64.4005 112.694 64.4832C112.694 64.3178 112.694 64.2351 112.611 64.1524C112.528 64.1524 112.363 64.1524 112.28 64.1524C112.28 64.2351 112.28 64.3178 112.28 64.4005ZM110.626 64.814C110.709 64.814 110.792 64.814 110.792 64.814C110.957 64.5659 111.122 64.2351 111.288 63.987C110.957 64.0697 110.461 64.2351 110.626 64.814ZM90.695 51.9952C90.7777 52.326 90.9431 52.4914 91.2739 52.326C91.3566 51.9125 91.0258 52.0779 90.695 51.9952ZM90.2815 53.3184C90.5296 53.4838 91.0258 53.3184 90.8604 52.9876H90.7777C90.6123 52.9049 90.3642 53.0703 90.2815 53.3184ZM54.6368 59.8519C55.0503 60.0173 55.0503 59.273 54.6368 59.4384V59.8519ZM48.8476 57.7016C48.9303 57.9497 48.6822 58.6114 49.0957 58.4459C49.2611 58.1978 49.5092 57.867 49.5919 57.5362C49.2611 57.3708 48.9303 57.2881 48.4341 57.3708C48.5995 57.4535 48.7649 57.6189 48.8476 57.7016ZM45.0433 56.213C44.9606 56.1303 44.9606 56.0476 44.9606 55.9649L44.7125 56.0476L44.7952 56.2957L45.0433 56.213ZM33.3823 62.9119H33.1342V63.16H33.3823V62.9119ZM26.7661 56.4611C26.7661 56.7092 26.518 56.7092 26.4353 56.8746C26.6007 57.1227 27.0142 57.04 27.5104 57.04V56.6265C26.9315 56.7919 27.2623 56.5438 26.7661 56.4611ZM26.0218 54.9725C25.8564 54.807 25.5255 54.807 25.4428 55.1378C25.5255 55.3033 26.0218 55.3033 26.0218 54.9725ZM19.1575 40.086C19.8191 39.5071 18.8267 39.6725 19.1575 40.086ZM32.9688 -11.5202L33.0515 -11.2721L33.2996 -11.3548L33.2169 -11.6029L32.9688 -11.5202ZM43.1411 -3.49812C43.0584 -3.49812 42.9757 -3.49812 42.893 -3.41541C42.7276 -3.33271 42.6449 -3.1673 42.7276 -3.0019C42.8103 -3.0019 42.893 -3.08461 42.9757 -3.08461C43.0584 -3.25001 43.1411 -3.25001 43.1411 -3.49812ZM57.0351 -5.81378C56.9524 -5.97919 57.1178 -6.3927 56.7043 -6.22729C56.7043 -6.06189 56.5389 -5.97919 56.4562 -5.81378C56.6216 -5.81378 56.787 -5.81378 57.0351 -5.81378ZM73.2448 -8.29485C73.1621 -8.21215 73.0794 -8.12945 72.914 -8.04675C73.3275 -7.88134 73.6583 -7.79864 74.1545 -7.71593C73.741 -7.88134 73.4929 -8.04675 73.2448 -8.29485ZM112.363 -0.520828C112.28 -1.51326 113.19 -2.34028 112.363 -2.83649C112.28 -2.83649 112.28 -2.9192 112.198 -2.9192C112.777 -2.17488 111.205 -1.01704 112.363 -0.520828ZM116.581 18.1699C116.746 18.8315 116.167 19.0796 116.167 19.5758C116.498 19.5758 116.829 19.4104 117.16 19.3277C117.242 18.9142 117.325 18.5007 117.573 18.1699C117.16 18.0872 116.829 18.0872 116.581 18.1699ZM115.423 49.9276C115.423 49.9276 115.423 49.9276 115.34 50.0103C115.34 50.2584 115.258 50.4238 115.175 50.6719C115.423 50.4238 115.34 50.1757 115.423 49.9276ZM108.062 38.1012C108.062 38.2666 108.228 38.432 108.311 38.6801C108.559 38.3493 109.055 38.1012 108.476 37.8531C108.311 37.8531 108.145 38.0185 108.062 38.1012ZM72.8313 74.2421C72.6659 74.0767 72.5005 73.8286 72.3351 73.5805C71.9216 73.5805 71.508 73.5805 71.0118 73.5805C71.2599 74.0767 71.6734 74.6556 71.7561 74.9864C72.087 74.821 72.4178 74.5729 72.8313 74.2421ZM57.5313 69.7762C57.6141 69.6935 57.5313 69.4454 57.3659 69.4454C57.0351 69.4454 57.2832 69.9416 57.5313 69.7762ZM18.165 27.0191C18.2477 27.1845 17.7515 27.5153 18.165 27.4326C18.165 27.3499 18.165 27.2672 18.2477 27.2672C18.4131 27.3499 18.4958 27.5153 18.7439 27.4326C18.7439 27.3499 18.7439 27.2672 18.7439 27.1845C18.8267 27.1845 18.8267 27.1018 18.8267 27.1018C18.7439 27.0191 18.4958 26.9363 18.165 27.0191ZM19.9845 23.7937C19.9845 23.7937 19.9018 23.8764 19.9018 23.9591C19.9845 23.9591 19.9845 23.9591 20.0672 23.9591C20.0672 23.8764 19.9845 23.8764 19.9845 23.7937ZM29.0817 -10.3624C29.0817 -10.2797 29.0817 -10.1143 29.0817 -9.9489C29.1644 -10.0316 29.2471 -10.0316 29.3298 -10.1143C29.4126 -10.2797 29.3298 -10.3624 29.0817 -10.3624ZM30.6531 -9.03917L30.7358 -8.79107L31.232 -8.95647L31.1493 -9.20458L30.6531 -9.03917ZM54.0578 -3.74622C54.2233 -3.99433 53.9751 -3.99433 53.8097 -4.32514C53.2308 -4.32514 53.5616 -3.49812 54.0578 -3.74622ZM52.9 -2.58839C52.9827 -2.58839 52.9827 -2.58839 52.9827 -2.75379C52.9 -2.75379 52.9 -2.75379 52.8173 -2.75379C52.7346 -2.67109 52.9 -2.67109 52.9 -2.58839ZM60.1778 -3.0019C60.0124 -3.0019 59.847 -2.9192 59.6816 -2.83649C59.6816 -2.75379 59.5989 -2.67109 59.5162 -2.67109C59.7643 -2.58839 60.0951 -2.42298 60.3432 -2.25758C60.5086 -2.50569 60.7567 -2.58839 61.0048 -2.50569C61.0875 -2.67109 61.3357 -2.7538 61.3357 -2.9192C61.1703 -3.0019 61.0049 -3.08461 60.8394 -3.08461C60.674 -2.9192 60.5086 -2.75379 60.1778 -2.75379C60.1778 -2.83649 60.1778 -2.9192 60.1778 -3.0019ZM71.3426 -5.97919C71.1772 -5.97919 71.0118 -5.89648 70.8464 -5.89648C71.1772 -5.48297 71.3426 -4.98676 71.3426 -4.49054C71.8389 -4.65595 71.8389 -4.49054 72.4178 -4.49054C72.4178 -5.23486 73.5756 -4.98676 74.0718 -5.23486L74.1545 -5.40027C73.0794 -5.40027 72.0043 -5.31757 71.3426 -5.97919ZM93.5896 -3.82892V-3.99433H93.3415V-3.82892C93.4242 -3.82892 93.5069 -3.82892 93.5896 -3.82892ZM97.4766 -8.95647C97.4766 -9.03917 97.3112 -9.03917 97.1458 -9.12188C97.0631 -9.03917 96.9804 -8.87377 96.9804 -8.79107C96.9804 -8.70836 97.0631 -8.70836 97.0631 -8.62566C97.0631 -8.95647 97.2285 -8.95647 97.4766 -8.95647ZM106.574 -5.97919C106.822 -6.22729 106.987 -6.5581 106.987 -6.88891C105.912 -7.05432 105.747 -6.5581 105.085 -6.3927C105.581 -6.14459 106.078 -5.97919 106.574 -5.97919ZM111.95 -0.438129C111.95 -0.520832 111.867 -0.520832 111.784 -0.603535C111.867 -0.520832 111.867 -0.520832 111.95 -0.438129ZM122.287 44.9655C122.866 45.0482 123.362 45.5444 124.107 45.2963C123.941 44.3038 123.28 44.3865 122.866 43.7249C122.453 44.0557 122.453 44.5519 122.287 44.9655ZM124.52 43.0633C124.438 43.146 124.438 43.2287 124.438 43.3941C124.438 43.3941 124.52 43.3941 124.603 43.3941C124.52 43.3114 124.52 43.3114 124.52 43.3114C124.52 43.2287 124.52 43.146 124.52 43.0633ZM121.295 47.4465L121.212 47.1984L120.964 47.2811L121.047 47.5292L121.295 47.4465ZM121.956 57.2881L121.708 57.3708L121.791 57.6189L122.039 57.5362L121.956 57.2881ZM104.01 54.4762C104.175 54.3935 104.341 54.3108 104.506 54.2281C104.424 54.2281 104.424 54.1454 104.424 54.0627C104.341 54.1454 104.341 54.3108 104.01 54.3108C104.01 54.3935 104.01 54.3935 104.01 54.4762ZM102.852 54.3108C102.852 54.3108 102.852 54.2281 102.77 54.1454C102.687 54.1454 102.604 54.2281 102.521 54.2281L102.604 54.3935L102.852 54.3108ZM71.8389 72.5881C72.0043 73.167 71.0118 72.6708 71.8389 72.5881ZM37.4347 33.8833C37.352 33.966 37.1866 34.1315 37.1039 34.2142C37.2693 34.2142 37.5174 34.0488 37.4347 33.8833ZM31.5628 52.1606C31.8109 52.326 32.059 52.4914 32.3898 52.6568C32.8033 52.1606 32.6379 51.4163 33.2169 50.8373C32.8861 50.8373 32.6379 50.8373 32.3898 50.92C32.1417 51.3335 31.8936 51.7471 31.5628 52.1606ZM22.9618 12.0499C22.7964 12.4634 23.2099 12.298 23.5407 12.298V11.8845C23.2926 11.8845 23.2099 12.0499 22.9618 12.0499ZM27.2623 7.17049C27.345 7.08778 27.4277 7.17049 27.6758 7.17049C27.5931 7.17049 27.4277 7.08778 27.2623 7.17049ZM28.9163 -6.5581C28.9163 -6.6408 28.9163 -6.6408 28.9163 -6.5581ZM27.6758 41.6574L27.7585 41.9055L28.0066 41.8228L27.9239 41.5747L27.6758 41.6574ZM34.8709 7.99751C34.9536 7.99751 35.0363 7.99751 35.0363 7.99751C35.119 7.83211 35.2017 7.7494 35.2017 7.584C35.0363 7.6667 34.9536 7.83211 34.8709 7.99751ZM30.0742 13.4559L30.1569 13.704L30.405 13.6213L30.3223 13.3732L30.0742 13.4559ZM31.7282 24.0418H31.9763V23.7937H31.7282V24.0418ZM30.405 42.319C30.6531 42.4844 30.9839 42.4017 31.232 42.4017C31.3147 42.2363 31.3974 41.9882 31.3974 41.8228C31.0666 41.7401 30.405 41.7401 30.405 42.319ZM34.8709 13.9521L34.5401 14.0348V14.1175H34.8709V13.9521ZM29.7434 23.5456C29.6607 23.6283 29.578 23.711 29.6607 23.7937C29.7434 23.7937 29.9088 23.8764 29.9915 23.9591C30.0742 23.7937 29.9915 23.5456 29.7434 23.5456ZM34.2093 25.4477C34.6228 25.1996 35.2017 25.0342 35.7806 24.7861C35.6979 24.6207 35.6979 24.538 35.7806 24.3726L34.9536 24.6207C34.8709 24.9515 34.5401 25.2823 34.2093 25.4477ZM36.3596 22.2223C36.3596 22.6358 37.1039 22.3877 36.7731 22.1396L36.3596 22.2223ZM35.8633 7.3359C35.8633 7.25319 35.8633 7.25319 35.8633 7.17049C35.6979 7.25319 35.5325 7.4186 35.3671 7.5013C35.5325 7.5013 35.6979 7.4186 35.8633 7.3359ZM34.1266 33.966C34.2093 34.0488 34.2093 34.1315 34.2093 34.2142H34.292L34.1266 33.966ZM44.5471 37.5222C44.6298 37.6049 44.6298 37.6877 44.7952 37.7704C44.7952 37.7704 44.7125 37.5222 44.5471 37.5222ZM42.6449 13.704C42.893 13.5386 43.0584 13.2905 43.1411 12.9597C42.9757 12.8769 42.893 12.7115 42.7276 12.6288C42.2314 12.7942 41.7352 13.0424 41.3217 13.3732C41.1563 13.704 40.8255 14.0348 40.8255 14.6137C40.4947 14.7791 40.412 15.0272 39.9985 15.1099C39.9985 15.6061 39.6676 16.1023 39.1714 16.2677C39.1714 16.5986 39.0887 16.9294 38.8406 17.1775C39.4195 17.1775 39.9985 17.1775 40.5774 17.1775C40.7428 17.0121 40.8255 16.8467 40.9909 16.6813C41.4044 15.7715 42.3968 14.9445 42.6449 13.704ZM29.4953 4.35861C29.7434 4.35861 29.9088 4.35861 30.0742 4.27591C30.3223 3.9451 30.6531 3.69699 31.1493 3.53158C31.1493 3.44888 31.1493 3.44888 31.1493 3.36618C30.3223 3.36618 29.4126 3.61429 29.4953 4.35861ZM29.9915 -4.24244C30.2396 -3.82892 29.4953 -3.91163 29.7434 -3.49812C29.9915 -3.58082 30.2396 -3.58082 30.405 -3.49812C30.4877 -3.82892 30.6531 -4.24244 30.9012 -4.49054C30.6531 -4.32514 30.3223 -4.24244 29.9915 -4.24244ZM26.7661 40.4168C26.4353 40.8303 26.1872 41.2439 25.9391 41.7401C26.1872 41.8228 26.4353 41.9055 26.6834 42.0709C26.9315 41.8228 27.0969 41.5747 27.2623 41.2439C27.7585 41.1611 28.2547 40.913 28.5855 40.4995C28.6682 40.3341 28.6682 40.1687 28.7509 40.0033C28.7509 39.8379 28.5028 39.7552 28.0893 39.7552C27.5931 39.8379 27.0969 40.086 26.7661 40.4168ZM28.0893 46.3714C28.0066 46.6195 27.8412 46.8676 27.7585 47.1984C27.9239 47.1984 28.0066 47.1984 28.172 47.1984C28.5028 47.2811 28.6682 47.7773 29.2471 47.5292C29.4953 46.7849 28.5855 46.6195 28.0893 46.3714ZM33.3823 44.9655C33.2996 44.8828 33.2996 44.8828 33.2996 44.8828C33.1342 44.8001 32.8861 44.8001 32.6379 44.8001C32.5552 44.8828 32.5552 45.0482 32.5552 45.2136C32.9688 45.2963 32.8861 44.8001 33.3823 44.9655ZM86.6426 -2.34028C86.6426 -2.25758 86.5599 -2.09217 86.4772 -1.92677C86.8907 -2.00947 87.5523 -2.09217 87.3042 -2.42298L86.8907 -2.25758C86.808 -2.25758 86.7253 -2.25758 86.6426 -2.34028ZM105.499 3.69699C105.581 4.2759 104.589 3.86239 105.499 3.69699ZM95.4917 19.6585C95.0782 18.5834 96.0706 18.0872 96.9804 18.418C97.0631 18.3353 97.0631 18.3353 97.0631 18.3353C96.6496 18.0872 96.2361 17.8391 95.6571 17.7564C94.9955 18.1699 94.2512 18.5834 94.2512 19.3277C94.7474 19.4104 94.9128 19.8239 95.4917 19.6585ZM60.5086 30.5753C60.5913 30.4926 60.5913 30.3271 60.5913 30.2444C60.5086 30.079 60.3432 29.9136 60.2605 29.7482C60.0951 29.7482 59.9297 29.7482 59.7643 29.8309C60.0951 30.079 60.2605 30.3271 60.5086 30.5753ZM51.4114 27.9288C51.7422 27.1845 52.7346 27.0191 53.0654 26.5228C52.9827 26.2747 52.9 26.0266 52.8173 25.8612C52.5692 25.9439 52.4038 26.192 52.4038 26.4401C51.5768 26.7709 50.8325 27.1018 50.7498 27.7634C50.9152 27.6807 51.1633 28.0115 51.4114 27.9288ZM89.4545 5.92995C89.5372 6.09536 89.0409 6.34347 89.4545 6.26077C89.4545 6.17806 89.4545 6.09536 89.5372 6.09536C89.7026 6.26076 89.868 6.42617 90.2815 6.17806C90.1988 5.84725 89.7853 5.92995 89.4545 5.92995ZM94.582 11.3883C94.4993 11.5537 94.4993 11.6364 94.582 11.7191C94.7474 11.8018 94.9955 11.8018 95.1609 11.8845C95.1609 11.5537 94.9128 11.471 94.582 11.3883ZM97.5593 44.7174C97.5593 44.8001 97.4766 44.8828 97.3939 44.9655C97.642 44.9655 97.8901 44.9655 97.8074 44.7174H97.5593ZM99.2133 20.4029L98.9652 20.4856L99.0479 20.7337L99.296 20.651L99.2133 20.4029ZM98.8825 15.1926C98.8825 15.1099 98.8825 15.0272 98.8825 14.9445C98.7998 15.0272 98.7998 15.1099 98.7998 15.1926H98.8825ZM98.6344 9.56886C98.469 9.73426 98.469 10.0651 98.5517 10.3132C98.6344 10.2305 98.7171 10.1478 98.7998 9.98237C98.7998 9.81696 98.7998 9.65156 98.6344 9.56886ZM96.9804 8.65913C97.2285 8.57643 97.5593 8.65913 97.4766 8.57643C97.3112 8.41102 96.8977 7.91481 96.815 8.16292C97.0631 8.16292 96.9804 8.49373 96.9804 8.65913ZM95.5744 4.44131C95.5744 4.44131 95.6571 4.44131 95.6571 4.52401C95.6571 4.44131 95.6571 4.44131 95.5744 4.35861V4.44131ZM90.695 13.704C90.8604 13.8694 91.1912 13.8694 91.4393 13.8694L91.522 13.7867C91.3566 13.5386 91.1912 13.3732 91.1912 13.2078C91.1085 13.2078 91.0258 13.2078 90.9431 13.2078C91.0258 13.4559 90.6123 13.3732 90.695 13.704ZM77.4626 30.9061C77.4626 30.8234 77.4626 30.658 77.2972 30.4099C77.1318 30.3271 77.0491 29.9963 76.8837 29.9963C76.4702 29.9136 75.8913 29.9963 75.4778 30.1617V30.2444C75.147 30.8234 74.9815 31.485 75.1469 32.0639C75.5605 31.9812 75.974 32.0639 76.4702 32.2293C76.7183 31.9812 76.801 31.6504 76.6356 31.4023C77.2145 31.485 76.8837 30.8234 77.4626 30.9061ZM62.6589 -1.18245C62.7416 -0.934342 62.907 -0.851639 63.1551 -0.934341C63.1551 -1.09975 63.0724 -1.26515 62.9897 -1.34785C62.8243 -1.34785 62.8243 -1.43056 62.6589 -1.18245ZM70.5983 9.15535C70.1021 9.23805 69.6059 8.98994 69.4405 8.57643C69.1924 8.57643 68.9443 8.57643 68.6962 8.57643C68.9443 9.23805 69.1924 9.81696 69.9367 10.0651C70.1021 9.73426 70.5983 9.65156 70.5983 9.15535ZM72.9967 6.34346H72.7486C72.7486 6.59157 72.8313 6.59157 72.9967 6.59157V6.34346ZM71.8389 12.3807C72.0043 12.298 72.1697 12.2153 72.0043 12.0499C71.8389 12.1326 71.6734 12.1326 71.6734 12.298C71.7561 12.298 71.8389 12.298 71.8389 12.3807ZM69.027 15.4407C68.8616 15.5234 68.7789 15.6061 68.6962 15.5234C68.3654 16.185 67.9518 16.8467 67.3729 17.4256C67.7037 17.5083 68.0345 17.591 68.4481 17.6737C68.4481 17.591 68.5308 17.4256 68.5308 17.2602C69.6059 17.0121 69.6059 15.9369 70.2675 15.358C70.3502 15.2753 70.3502 15.1926 70.3502 15.1099C70.4329 14.7791 70.1021 14.4483 69.7713 14.4483H69.5232L69.4405 14.6137C69.5232 14.9445 69.2751 15.1926 69.027 15.4407ZM70.2675 20.4856C70.3502 20.4856 70.4329 20.4856 70.5983 20.3202C70.4329 20.4029 70.3502 20.3202 70.2675 20.3202C70.2675 20.4029 70.2675 20.4029 70.2675 20.4856ZM66.5459 28.2596C66.6286 28.2596 66.6286 28.2596 66.6286 28.3423C66.6286 28.2596 66.6286 28.2596 66.6286 28.2596H66.5459ZM62.5762 20.9818C62.4108 21.0645 62.3281 21.1472 62.1627 21.3126C62.2454 21.3126 62.3281 21.3953 62.4108 21.3953C62.4935 21.2299 62.4935 21.1472 62.5762 20.9818ZM64.4783 21.7261C64.3129 21.8915 64.3129 22.0569 64.3129 22.2223C64.4783 22.2223 64.561 22.1396 64.7264 22.1396C64.7264 21.9742 64.8092 21.8915 64.8919 21.7261C64.8092 21.6434 64.6438 21.6434 64.4783 21.7261ZM72.1697 12.7943C72.1697 12.7943 72.2524 12.7115 72.2524 12.5461L72.087 12.7115C72.087 12.7942 72.1697 12.7943 72.1697 12.7943ZM68.3654 8.57643C68.2827 8.57643 68.2 8.57643 68.1172 8.57643V8.65913L68.3654 8.57643ZM62.4935 7.584C62.4108 7.5013 62.1627 7.5013 62.08 7.584C62.2454 7.6667 62.3281 7.6667 62.4935 7.7494C62.4935 7.7494 62.4935 7.6667 62.4935 7.584ZM62.8243 10.8921C62.6589 11.0575 62.4935 11.2229 62.2454 11.3056C62.4935 11.7191 62.8243 11.9672 63.3205 12.0499C63.2378 12.6288 63.5686 12.9597 64.1475 12.9597C64.4783 12.7942 64.3956 12.298 65.2227 12.4634C65.3054 11.3056 63.5686 11.471 63.1551 10.644C62.9897 10.7267 62.907 10.8094 62.8243 10.8921ZM59.4335 13.1251C59.2681 13.2905 59.1854 13.3732 59.02 13.4559C59.02 13.2905 58.8546 13.1251 58.8546 13.3732C58.7719 13.3732 58.6892 13.4559 58.7719 13.5386C59.1027 13.6213 59.2681 14.1175 59.7643 14.4483C59.847 14.4483 59.847 14.531 59.9297 14.6137C60.0951 14.6964 60.1778 14.7791 60.3432 14.7791C60.3432 14.3656 60.5086 13.8694 60.0951 13.8694C60.0951 14.1175 59.9297 14.2002 59.6816 14.1175C59.4335 13.7867 59.4335 13.4559 59.4335 13.1251ZM69.4405 58.6941C69.6886 58.8595 69.9367 58.9422 70.0194 59.0249C70.2675 58.694 71.1772 58.8595 71.0945 58.2805C70.9291 58.1978 70.7637 58.0324 70.681 57.867C70.1848 57.9497 69.6059 57.867 69.2751 57.5362C69.1924 57.7016 69.1097 57.867 69.027 58.1151C69.1097 58.1978 69.1924 58.2805 69.2751 58.3632C69.3578 58.4459 69.3578 58.6114 69.4405 58.6941ZM87.0561 9.81696C87.5523 9.81696 87.8831 9.48615 88.0485 8.98994C87.8004 9.32075 87.4696 9.56886 87.0561 9.81696ZM81.8458 7.91481C81.9285 7.91481 82.0112 7.91481 82.1766 7.91481C82.2593 7.83211 82.3421 7.7494 82.4248 7.6667C82.1767 7.7494 82.0112 7.83211 81.8458 7.91481ZM84.6577 40.8303L84.4096 40.913V40.9958L84.6577 40.8303ZM84.4096 4.19321C84.3269 4.60672 85.2366 4.68942 85.2366 4.35861C84.8231 4.44131 84.8231 4.1105 84.4096 4.19321ZM78.8686 14.1175L78.7859 14.2002C78.7859 14.2829 78.7859 14.3656 78.7859 14.4483C78.7859 14.2829 78.8686 14.2002 78.8686 14.1175ZM65.0573 1.54673C65.14 1.46403 65.2227 1.46403 65.3054 1.29862C64.9746 1.05052 64.4783 1.05052 64.0648 1.29862C64.3956 1.38132 64.7264 1.46403 65.0573 1.54673ZM62.9897 -0.520828L62.6589 -0.438129C62.8243 -0.438129 62.907 -0.438126 62.9897 -0.520828ZM50.2535 25.1169V25.1996C50.3362 25.1996 50.3362 25.1169 50.4189 25.1169H50.2535ZM51.1633 25.7785C51.1633 25.8612 51.1633 25.9439 51.1633 26.1093L51.4114 26.0266L51.3287 25.7785H51.1633ZM54.8849 40.086C54.4714 40.086 54.4714 40.3341 54.1406 40.4168C54.2233 40.7476 54.4714 40.9958 54.8022 41.0785C54.9676 40.8303 55.133 40.6649 55.2157 40.4168C55.0503 40.4168 54.8849 40.2514 54.8849 40.086ZM56.787 26.0266C57.4486 26.2747 57.5314 26.9363 57.9449 27.4326C58.4411 27.4326 58.2757 27.0191 58.4411 26.8537C58.193 26.4401 57.614 26.4401 57.3659 25.6958C57.2005 25.8612 56.7043 25.7785 56.787 26.0266ZM90.1988 15.6888C90.1988 15.7715 90.2815 15.9369 90.2815 16.0196C90.6123 16.0196 90.5296 15.6061 90.2815 15.5234C90.2815 15.6061 90.1988 15.6061 90.1988 15.6888ZM97.1458 49.4314C97.1458 49.5968 97.3112 49.6795 97.3939 49.7622C97.8074 49.6795 97.7247 48.6044 98.469 48.3563C98.469 48.3563 98.469 48.2736 98.469 48.1908C98.469 48.2736 98.3863 48.2736 98.3863 48.2736C97.4766 48.1908 97.3939 49.0179 97.1458 49.4314ZM101.364 30.9061C101.446 30.9061 101.446 30.9061 101.446 30.8234C101.364 30.8234 101.364 30.9061 101.364 30.9061ZM102.77 43.8076C102.852 43.8076 102.935 43.8076 103.018 43.8076C103.183 43.7249 103.431 43.6422 103.597 43.5595C103.679 43.5595 103.762 43.5595 103.845 43.5595V43.4768C103.762 43.3941 102.77 43.5595 102.77 43.8076ZM104.424 41.7401C104.506 41.9055 104.506 42.2363 104.754 42.2363C104.754 42.0709 105.251 41.492 104.92 41.492C104.92 41.6574 104.589 41.6574 104.424 41.7401ZM93.755 3.8624C93.5896 4.0278 93.4242 4.1105 93.2588 4.19321C93.5896 4.35861 94.0031 4.44131 94.4166 4.35861C94.2512 4.0278 93.8377 4.19321 93.755 3.8624ZM91.1912 6.59157C91.1085 6.50887 91.0258 6.42617 90.9431 6.42617C90.7777 6.50887 90.6123 6.67427 90.5296 6.83968C90.695 6.92238 91.0258 7.00508 91.1912 6.59157ZM81.3496 4.68942C81.3496 4.60672 81.3496 4.60672 81.2669 4.60672L81.3496 4.68942ZM57.4486 10.644C57.2832 10.7267 57.1178 10.8094 56.9524 10.9748C56.8697 11.3056 56.787 11.5537 56.7043 11.8845C56.8697 12.0499 57.0351 12.2153 57.2005 12.4634C57.5313 12.2153 57.7795 11.8845 57.9449 11.5537C58.0276 11.471 58.0276 11.471 58.1103 11.471C57.9449 11.1402 57.6968 10.8921 57.4486 10.644ZM50.2535 16.5159C50.2535 16.5159 50.2535 16.4332 50.2535 16.2677C50.1708 16.185 49.84 16.3504 49.84 16.4331C49.84 16.5158 49.84 16.5159 49.84 16.5159C49.9227 16.5159 50.0881 16.5159 50.2535 16.5159ZM51.9076 36.5298C51.9903 36.8606 52.1557 37.1087 52.2384 37.2741C52.6519 37.2741 53.2308 37.2741 53.6443 37.4395C53.727 37.1914 54.1406 37.1087 54.306 36.8606C53.6443 35.8682 52.9 36.199 51.9076 36.5298ZM52.9 45.0482C52.6519 45.1309 51.7422 44.9655 52.1557 45.5444C52.4865 45.2136 52.9827 45.5444 52.9 45.0482ZM55.0503 48.7698C54.8849 49.1833 54.6368 49.5141 54.5541 50.0103C55.2157 50.093 55.0503 49.3487 55.6292 49.266C55.5465 49.1833 55.4638 49.1006 55.4638 49.0179C55.2984 48.9352 55.133 48.8525 55.0503 48.7698ZM67.0421 71.4302C66.9594 71.3475 66.8767 71.3475 66.794 71.3475L66.7113 71.4302C66.794 71.4302 66.9594 71.4302 67.0421 71.4302ZM72.914 67.1297C73.2448 67.1297 73.5756 67.1297 74.0718 67.047C74.0718 66.7989 74.0718 66.5508 73.9891 66.3027C73.9064 66.3027 73.8237 66.22 73.741 66.22C73.3275 66.5508 73.0794 66.7989 72.914 67.1297ZM98.469 61.0097C98.5517 61.0924 98.5517 61.1751 98.6344 61.3405C98.5517 61.2578 98.5517 61.0924 98.469 61.0097ZM110.213 12.9597C110.295 12.9597 110.378 12.9597 110.378 13.0424C110.378 12.8769 110.378 12.7942 110.378 12.6288C110.295 12.6288 110.213 12.6288 110.13 12.6288C110.213 12.7115 110.295 12.8769 110.213 12.9597ZM113.604 29.8309H113.19C113.19 30.1617 112.942 30.079 113.19 30.3271C113.521 30.3271 113.604 30.1617 113.604 29.8309ZM111.288 43.146C111.701 43.3114 111.701 42.5671 111.288 42.7325V43.146ZM113.769 44.3865C113.769 44.2211 113.852 44.0557 113.934 43.7249C113.934 43.5595 113.852 43.3941 113.769 43.3114C113.604 43.0633 113.438 42.8152 113.19 42.4844C112.777 43.2287 112.611 44.2211 111.784 44.6347C111.867 44.7174 111.95 44.8001 112.032 44.8828C112.528 44.3865 112.777 44.552 113.521 44.6347C113.604 44.552 113.686 44.4692 113.769 44.3865ZM107.566 12.2153C107.484 11.8845 107.649 11.7191 107.732 11.6364C107.401 11.5537 107.153 11.471 106.905 11.3056C106.905 11.5537 106.822 11.8018 106.739 12.0499C106.905 12.1326 107.153 12.2153 107.566 12.2153ZM90.5296 -4.24244V-4.49054C90.2815 -4.82135 89.7026 -4.73865 89.2063 -4.90405C89.4545 -4.40784 90.0334 -4.15973 90.5296 -4.24244ZM68.9443 -5.15216C68.6135 -5.40027 68.2 -5.56567 67.7864 -5.64838C67.7864 -5.40027 67.621 -5.23486 67.4556 -5.06946C67.7864 -4.57324 68.2827 -4.15973 68.8616 -3.82892C68.9443 -3.82892 69.027 -3.91163 69.1097 -3.99433C69.027 -4.40784 68.7789 -4.65595 68.9443 -5.15216ZM57.2005 -0.934341C57.1178 -0.851639 56.9524 -0.768936 56.787 -0.686234C56.6216 -0.438126 56.4562 -0.107322 56.2908 0.223488C56.9524 0.471595 57.6968 0.637001 58.4411 0.637001C58.2757 0.140787 58.1103 -0.355425 57.9449 -0.851639C57.6141 -0.686234 57.3659 -0.438127 57.2005 -0.934341ZM51.9903 13.4559C51.4114 13.704 50.8325 14.0348 50.0881 14.3656C50.1708 14.4483 50.1708 14.6137 50.0881 14.6964C50.0881 15.0272 50.0881 15.358 50.2535 15.5234C51.4114 15.0272 51.4114 14.3656 51.9903 13.4559ZM28.7509 -6.4754C28.5855 -6.5581 28.4201 -6.4754 28.2547 -6.3927C28.2547 -6.2273 28.4201 -6.22729 28.5855 -6.22729C28.5855 -6.31 28.5028 -6.31 28.5028 -6.3927C28.5855 -6.3927 28.6682 -6.4754 28.7509 -6.4754ZM23.1272 12.7115C22.9618 12.7115 22.7964 12.7115 22.7964 12.9597C22.9618 12.8769 23.0445 12.7942 23.1272 12.7115ZM26.7661 49.266C27.0969 49.6795 27.5931 49.6795 28.0066 49.9276C28.0893 49.7622 28.0893 49.6795 28.172 49.5141H28.0893C28.0066 49.5141 27.9239 49.1833 27.9239 49.1833C27.6758 49.1006 27.6758 49.4314 27.4277 49.4314C27.1796 49.4314 26.9315 48.9352 26.8488 49.1006C26.7661 49.1833 26.7661 49.1833 26.7661 49.266ZM28.6682 49.266C28.5028 49.3487 28.4201 49.4314 28.2547 49.5141C28.3374 49.5141 28.5028 49.5141 28.5028 49.5141C28.5855 49.4314 28.5855 49.3487 28.6682 49.266ZM32.8861 58.6114C32.9688 58.5286 32.9688 58.3632 32.9688 58.2805C32.9688 58.4459 32.8861 58.5286 32.8861 58.6114ZM41.7352 59.1903C42.066 59.4384 42.3968 59.6865 42.3141 60.0173C42.5622 60.1827 42.893 60.1827 43.3065 60.3481C43.0584 59.6038 42.5622 59.1076 41.7352 59.1903ZM47.8552 54.807C47.8552 54.8897 47.8552 54.9725 47.9379 55.0552H48.0206C48.0206 54.9725 47.9379 54.8897 47.8552 54.807ZM60.0951 54.7243V55.2206H60.3432V54.7243H60.0951ZM66.4632 76.7232C66.3805 76.8059 66.2978 76.9713 66.2151 77.054L66.7113 76.8886L66.6286 76.6405L66.4632 76.7232ZM68.6962 78.9561C68.4481 79.0388 68.2 79.1215 68.0345 79.2042C68.7789 79.3696 69.5232 79.5351 70.2675 79.7832C70.2675 79.7005 70.1848 79.535 70.1848 79.4523C70.0194 79.1215 69.4405 78.8734 69.1097 79.2869C68.9443 79.2042 68.8616 79.0388 68.6962 78.9561ZM101.364 60.7616C101.943 60.3481 102.439 59.8519 102.604 59.3557C102.108 59.1903 101.612 59.0249 101.115 58.7768C100.785 57.4535 100.288 57.1227 100.04 56.3784C99.5441 56.3784 100.04 56.8746 99.5441 56.9573C99.9576 57.5362 99.4614 57.7843 99.4614 58.1978C99.5441 58.2805 99.6268 58.3632 99.7095 58.4459C100.454 59.5211 100.371 60.7616 101.364 60.7616ZM104.175 56.4611C104.258 56.6265 104.093 57.04 104.424 56.9573C104.506 56.7092 104.424 56.4611 104.175 56.4611ZM104.175 47.6119C104.258 47.6119 104.341 47.6946 104.341 47.6119C104.424 47.6119 104.506 47.6119 104.506 47.5292C104.424 47.2811 104.258 47.1984 104.093 47.1984C104.01 47.3638 104.175 47.3638 104.175 47.6119ZM121.378 48.9352C121.708 48.6044 122.122 48.2736 122.618 48.1082C121.874 48.1909 121.047 48.2736 120.302 48.3563C120.551 48.7698 120.964 48.9352 121.378 48.9352ZM123.611 15.2753L123.445 15.358V15.4407C123.445 15.358 123.611 15.358 123.611 15.2753ZM116.002 16.764C115.919 16.2677 115.175 16.4332 115.506 16.9294L116.002 16.764ZM113.273 17.9218C113.438 18.1699 113.604 18.3353 113.852 18.5007C114.596 17.9218 114.431 17.0121 115.009 16.3504C114.844 16.3504 114.679 16.2677 114.596 16.185C114.431 16.2677 114.265 16.4332 114.1 16.5986C112.528 16.5159 112.032 16.8467 111.122 16.764C111.122 16.8467 111.122 16.8467 111.122 16.9294C111.205 17.0121 111.205 17.0121 111.288 17.0948C111.453 17.1775 111.619 17.1775 111.536 17.4256C112.446 17.2602 112.363 18.0045 113.273 17.9218ZM109.386 -2.75379C109.551 -2.9192 109.717 -3.0019 109.882 -3.1673C109.634 -3.1673 109.468 -3.08461 109.303 -3.08461C109.303 -3.0019 109.303 -2.83649 109.386 -2.75379ZM104.92 -7.79864C105.003 -7.88134 105.002 -7.96404 105.085 -8.12945C104.92 -8.12945 104.837 -8.21215 104.672 -8.21215C104.672 -8.04674 104.754 -7.88134 104.92 -7.79864ZM103.845 -8.46026C103.679 -8.46026 103.514 -8.46025 103.348 -8.54296V-8.46026C103.431 -8.46026 103.679 -8.46026 103.845 -8.46026ZM103.018 1.87754C102.852 1.54673 102.521 1.29862 102.191 1.21592C101.943 1.46403 101.777 1.79484 101.777 2.12564C102.108 2.29105 102.439 2.53915 102.77 2.70456C102.687 2.45645 102.852 2.20835 103.018 1.87754ZM99.8749 -0.686234C99.6268 -1.01704 99.5441 -1.34786 99.2133 -1.51326C99.1306 -1.01705 98.8825 -0.520831 98.5517 -0.107319C98.9652 -0.355426 99.3787 -0.520829 99.8749 -0.686234ZM96.4842 -10.3624C96.4015 -10.3624 96.3187 -10.3624 96.236 -10.3624C96.236 -10.197 96.1533 -10.0316 96.0706 -9.86619C96.815 -9.9489 96.6496 -9.28728 97.1458 -9.12188C97.1458 -9.53539 97.2285 -9.8662 97.2285 -10.1143C97.0631 -10.0316 96.8977 -9.9489 96.815 -10.1143C96.6496 -10.5278 97.1458 -10.5278 96.815 -10.9413C95.9879 -11.1067 96.815 -10.4451 96.4842 -10.3624ZM94.9955 -12.1819L94.7474 -12.0992V-12.0165H94.9955V-12.1819ZM82.921 -3.49812C82.8383 -3.58082 82.7556 -3.66352 82.5902 -3.66352V-3.58082C82.6729 -3.58082 82.8383 -3.49812 82.921 -3.49812ZM77.1318 -3.0019C77.2972 -3.0019 77.4626 -3.08461 77.628 -3.08461C77.8761 -3.33271 78.1242 -3.41541 78.455 -3.41541C78.3723 -3.99433 78.0415 -4.49054 77.3799 -4.65595C77.3799 -4.65595 77.2972 -4.65595 77.2145 -4.65595C76.801 -4.15973 76.3875 -3.66352 75.8086 -3.25001C76.1394 -3.16731 76.3875 -2.9192 76.801 -3.33271C76.8837 -3.16731 77.0491 -3.0846 77.1318 -3.0019ZM57.2005 -5.73108C57.2005 -5.73108 57.2005 -5.73108 57.2832 -5.64838V-5.73108H57.2005ZM50.9152 -10.197L50.7498 -10.1143C50.7498 -10.0316 50.7498 -9.9489 50.7498 -9.86619L50.9979 -9.9489L50.9152 -10.197ZM28.0066 -6.06189C27.9239 -5.89648 27.8412 -5.81378 27.7585 -5.64838V-5.56567C27.9239 -5.64838 28.0066 -5.64838 28.172 -5.64838C28.172 -5.73108 28.2547 -5.73108 28.3374 -5.81378C28.3374 -5.89648 28.3374 -5.97919 28.3374 -6.06189C28.2547 -6.06189 28.0893 -6.06189 28.0066 -6.06189ZM21.4731 21.8915C21.0596 22.1396 20.8115 22.4704 20.6461 23.0493C20.8942 22.8012 21.225 22.6358 21.4731 22.3877C21.4731 22.305 21.4731 22.305 21.4731 22.2223C21.9693 21.7261 22.4656 21.0645 22.7137 20.4029L22.4656 20.1548C22.4656 20.2375 22.3829 20.3202 22.3829 20.4029C21.8866 20.4856 21.9693 20.9818 21.5558 21.0645V21.8915H21.4731ZM18.4131 40.913V41.1612H18.6612V40.913H18.4131ZM29.0817 56.4611C29.0817 56.6265 28.9163 57.04 29.3298 56.9573C29.4953 56.7092 29.4126 56.4611 29.0817 56.4611ZM45.2914 55.8822H45.126L45.2087 56.1303H45.3741C45.3741 56.0476 45.2914 55.9649 45.2914 55.8822ZM45.3741 49.0179C45.4568 49.1833 45.5395 49.266 45.7049 49.4314C46.1184 49.0179 46.5319 48.6871 47.1109 48.2736C47.0282 48.0254 46.9455 47.7773 46.78 47.5292C46.2838 47.86 45.7876 48.3563 45.3741 49.0179ZM57.1178 77.4675C57.4486 77.6329 57.6968 77.7983 57.8622 78.0464C58.0276 77.881 58.1103 77.7156 58.1103 77.4675C57.9449 77.3021 57.8622 77.1367 57.8622 76.9713C57.3659 77.2194 56.8697 76.6405 57.0351 76.3097C56.9524 76.227 56.8697 76.3097 56.7043 76.3097C56.7043 76.7232 56.8697 77.1367 57.1178 77.4675ZM60.674 69.1145C60.7567 69.1145 60.8394 69.1146 60.9221 69.0319H60.674V69.1145ZM77.5453 70.107C77.5453 70.1897 77.4626 70.2724 77.4626 70.4378C77.628 70.4378 77.7107 70.5205 77.7934 70.6032C77.628 70.4378 77.7934 70.3551 77.7107 70.107C77.628 70.107 77.628 70.107 77.5453 70.107ZM83.9961 73.4978L83.748 73.5805L83.8307 73.8286L84.0788 73.7459L83.9961 73.4978ZM98.6344 70.934C98.9652 71.0167 99.2133 71.2648 99.3787 71.5129C99.5441 71.5129 99.7922 71.4302 99.9576 71.3475C100.123 71.3475 100.123 71.2648 100.04 71.0994C99.7923 70.934 99.3787 70.934 99.0479 71.0994C98.9652 71.0167 98.7998 70.8513 98.6344 70.7686C98.7171 70.8513 98.6344 70.8513 98.6344 70.934ZM103.927 50.5892C104.341 50.4238 104.754 50.1757 105.168 49.9276C105.085 49.5968 104.92 49.3487 104.589 49.266C104.589 49.3487 104.672 49.5968 104.589 49.6795C104.424 49.9276 104.175 50.0103 104.01 50.1757C103.927 50.3411 103.927 50.4238 103.927 50.5892ZM128.076 32.4774C128.076 32.3947 128.076 32.3947 128.076 32.4774ZM123.693 12.298V12.0499H123.362V12.298H123.693ZM113.438 -1.59596C113.19 -1.18245 114.017 -1.18245 114.017 -1.43056C113.769 -1.51326 113.769 -1.67866 113.438 -1.59596ZM100.785 -12.8435C100.867 -13.1743 100.785 -13.4224 100.537 -13.3397C100.537 -13.0916 100.206 -13.1743 100.288 -12.8435C100.371 -12.8435 100.454 -12.8435 100.537 -12.7608C100.619 -12.7608 100.702 -12.8435 100.785 -12.8435ZM91.1912 -12.6781C91.3566 -12.6781 91.4393 -12.7608 91.6047 -12.9262C91.3566 -12.9262 91.1085 -13.0089 91.1912 -12.6781ZM79.4475 -11.9338C79.3648 -12.0165 79.3648 -12.0165 79.4475 -11.9338ZM61.0048 -6.80621C60.8394 -6.80621 60.5913 -6.88891 60.4259 -6.97161C60.2605 -6.6408 60.0951 -6.3927 59.9297 -6.14459C60.3432 -6.30999 60.674 -6.5581 61.0048 -6.80621ZM58.4411 -14.911C58.6065 -14.9937 58.6892 -15.1591 58.7719 -15.2418C58.4411 -15.49 58.0276 -15.5727 57.5313 -15.49C57.6968 -15.1591 58.0276 -14.9937 58.4411 -14.911ZM49.6746 -14.084C49.3438 -13.9186 49.2611 -14.0013 49.2611 -14.1667C49.1784 -14.084 49.0957 -14.0013 49.013 -13.9186L49.0957 -13.8359C49.3438 -13.5878 49.5919 -13.5878 49.84 -13.7532L49.6746 -14.084ZM28.0893 -0.603535C27.345 -0.520832 26.518 -0.603531 25.8563 -0.768936C26.3526 -0.272722 25.8564 0.719706 25.9391 1.38132C26.1872 1.38132 26.3526 1.38132 26.6007 1.38132C27.0969 0.719706 27.9239 0.223489 28.0893 -0.603535ZM18.2477 21.6434C18.4131 21.8088 18.4958 21.9742 18.4958 22.0569C18.5785 21.8088 18.5785 21.5607 18.4958 21.3953C18.9094 20.9818 19.6537 20.8991 19.571 19.9894C19.9845 19.9067 20.0672 19.5758 20.2326 19.245C19.9018 19.245 19.4883 19.245 19.0748 19.3277C19.0748 20.1548 19.0748 20.9818 18.2477 21.6434ZM22.7964 50.1757C22.7964 50.5065 22.8791 50.8373 23.0445 51.1681C23.1272 51.2508 23.2926 51.3335 23.3753 51.3335C23.2099 50.8373 23.458 50.7546 23.6234 50.5892C23.2926 50.5892 23.2099 50.093 22.7964 50.1757ZM25.3601 52.2433C25.3601 52.326 25.2774 52.4914 25.1947 52.5741C25.2774 52.6568 25.4428 52.6568 25.5255 52.7395C25.5255 52.6568 25.6082 52.5741 25.6909 52.5741C25.7736 52.5741 25.7736 52.4914 25.7736 52.4087C25.6909 52.326 25.6909 52.2433 25.3601 52.2433ZM24.8639 55.8822C25.0293 56.213 25.112 56.4611 25.2774 56.7919C25.5255 56.5438 26.0218 56.4611 26.2699 56.0476C25.8563 56.3784 25.1947 56.2957 24.8639 55.8822ZM28.6682 57.9497C28.6682 58.0324 28.7509 58.0324 28.8336 58.0324C28.7509 57.9497 28.7509 57.9497 28.6682 57.9497ZM29.6607 61.2578C29.6607 61.1751 29.6607 61.0924 29.6607 61.0097C29.578 60.927 29.4126 60.927 29.3298 60.8443C29.4953 61.0097 29.578 61.0924 29.6607 61.2578ZM40.8255 63.5735C41.4871 63.987 41.9833 64.5659 42.066 65.3102C42.4795 65.0621 43.0584 64.814 43.1411 64.3178C42.4795 64.2351 41.8179 63.8216 41.6525 63.2427C41.4044 63.2427 41.239 63.16 41.0736 63.16C40.9909 63.3254 40.9082 63.4908 40.8255 63.5735ZM45.953 59.5211C46.0357 59.6865 46.2011 59.8519 46.3665 59.7692C46.2838 59.6038 46.2011 59.3557 45.953 59.5211ZM45.7876 58.6114C46.2011 58.5286 46.6146 58.7768 46.8627 59.273C46.8627 59.1903 46.8627 59.1903 46.8627 59.1076C46.3665 58.6114 46.1184 57.867 46.2838 57.2054C46.2011 57.04 45.953 57.1227 45.7876 57.04C45.7049 57.04 45.5395 57.04 45.3741 57.04C45.3741 56.6265 44.7952 56.5438 44.5471 56.7919C44.7125 57.04 44.7952 57.2054 44.9606 57.4535C45.2087 57.7843 45.8703 58.0324 45.7876 58.6114ZM53.3135 60.0173C52.3211 59.4384 52.1557 61.0097 52.2384 61.4232C52.9 61.1751 53.2308 60.5962 53.3135 60.0173ZM56.8697 61.9194C56.9524 62.0021 57.1178 62.0848 57.2832 62.333C57.4486 62.2503 57.614 62.2503 57.7795 62.1675C57.8622 62.333 58.0276 62.4157 58.193 62.5811C58.2757 62.4157 58.6065 62.333 58.7719 62.2503C58.7719 62.0848 58.7719 62.0021 58.7719 61.9194C58.2757 61.9194 58.1103 61.3405 57.6141 61.0097C57.4486 61.3405 57.2832 61.5059 56.787 61.1751V61.9194H56.8697ZM54.6368 76.1442C54.4714 76.1442 54.2233 76.227 54.1406 76.3924C54.306 76.4751 54.3887 76.5578 54.4714 76.6405C54.6368 76.5578 54.7195 76.3096 54.6368 76.1442ZM95.7398 75.7307C95.9052 75.7307 95.9879 75.648 95.6571 75.5653C95.6571 75.648 95.7398 75.648 95.7398 75.7307ZM103.018 73.5805V73.8286H103.266V73.7459C103.183 73.6632 103.183 73.6632 103.1 73.5805H103.018C103.018 73.4978 103.018 73.4978 103.018 73.5805ZM118.318 60.2654L118.4 60.5135L118.648 60.4308L118.566 60.1827L118.318 60.2654ZM127.415 54.2281H127.58C127.58 54.1454 127.663 54.0627 127.663 53.98H127.415V54.2281ZM128.573 31.9812C128.903 31.8158 129.4 31.6504 129.317 31.3196C129.152 31.5677 128.821 31.7331 128.573 31.9812ZM109.386 -11.5202C109.138 -11.7683 108.724 -11.9338 108.145 -12.0992C107.732 -12.0992 107.153 -11.9338 106.822 -11.6856C106.987 -11.6856 106.987 -11.6029 106.987 -11.4375C106.822 -11.4375 106.574 -11.3548 106.408 -11.2721C106.491 -11.1894 106.491 -11.1894 106.491 -11.1067C107.235 -10.9413 107.98 -10.6932 108.641 -10.3624C108.641 -10.8586 109.22 -11.1067 109.386 -11.5202ZM106.491 -12.9262C106.408 -12.9262 106.243 -12.9262 106.078 -12.9262C106.078 -12.7608 106.243 -12.6781 106.491 -12.6781V-12.9262ZM100.537 -13.6705C100.785 -13.6705 100.95 -13.8359 100.95 -14.084C100.867 -14.0013 100.702 -14.0013 100.537 -14.0013C100.537 -13.9186 100.537 -13.7532 100.537 -13.6705ZM94.1685 -14.9937C94.1685 -15.1591 94.1685 -15.3246 94.0858 -15.49C93.9204 -15.3246 93.9204 -15.1591 94.0858 -14.9937H94.1685ZM79.034 -22.6851L79.2821 -22.7678C79.2821 -22.8505 79.1994 -22.9332 79.1994 -23.0159L78.9513 -22.9332C78.9513 -22.8505 79.034 -22.7678 79.034 -22.6851ZM62.907 -20.7002C62.907 -20.7002 62.907 -20.7002 62.8243 -20.6175C62.907 -20.6175 62.907 -20.6175 62.9897 -20.6175C62.9897 -20.6175 62.9897 -20.7002 62.907 -20.7002ZM63.4032 -18.3845H63.0724V-18.1364H63.4032V-18.3845ZM56.2081 -18.5499C56.5389 -18.3018 56.6216 -18.9635 56.3735 -18.9635C56.3735 -18.8808 56.2908 -18.798 56.2081 -18.798V-18.5499ZM44.6298 -7.55053C44.5471 -7.71593 44.3817 -7.79864 44.1336 -7.88134C43.8028 -7.46783 43.5547 -7.05432 43.1411 -6.6408C43.1411 -6.5581 43.2238 -6.3927 43.2238 -6.3927C43.6374 -6.31 44.2163 -6.6408 44.7125 -6.6408C44.7952 -6.6408 44.7952 -6.6408 44.7952 -6.6408C45.4568 -6.88891 46.1184 -7.30242 46.5319 -7.79864C46.1184 -7.79864 45.7876 -7.88134 45.3741 -8.04675C45.0433 -7.88134 44.8779 -7.71593 44.6298 -7.55053ZM37.1866 -7.38512C37.352 -7.46783 37.6001 -7.55053 37.6001 -7.71593C37.4347 -7.63323 37.2693 -7.55053 37.1866 -7.38512ZM22.4656 -3.58082C22.5483 -3.58082 22.631 -3.58081 22.7137 -3.66352L22.4656 -3.58082C22.5483 -3.58082 22.5483 -3.58082 22.4656 -3.58082ZM30.7358 65.641C30.5704 66.1373 30.4877 66.5508 30.405 67.047C31.0666 67.1297 31.5628 67.5432 32.1417 67.7086C32.059 66.7162 31.3974 66.22 30.7358 65.641ZM31.5628 64.8967C31.7282 64.9794 32.7206 64.8967 32.7206 64.5659C32.4725 64.4005 31.5628 64.5659 31.5628 64.8967ZM31.4801 62.9946C31.8936 63.2427 32.3071 63.4081 32.7206 63.5735C32.4725 63.0773 32.059 62.7465 31.5628 62.4157C31.5628 62.5811 31.4801 62.8292 31.4801 62.9946ZM34.1266 67.2951C33.8785 67.5432 33.5477 67.7913 33.6304 68.2875C34.292 68.5356 34.292 67.7913 34.1266 67.2951ZM34.9536 67.2951C35.0363 67.3778 35.0363 67.3778 35.119 67.3778C35.119 67.3778 35.0363 67.2951 34.9536 67.2951ZM37.352 64.2351C37.352 64.4005 37.5174 64.6486 37.6001 64.7313C37.6828 64.4832 37.6828 64.2351 37.5174 64.0697C37.4347 64.1524 37.4347 64.1524 37.352 64.2351ZM38.9233 65.641C39.0887 65.3929 39.2541 65.3929 39.3368 65.4756C39.2541 65.1448 39.2541 64.814 39.3368 64.4832C38.9233 64.5659 39.0887 64.1524 38.6752 64.2351C38.4271 64.4832 38.3444 64.814 38.2617 65.1448C38.5098 65.2275 38.7579 65.3929 38.9233 65.641ZM45.953 69.28V69.5281H46.2011V69.3627L46.1184 69.28H45.953ZM50.7498 62.2503C50.9152 62.333 51.0806 62.333 51.1633 62.4157C51.1633 62.2503 51.0806 62.1675 50.7498 62.2503ZM53.4789 81.3545C53.4789 81.4372 53.5616 81.4372 53.5616 81.4372L53.4789 81.3545ZM57.1178 87.3091C57.1178 87.3091 57.0351 87.2264 56.9524 87.1437C57.0351 87.2264 57.1178 87.2264 57.1178 87.3091ZM57.3659 87.8053L57.6141 87.7226L57.5313 87.4745L57.2832 87.5572C57.2832 87.6399 57.3659 87.7226 57.3659 87.8053ZM60.2605 84.828C60.2605 84.9107 60.2605 84.9934 60.3432 84.9934C60.4259 84.9934 60.4259 84.9107 60.5086 84.9107C60.4259 84.828 60.3432 84.828 60.2605 84.828ZM90.3642 77.7156C90.4469 77.6329 90.6123 77.4675 90.695 77.3021C90.6123 76.9713 90.5296 76.6405 90.695 76.4751C90.0334 76.0615 89.2063 75.7307 88.5447 75.3172C88.1312 75.648 87.7177 75.8134 87.2215 75.8961C86.9734 76.4751 86.7253 77.054 86.3945 77.5502C86.5599 77.7156 86.6426 77.9637 86.6426 78.2118C87.8004 78.6253 89.2063 77.7983 90.3642 77.7156ZM102.273 74.9037C102.439 74.9037 102.604 74.821 102.687 74.7383C102.77 74.4075 102.77 74.1594 102.687 73.8286C102.521 73.9113 102.273 73.8286 102.273 73.994C102.77 74.3248 101.777 74.4075 101.694 74.6556C101.694 74.821 102.273 74.6556 102.273 74.9037ZM105.499 66.22C105.581 66.22 105.581 66.22 105.499 66.22ZM107.318 67.5432C107.235 67.6259 107.235 67.7086 107.153 67.874C107.401 67.874 107.732 67.3778 107.401 67.4605C107.401 67.4605 107.401 67.4605 107.318 67.5432ZM131.302 48.2736C131.385 48.3563 131.467 48.3563 131.467 48.3563C131.467 48.2736 131.385 48.2736 131.302 48.2736ZM117.077 -2.58839C117.408 -3.0019 117.656 -3.41541 117.739 -3.91163C117.16 -3.58082 116.498 -3.33271 115.837 -3.25001C116.167 -2.9192 116.664 -2.67109 117.077 -2.58839ZM108.145 -15.4073C108.145 -15.4073 108.228 -15.49 108.311 -15.4073C108.062 -15.5727 107.98 -15.9035 107.484 -15.8208C107.732 -15.6554 107.897 -15.5727 108.145 -15.4073ZM96.7323 -19.6251C96.6496 -19.6251 96.6496 -19.6251 96.6496 -19.5424C96.6496 -19.4597 96.7323 -19.377 96.815 -19.377C96.7323 -19.4597 96.7323 -19.5424 96.7323 -19.6251ZM79.3648 -22.6024C79.4475 -22.6024 79.5302 -22.6851 79.6956 -22.7678C79.6129 -22.7678 79.4475 -22.7678 79.3648 -22.6851V-22.6024ZM75.2297 -23.5121C74.9815 -23.8429 74.6507 -24.091 74.0718 -24.091C74.4026 -23.4294 74.8161 -22.8505 75.4778 -22.437C75.3951 -22.7678 75.3124 -23.1813 75.2297 -23.5121ZM71.5908 -23.0986C72.087 -23.1813 71.9216 -23.7602 71.508 -23.5948C71.5908 -23.3467 71.2599 -23.264 71.5908 -23.0986ZM70.681 -23.0986L70.9291 -23.1813L70.8464 -23.4294L70.5983 -23.3467L70.681 -23.0986ZM37.5174 -14.911C37.6001 -14.5802 37.8482 -14.5802 38.179 -14.7456C38.0136 -14.9937 37.6828 -15.2418 37.5174 -14.911ZM23.0445 -5.89648C22.9618 -5.89648 22.8791 -5.89648 22.7964 -5.97919V-5.89648H23.0445ZM4.35374 23.132C4.35374 23.4629 4.27104 23.711 4.18833 24.0418C4.27104 24.2899 4.35374 24.6207 4.43644 24.9515C4.76725 24.8688 4.60185 24.6207 5.01536 24.6207L4.68455 23.6283L5.26346 23.4629C5.18076 23.2147 5.09806 23.0493 5.01536 22.8012C4.76725 22.9666 4.60185 23.0493 4.35374 23.132ZM10.3083 55.386C10.5564 55.9649 10.9699 56.5438 11.5488 56.8746C11.7142 56.5438 11.8797 56.213 11.9624 55.7995C11.5488 55.5514 11.1353 55.2205 10.7218 54.8897C10.5564 55.0551 10.391 55.2206 10.3083 55.386ZM14.4434 60.7616C14.9396 60.8443 15.105 61.2578 15.5186 61.754C15.684 61.754 15.7667 61.754 15.9321 61.754C15.8494 61.3405 15.5186 61.5059 15.5186 61.0924C15.7667 61.0924 15.7667 60.927 15.684 60.7616C15.6013 60.6789 15.5186 60.5962 15.5186 60.5135C15.105 60.5135 14.6915 60.4308 14.278 60.2654C14.3607 60.4308 14.4434 60.5962 14.4434 60.7616ZM15.684 62.1675C15.684 62.2503 15.7667 62.333 15.8494 62.333H15.9321L15.8494 62.0849L15.684 62.1675ZM17.338 55.4687C17.4207 55.9649 17.5034 56.4611 17.7515 56.8746C17.9996 56.5438 18.0823 56.1303 17.9996 55.7995C17.8342 55.6341 17.5861 55.4687 17.338 55.4687ZM44.6298 69.8589C44.7952 69.9416 44.8779 69.9416 44.9606 70.0243C44.9606 69.8589 44.8779 69.7762 44.7952 69.6935C44.7125 69.7762 44.7125 69.7762 44.6298 69.8589ZM48.7649 70.5205C48.5168 70.6859 48.3514 70.8513 48.186 70.934C48.5168 71.0994 48.8476 71.1821 49.3438 71.2648C49.0957 71.0167 48.9303 70.7686 48.7649 70.5205ZM51.4114 74.1594C51.1633 74.1594 50.9152 74.1594 50.9979 74.4075C51.1633 74.4075 51.3287 74.3248 51.4114 74.1594ZM50.2535 81.9334H50.3362C50.3362 81.8507 50.3362 81.6853 50.2535 81.6853C50.2535 81.6853 50.2535 81.768 50.1708 81.768C50.2535 81.8507 50.2535 81.8507 50.2535 81.9334ZM58.5238 88.3842C58.9373 88.3842 59.847 88.6323 59.5989 87.8053C59.02 88.3015 58.9373 87.7226 58.193 87.8053C58.1103 88.1361 58.5238 87.9707 58.5238 88.3842ZM62.9897 90.2036C63.0724 90.2036 63.1551 90.2864 63.2378 90.3691C63.2378 90.121 63.3205 89.8728 62.9897 89.9556V90.2036ZM81.4323 86.0685C81.5977 86.0685 81.6804 85.9858 81.9285 85.9031C81.7631 85.7377 81.6804 85.5723 81.7631 85.3242C81.515 85.3242 81.2669 85.3242 81.0188 85.4069C81.2669 85.4896 81.515 85.655 81.4323 86.0685ZM90.1988 89.9556C90.1988 89.8728 90.1988 89.7901 90.2815 89.542C89.868 89.4593 89.868 89.7901 89.4545 89.7074C89.5372 89.2939 89.1236 89.4593 88.8755 89.4593C88.7101 89.9555 88.462 90.2863 88.1312 90.6172C88.6274 90.8653 88.9582 90.4518 89.1236 90.0382C89.3717 90.0382 89.7853 90.0383 90.1988 89.9556ZM100.785 84.4972V84.9107H101.033C101.033 84.828 101.198 84.7453 101.198 84.6626C101.033 84.5799 101.033 84.4972 100.785 84.4972ZM108.311 71.8437C108.807 71.5129 109.303 71.0994 109.717 70.6859C109.468 70.6859 109.303 70.6032 109.055 70.5205C108.724 70.934 108.476 71.3475 108.311 71.8437ZM118.566 65.641C118.069 65.7237 118.152 66.0546 118.152 66.3027C118.318 66.3027 118.566 66.1373 118.731 65.9719L118.566 65.641ZM124.686 76.5578C124.768 77.1367 123.941 76.8886 124.024 77.4675H125.182C125.099 77.2194 125.265 76.6405 124.686 76.5578ZM126.174 67.874C126.257 67.7913 126.174 67.7086 126.174 67.6259V67.874ZM136.76 48.6044C136.595 48.6044 136.512 48.439 136.347 48.6044L136.429 48.8525C136.678 48.9352 136.76 48.8525 136.76 48.6044ZM138.414 9.23805C138.332 9.32075 138.083 9.32075 138.083 9.48615C138.166 9.48615 138.249 9.48616 138.249 9.56886C138.414 9.48616 138.58 9.40345 138.414 9.23805ZM139.407 18.9142C139.407 18.9969 139.407 19.1623 139.407 19.245C139.489 19.245 139.572 19.245 139.572 19.245C139.489 19.0796 139.489 18.9969 139.407 18.9142ZM141.722 19.5758L141.805 19.7412C141.805 19.6585 141.888 19.5758 141.97 19.4931L141.722 19.5758ZM141.557 18.9969L141.309 19.0796C141.309 19.1623 141.392 19.245 141.392 19.3277L141.64 19.245L141.557 18.9969ZM141.143 39.6725H141.309C141.392 39.5071 141.474 39.1763 141.061 39.259C141.143 39.3417 141.061 39.5898 141.143 39.6725ZM142.053 30.2444C142.053 30.2444 142.053 30.2444 142.053 30.1617H141.888C141.97 30.1617 141.97 30.2444 142.053 30.2444ZM141.888 28.0942V27.8461H141.557V28.0942H141.888ZM140.895 46.3714C140.813 46.9503 140.73 47.4465 140.647 47.9427C140.647 48.0255 140.647 48.1081 140.647 48.1908C140.895 48.1081 141.226 48.0255 141.309 48.3563C142.384 47.9428 141.143 47.1984 141.722 46.6195C141.392 46.6195 141.226 46.3714 140.895 46.3714ZM141.392 27.4326C142.219 27.3499 143.046 26.7709 143.376 25.8612C143.046 25.5304 142.797 25.1996 142.549 24.7861C141.061 25.6958 140.895 27.1845 139.986 28.425C140.234 28.425 140.482 28.425 140.73 28.5077C141.061 27.9288 140.895 27.7634 141.392 27.4326ZM141.143 18.5834C141.143 18.2526 140.978 17.8391 140.73 17.591C140.399 17.3429 140.399 16.8467 139.903 16.764L139.82 16.8467C139.903 17.591 140.399 18.3353 141.143 18.5834ZM139.324 24.3726C139.159 24.3726 139.076 24.3726 138.993 24.3726C139.076 24.538 139.076 24.6207 139.159 24.7861C139.241 24.6207 139.241 24.538 139.324 24.3726ZM131.302 10.8921C130.309 10.644 129.813 13.2905 129.152 13.9521C129.317 14.2002 129.565 14.4483 129.813 14.6137C130.227 14.2002 130.806 13.8694 131.302 13.5386C131.302 13.3732 131.302 13.2078 131.219 13.0424C131.633 12.8769 131.963 12.3807 131.881 11.8845C131.881 11.7191 131.219 10.8921 131.302 10.8921ZM129.4 9.89967C129.565 9.73426 129.813 9.65156 129.73 9.23805C129.234 9.23805 129.234 9.56886 129.152 9.89967C129.317 9.89967 129.482 10.3959 129.565 10.0651C129.482 9.98237 129.4 9.98237 129.4 9.89967ZM127.498 4.85482C127.58 4.77212 127.58 4.68942 127.498 4.68942C127.498 4.68942 127.498 4.77212 127.498 4.85482ZM108.145 -22.6851C108.145 -22.6024 108.145 -22.5197 108.145 -22.3543L108.228 -22.2715C108.228 -22.3543 108.228 -22.3543 108.311 -22.3543C108.393 -22.5197 108.476 -22.6851 108.145 -22.6851ZM106.408 -23.0986V-23.264H106.326L106.408 -23.0986ZM105.995 -22.437C105.995 -22.437 105.995 -22.3543 106.078 -22.2715C106.16 -22.3543 106.16 -22.3543 106.16 -22.437C106.078 -22.437 106.078 -22.437 105.995 -22.437ZM106.491 -25.6623C106.408 -25.745 106.243 -25.8277 106.16 -25.9105C106.16 -25.9105 106.078 -25.8277 105.995 -25.8277C105.995 -25.745 106.078 -25.5796 106.078 -25.4969C106.243 -25.4969 106.408 -25.5796 106.491 -25.6623ZM69.6059 -29.384L69.2751 -29.3012V-29.2185C69.2751 -29.1358 69.3578 -29.1358 69.3578 -29.1358C69.5232 -29.1358 69.6059 -29.2185 69.7713 -29.2185V-29.3012C69.6886 -29.3012 69.6059 -29.3012 69.6059 -29.384ZM54.306 -22.6024C54.2233 -22.6024 54.2233 -22.6024 54.2233 -22.6024C54.2233 -22.5197 54.2233 -22.5197 54.2233 -22.437C54.2233 -22.5197 54.306 -22.5197 54.306 -22.6024ZM49.84 -21.031C49.1784 -20.9483 48.4341 -20.7829 47.8552 -20.6175C47.6071 -20.5348 47.359 -20.2867 47.359 -19.9559C48.3514 -19.6251 49.4265 -19.4597 50.5016 -19.377C50.8325 -19.7078 51.1633 -19.9559 51.6595 -20.0386C51.5768 -20.204 51.4114 -20.3694 51.4941 -20.6175L51.5768 -20.7002C50.8325 -20.7002 50.3362 -20.6175 49.84 -21.031ZM44.6298 -16.8132C44.5471 -16.7305 44.5471 -16.8132 44.4644 -16.8132C44.4644 -16.8132 44.3817 -16.7305 44.3817 -16.6478C44.4644 -16.6478 44.6298 -16.7305 44.6298 -16.8132ZM40.6601 -17.8056C40.8255 -17.8056 40.9082 -17.8883 40.9909 -17.971C40.9082 -17.971 40.7428 -17.8883 40.6601 -17.8056ZM35.119 -19.1289C36.1114 -19.8732 36.8558 -20.8656 37.352 -22.0234C37.1866 -21.7753 37.0212 -21.6099 36.7731 -21.5272C36.0287 -21.1137 36.1941 -21.1137 35.7806 -20.7002C35.3671 -20.204 34.4574 -19.7905 34.6228 -19.2943C34.8709 -19.1289 34.9536 -19.1289 35.119 -19.1289ZM24.9466 -18.8808C25.112 -19.0462 25.2774 -19.1289 25.3601 -19.2943C25.0293 -19.2943 24.9466 -19.0462 24.8639 -18.798L24.9466 -18.8808ZM18.4131 -12.2646C19.0748 -12.1819 18.2477 -11.5202 18.4131 -12.2646ZM6.3386 4.93752C6.3386 4.77212 6.504 4.52401 6.25589 4.60672V5.10293L6.3386 4.93752ZM21.5558 65.0621C22.8791 64.7313 22.7964 63.8216 22.8791 62.9119C22.7964 62.9119 22.7137 62.8292 22.7137 62.8292L22.052 62.9946C21.7212 62.4157 20.8942 62.6638 20.5634 62.2503C20.398 62.4984 20.3153 62.7465 20.3153 62.9946C20.8942 63.4908 21.3077 64.2351 21.5558 65.0621ZM25.8563 69.4454C25.9391 70.107 26.518 70.5205 27.2623 70.934C27.2623 70.6032 27.345 70.1897 27.345 69.8589C26.7661 69.8589 26.2699 69.6935 25.8563 69.4454ZM34.4574 73.0016C34.2093 73.4151 34.5401 73.6632 34.3747 74.2421C36.1114 74.3248 37.6001 75.3172 39.1714 75.4826C38.179 74.9864 37.0212 74.7383 36.525 73.9113C36.3596 73.994 36.1114 73.994 35.8633 73.9113C35.6979 73.3324 35.0363 73.2497 34.4574 73.0016ZM46.3665 72.5053C46.2838 72.7535 46.2011 73.0843 46.1184 73.3324C46.4492 73.4978 46.6973 73.5805 47.1109 73.7459C47.1109 73.6632 47.1936 73.5805 47.359 73.5805C48.4341 74.3248 49.5919 74.821 50.8325 75.0691C50.8325 74.6556 50.7498 74.2421 50.5844 73.8286C49.7573 73.4978 48.8476 73.2497 48.0206 73.0843C48.3514 73.0016 48.186 72.7535 48.5995 72.7535C49.0957 72.9189 49.6746 72.8362 50.0881 72.5881C50.0054 72.5053 50.0054 72.3399 49.9227 72.2572C49.1784 72.4226 47.9379 72.0918 47.6898 73.0016C47.2763 72.8362 47.7725 72.6708 47.6071 72.3399C47.1936 72.3399 47.359 72.6708 47.1936 72.7535C46.78 72.6708 46.6146 72.5881 46.3665 72.5053ZM46.6973 76.5578C46.6146 76.8886 46.6973 77.1367 46.8627 77.4675C46.9454 77.3848 46.9455 77.3848 47.0282 77.3848C47.1936 78.2118 48.186 77.7156 48.6822 78.0464C48.8476 77.881 48.8476 77.6329 48.8476 77.4675C47.9379 77.3848 47.6898 76.6405 46.6973 76.5578ZM59.9297 88.3842C60.2605 88.9631 60.9221 89.1285 61.4184 89.4593C61.5011 89.3766 61.5838 89.3766 61.6665 89.3766C61.6665 89.2939 61.7492 89.2112 61.7492 89.1285C61.5011 89.0458 61.3357 88.9631 61.0875 88.8804C60.9221 88.3015 60.5086 88.3842 59.9297 88.3842ZM90.695 89.8728C90.695 89.8728 90.7777 89.8728 90.8604 89.8728H90.695ZM91.9355 85.9858C91.8528 86.1512 91.8528 86.3993 91.8528 86.6475C93.2588 86.5648 94.0858 86.2339 95.2436 86.8129C95.1609 86.6474 95.409 86.6474 95.5744 86.5647L95.409 86.0685C94.3339 86.3993 94.0858 85.2415 93.4242 84.9107C93.3415 84.9107 93.2588 84.9934 93.1761 84.9934C92.7626 85.2415 92.7625 85.8204 92.0182 85.9031L91.9355 85.9858ZM101.694 83.6702C102.108 83.7529 102.521 83.7529 103.018 83.5048C102.852 83.2567 102.687 83.0912 102.521 82.8431C102.356 83.1739 102.108 83.5048 101.694 83.6702ZM106.243 81.0237C106.078 81.2718 105.747 81.5199 105.995 81.8507C106.16 81.8507 106.243 81.8507 106.408 81.8507C105.995 81.1064 107.07 81.5199 106.987 80.7756C106.739 80.941 106.491 80.941 106.243 81.0237ZM107.98 78.708C108.062 78.6253 108.145 78.4599 108.062 78.3772C107.897 78.3772 107.814 78.4599 107.732 78.5426C107.814 78.5426 107.897 78.6253 107.98 78.708ZM135.189 3.9451C135.272 3.61429 135.189 3.53158 134.858 3.53158V3.9451H135.189ZM133.452 2.20835C133.618 1.96024 133.783 1.79483 133.866 1.62943C133.535 1.05051 133.121 0.471595 132.377 0.388893C132.708 0.885107 132.542 1.05052 132.625 1.54673C133.039 1.29862 132.956 1.87754 133.204 1.87754C133.369 1.96024 133.369 2.12564 133.452 2.20835ZM132.377 -7.46783C132.294 -7.46783 132.212 -7.46783 132.046 -7.63323C132.129 -7.46783 132.129 -7.38512 132.212 -7.30242C132.294 -7.30242 132.294 -7.38512 132.377 -7.46783ZM128.407 -12.5954C128.325 -12.5127 128.242 -12.5954 128.159 -12.5954C128.242 -12.5954 128.325 -12.5954 128.407 -12.5954C128.407 -12.5127 128.407 -12.5127 128.407 -12.5954ZM117.408 -24.2564C117.408 -24.091 117.573 -24.0083 117.573 -23.8429L117.821 -23.9256L117.656 -24.2564C117.573 -24.2564 117.491 -24.2564 117.408 -24.2564ZM118.318 -23.4294L118.566 -23.5121L118.483 -23.7602L118.235 -23.6775L118.318 -23.4294ZM117.573 -25.4142C117.904 -25.6623 117.987 -25.3315 118.318 -25.4969C118.318 -25.9105 117.491 -25.8277 117.573 -25.4142ZM117.573 -26.4067C117.491 -26.4894 117.491 -26.4894 117.573 -26.4067C116.912 -26.7375 116.085 -26.9029 115.506 -26.9029C115.671 -26.4894 115.506 -26.2413 115.588 -25.8277C116.085 -25.6623 116.829 -26.1586 117.077 -26.4067C117.408 -26.4067 117.573 -25.8277 118.069 -25.9105C117.821 -26.0759 117.739 -26.2413 117.573 -26.4067ZM115.754 -20.4521C115.588 -21.4445 114.431 -20.7002 114.017 -21.3618C113.852 -21.031 113.438 -20.9483 113.438 -20.4521C114.1 -20.3694 114.596 -20.0386 115.34 -19.9559C115.423 -20.204 115.423 -20.4521 115.754 -20.4521ZM108.393 -28.805C108.393 -28.7223 108.145 -28.5569 108.393 -28.3915C108.393 -28.5569 108.641 -28.7223 108.393 -28.805ZM106.491 -29.7148V-30.1283H106.078C106.078 -29.7975 106.16 -29.7148 106.491 -29.7148ZM105.003 -30.1283C105.416 -29.9629 105.416 -30.7072 105.003 -30.5418V-30.1283ZM101.694 -33.0229C101.694 -33.1883 101.777 -33.271 101.694 -33.3537L101.281 -33.271L101.364 -33.0229C101.529 -33.1056 101.612 -33.0229 101.694 -33.0229ZM97.4766 -33.4364C98.3036 -33.3537 99.2133 -33.271 99.8749 -33.1883C99.6268 -33.271 99.4614 -33.3537 99.296 -33.5191C98.1382 -33.0229 97.9728 -34.098 97.0631 -34.0153C97.0631 -33.9326 97.0631 -33.9326 97.0631 -33.9326C97.1458 -33.9326 97.1458 -33.8499 97.2285 -33.7672C97.3112 -33.6845 97.4766 -33.6845 97.4766 -33.4364ZM92.1836 -28.3088L92.4317 -28.3915L92.349 -28.6396L92.1009 -28.5569L92.1836 -28.3088ZM84.8231 -34.3461C84.8231 -34.5115 85.1539 -34.4288 85.0712 -34.7596H84.6577C84.7404 -34.5942 84.6577 -34.3461 84.8231 -34.3461ZM70.0194 -34.8423C70.1848 -34.6769 70.5156 -34.6769 70.5983 -35.0077C70.4329 -35.1731 70.0194 -35.1731 70.0194 -34.8423ZM70.2675 -34.4288C70.0194 -34.5115 69.7713 -34.3461 69.6886 -34.098C69.854 -34.1807 70.1021 -34.2634 70.2675 -34.3461V-34.4288ZM59.4335 -31.865C59.5162 -31.7823 59.6816 -31.7823 59.7643 -31.7823C59.6816 -31.7823 59.5989 -31.7823 59.5989 -31.865C59.5162 -31.865 59.5162 -31.865 59.4335 -31.865ZM38.9233 -19.7078C39.006 -19.7905 39.006 -19.8732 39.0887 -19.8732H38.9233V-19.7078ZM31.8936 -24.0083C31.8109 -23.9256 31.7282 -23.9256 31.6455 -23.9256V-23.7602C31.7282 -23.8429 31.8109 -23.9256 31.8936 -24.0083ZM20.3153 -16.1516C20.0672 -15.5727 19.7364 -15.1591 19.2402 -14.8283C19.4883 -14.8283 19.8191 -14.8283 20.0672 -14.9937C20.6461 -14.1667 21.0596 -15.3246 21.9693 -15.1591C22.5483 -15.9862 23.458 -16.5651 23.8715 -17.3921C23.9542 -17.5575 23.7061 -17.8883 24.1196 -17.971C24.2023 -17.8883 24.285 -17.8056 24.285 -17.971C24.0369 -17.8883 24.2023 -18.2191 24.4504 -18.4672C23.6234 -18.5499 23.7061 -17.8883 22.7137 -17.971C22.2174 -17.144 21.3077 -16.5651 20.3153 -16.1516ZM14.1126 -8.87377C13.9472 -9.03917 13.5337 -8.95647 13.5337 -8.62566C13.8645 -8.54296 14.1126 -8.62566 14.1126 -8.87377ZM13.2856 -8.29485C13.2029 -8.12945 13.1202 -8.04674 13.1202 -7.79864H13.5337C13.5337 -8.04674 13.6991 -8.46026 13.2856 -8.29485ZM15.3532 -6.3927C14.1953 -6.5581 13.7818 -4.98676 12.7067 -4.73865C12.7067 -4.40784 12.5413 -4.15974 12.2932 -3.91163C12.4586 -3.91163 12.5413 -3.91163 12.7067 -3.91163C12.7067 -3.91163 12.7067 -3.99433 12.7067 -4.07703C13.8645 -4.07703 13.3683 -5.31757 14.8569 -4.98676C15.0223 -5.23487 15.105 -5.40027 15.1877 -5.56567C15.1877 -5.81378 15.1877 -6.14459 15.3532 -6.3927ZM10.5564 -1.43056C10.3083 -1.67866 9.9775 -1.76136 9.56399 -1.76136V-1.26515C9.15048 -0.85164 7.99264 -0.686235 7.49643 -0.107319C7.41373 0.0580858 7.49643 0.471597 7.24832 0.802406C7.00022 1.21592 6.504 1.54673 6.25589 1.96024C6.3386 2.04294 6.4213 2.04294 6.504 2.12564C6.4213 2.12564 6.3386 2.12564 6.25589 2.12564C6.25589 2.29105 6.25589 2.45646 6.3386 2.62186C5.18076 3.11807 6.4213 4.0278 6.504 4.77212C7.24832 4.0278 8.07535 3.20078 8.65426 2.29105C9.15048 2.20835 8.98507 1.71213 9.64669 1.62943C9.8121 1.46402 9.48129 1.13322 9.72939 1.05051C10.8045 0.802407 10.4737 -0.603534 11.5488 -0.272724C11.4661 -0.768938 11.3834 -1.01704 12.0451 -1.26515C12.0451 -1.34785 12.0451 -1.34785 12.0451 -1.43056L11.9624 -1.67867C11.4661 -1.67867 10.9699 -1.84407 10.5564 -1.43056ZM4.02293 47.6946C3.36131 47.86 3.94023 48.439 4.18833 48.6044C4.18833 48.5217 4.18833 48.3563 4.18833 48.2736C4.18833 48.1081 4.10563 47.86 4.02293 47.6946ZM4.02293 49.3487C4.10563 49.4314 4.18833 49.4314 4.18833 49.4314C4.10563 49.3487 4.10563 49.1833 4.02293 49.1006C4.02293 49.1833 4.02293 49.266 4.02293 49.3487ZM5.01536 51.0027C5.09806 51.3335 4.76725 51.4989 4.93266 51.8298C5.01536 51.8298 5.18076 51.9125 5.26346 51.9952C6.09049 51.7471 5.42887 51.1681 5.01536 51.0027ZM6.17319 54.3108H5.92508C6.17319 54.7243 6.3386 55.0552 6.5867 55.386C6.5867 55.2206 6.5867 55.0552 6.6694 54.9725C6.25589 54.9725 6.17319 54.7243 6.00779 54.4762C6.09049 54.4762 6.09049 54.3935 6.17319 54.3108ZM7.99264 57.2881C7.99264 57.5362 7.66183 57.2054 7.41373 56.7092C7.49643 57.1227 7.49643 57.4535 7.49643 57.867C7.90994 58.1151 7.90994 57.867 8.57156 57.867V57.7843C8.40615 57.7016 8.15805 57.7016 8.07535 57.6189C8.07535 57.6189 7.99264 57.6189 7.90994 57.5362C7.90994 57.4535 7.99264 57.3708 7.99264 57.2881ZM31.3147 83.9183C31.3147 84.2491 31.3974 84.4145 31.5628 84.4145C31.6455 84.2491 31.8109 84.1664 31.7282 83.9183H31.3147ZM31.7282 83.6702C31.7282 83.5875 31.6455 83.5875 31.5628 83.5048C31.6455 83.5875 31.6455 83.6702 31.7282 83.6702ZM34.3747 86.8129C34.2093 86.482 33.8785 86.2339 33.5477 86.1512C33.6304 86.3993 33.465 86.6474 33.7131 86.9783C33.8785 86.8129 34.1266 86.7301 34.3747 86.8129ZM54.8022 94.0907C54.8022 94.2561 54.7195 94.4215 54.7195 94.5042C55.2984 94.4215 55.7946 94.835 56.2081 94.5042C56.2081 94.6696 56.2908 94.835 56.3735 94.9177C56.787 94.9177 57.2005 94.9177 57.6968 94.835C56.787 94.3388 55.6292 94.4215 54.8022 94.0907ZM58.8546 94.1734C58.5238 94.4215 58.193 94.5869 57.7795 94.7523C58.1103 94.6696 58.6065 94.4215 58.8546 94.1734ZM117.491 83.5875C117.408 83.5875 117.408 83.5875 117.491 83.5875ZM129.73 67.2951C129.813 67.2951 129.979 67.2951 130.144 67.2124C130.144 67.2124 130.144 67.2124 130.144 67.1297C130.061 67.1297 129.896 67.2124 129.73 67.2951ZM133.204 60.1C133.039 60.1827 132.873 60.3481 132.79 60.5962C132.956 60.4308 133.121 60.2654 133.204 60.1ZM136.595 56.7092C136.264 57.2881 135.85 57.7843 135.272 58.2805L136.099 58.3632V58.2805C136.347 57.867 137.339 57.04 136.595 56.7092ZM143.046 51.4989C143.211 51.9952 142.301 51.5816 143.046 51.4989ZM143.376 43.5595C143.294 43.8076 143.542 43.8076 143.707 43.7249C143.79 43.7249 143.79 43.6422 143.79 43.6422C143.707 43.5595 143.707 43.5595 143.624 43.4768L143.376 43.5595ZM148.421 36.5298C148.421 36.4471 148.339 36.4471 148.256 36.4471C148.256 36.5298 148.339 36.5298 148.421 36.5298ZM149.083 42.4017C149.083 42.1536 149.248 41.9055 149.496 41.6574C149.414 41.5747 149.414 41.5747 149.414 41.492C149.331 41.4093 149.166 41.4093 149.083 41.4093C149 41.5747 148.917 41.8228 148.835 42.0709C148.752 42.2363 148.835 42.4017 149.083 42.4017ZM149.331 28.9212C149.414 29.0866 149.414 29.252 149.496 29.4174C149.579 29.4174 149.744 29.4174 149.827 29.4174C149.827 29.1693 149.662 29.1693 149.662 28.9212H149.331ZM106.987 -30.1283C106.822 -29.7148 107.484 -29.6321 107.732 -29.9629C107.566 -30.0456 107.484 -30.1283 107.318 -30.211C107.318 -30.1283 107.07 -30.1283 106.987 -30.1283ZM83.0864 -36.9099C83.0037 -36.9099 82.8383 -36.9099 82.8383 -36.9099H83.0864ZM75.4778 -36.5791C75.2297 -36.7445 74.9815 -36.8272 74.7334 -36.7445C74.4026 -36.4137 73.9891 -36.2482 73.4929 -36.2482C73.5756 -36.1655 73.741 -36.0828 73.741 -35.9174C74.0718 -36.4137 75.3951 -35.9174 75.4778 -36.5791ZM63.8994 -33.6845C63.4032 -33.4364 62.8243 -33.271 62.3281 -33.1056C62.9897 -33.0229 63.8167 -32.8574 64.4783 -32.5266C64.6438 -32.6093 64.7265 -32.7747 64.8919 -32.8574C64.8092 -33.4364 64.3129 -33.5191 63.8994 -33.6845ZM53.5616 -30.3764C53.5616 -30.4591 53.4789 -30.6245 53.3135 -30.7072C52.9827 -30.6245 52.7346 -30.4591 52.4865 -30.211C52.7346 -30.2937 53.2308 -30.3764 53.5616 -30.3764ZM16.0148 -12.9262V-12.5127H16.2629C16.2629 -12.5954 16.4283 -12.6781 16.4283 -12.7608C16.2629 -12.8435 16.2629 -12.9262 16.0148 -12.9262ZM5.42887 -4.40784C5.34617 -4.65595 5.34617 -4.90406 5.01536 -4.98676C4.76725 -4.73865 4.60185 -4.40784 4.51915 -4.07703C4.76725 -3.99433 5.18076 -4.24244 5.42887 -4.40784ZM3.0305 45.6271C3.0305 45.1309 2.8651 44.6346 2.69969 44.1384C2.69969 44.3038 2.61699 44.4692 2.53429 44.5519C2.78239 44.8828 2.9478 45.2136 3.0305 45.6271ZM-0.360294 5.68185C-0.360294 5.59914 -0.360294 5.43374 -0.442997 5.35104C-0.442997 5.51644 -0.442997 5.59914 -0.525699 5.68185C-0.442997 5.68185 -0.442996 5.68185 -0.360294 5.68185ZM3.19591 46.4541C3.19591 46.7022 3.19591 46.8676 3.27861 47.1157C3.36131 47.1157 3.36131 47.1984 3.44401 47.1984C3.60942 46.9503 3.36131 46.7022 3.19591 46.4541ZM17.5861 73.6632C17.6688 73.7459 17.7515 73.8286 17.8342 73.9113C18.0823 73.8286 18.2477 73.6632 18.2477 73.5805C18.0823 73.4978 17.8342 73.5805 17.5861 73.6632ZM22.631 78.1291C23.6234 78.0464 24.1196 78.8734 24.6158 79.7832C24.9466 80.0313 25.3601 80.2794 25.7736 80.6102C26.0218 80.6102 26.1045 80.7756 26.2699 81.0237C26.4353 81.1891 26.6007 81.3545 26.7661 81.6026C27.1796 81.768 27.5104 81.6026 27.5931 82.0161C27.6758 82.1815 27.7585 82.4296 27.8412 82.6777C28.0066 82.3469 28.3374 82.9258 28.6682 82.8431C27.2623 80.6102 26.3526 78.5426 24.6985 76.8059C24.6985 76.3096 24.2023 76.3097 24.285 75.8134C24.2023 75.648 23.7061 75.8134 23.7061 75.5653C23.7061 74.5729 22.2174 74.4075 22.7137 73.6632L22.631 73.5805C22.2174 73.4978 21.9693 73.4978 21.8866 72.8362H21.4731C21.3904 73.3324 21.0596 73.6632 21.3077 74.1594C20.7288 74.4075 20.6461 75.0691 20.4807 75.7307C20.6461 75.648 20.6461 75.3999 20.9769 75.3999C21.3077 76.7232 22.3829 76.8059 22.631 78.1291ZM43.5547 87.061L43.6374 87.1437C43.6374 87.061 43.6374 87.061 43.6374 87.061H43.5547ZM99.296 92.1885C98.7998 92.1885 98.7998 92.4366 98.9652 92.7674C99.1306 92.7674 99.296 92.7674 99.4614 92.6847L99.296 92.1885ZM100.206 92.0231H100.371C100.702 92.0231 101.115 91.8577 101.033 91.5269C100.619 91.5269 100.288 91.775 100.206 92.0231ZM107.401 89.6247C107.566 89.6247 107.732 89.542 107.814 89.4593V89.3766C107.649 89.3766 107.649 89.2112 107.566 89.0458C107.153 89.1285 107.401 89.3766 107.401 89.6247ZM129.73 -20.9483C129.813 -21.1964 129.648 -21.4445 129.4 -21.5272C129.482 -21.2791 129.565 -21.1137 129.73 -20.9483ZM104.258 -36.5791C104.093 -36.5791 103.927 -36.4964 103.845 -36.3309C103.927 -36.3309 103.927 -36.2482 104.01 -36.2482C104.093 -36.3309 104.258 -36.4137 104.258 -36.5791ZM75.1469 -40.7969L74.8988 -40.7142L74.9815 -40.4661L75.2297 -40.5488L75.1469 -40.7969ZM40.2466 -33.5191C40.1639 -33.9326 39.4195 -33.7672 39.5022 -33.4364C39.6676 -33.3537 39.9157 -33.4364 40.2466 -33.5191ZM19.3229 -23.264L19.0748 -23.1813L19.1575 -22.9332L19.4056 -23.0159L19.3229 -23.264ZM18.4131 -22.0234C18.165 -21.9407 17.6688 -21.9407 17.9996 -21.6099C18.165 -21.6099 18.4958 -21.6926 18.4131 -22.0234ZM7.74454 -9.20458C7.24832 -9.12187 7.33102 -8.79107 7.00022 -8.95647C7.00022 -8.62566 6.91751 -8.29485 6.83481 -7.96404C7.08292 -8.12945 7.33102 -8.37755 7.08292 -8.70836C8.15805 -8.79106 7.90994 -9.8662 8.81967 -10.1143C8.57156 -10.2797 8.48886 -10.4451 8.48886 -10.6105C7.90994 -10.3624 7.66183 -9.78349 7.74454 -9.20458ZM5.84238 -6.80621C5.75968 -6.80621 5.75968 -6.72351 5.75968 -6.72351C5.75968 -6.6408 5.75968 -6.4754 5.75968 -6.3927C5.84238 -6.5581 5.84238 -6.6408 5.84238 -6.80621ZM-1.10462 6.17806C-1.18732 6.26076 -1.35272 6.26076 -1.51813 6.34346C-1.43543 6.83968 -1.51813 7.00509 -1.18732 7.3359C-1.10462 7.25319 -1.02191 7.25319 -0.939211 7.17049C-0.691104 6.92238 -0.608402 6.42617 -0.856509 6.17806C-1.18732 6.17806 -0.773806 6.75698 -1.27002 6.59157C-1.18732 6.42617 -1.18732 6.34346 -1.10462 6.17806ZM-1.84894 8.65913C-1.93164 8.82453 -2.01434 8.98994 -1.93164 9.23805C-1.93164 9.07264 -1.93164 8.82453 -1.84894 8.65913ZM-3.66839 13.704C-3.83379 13.7867 -4.0819 13.7867 -3.9992 13.9521C-3.9165 13.9521 -3.83379 13.9521 -3.83379 14.0348C-3.66839 13.9521 -3.50298 13.8694 -3.66839 13.704ZM-3.9165 39.4244C-3.9165 39.5071 -3.83379 39.6725 -3.66839 39.7552C-3.75109 39.5898 -3.83379 39.4244 -3.9165 39.4244ZM-0.112187 48.1082C-0.112187 48.1909 -0.112187 48.2736 -0.112187 48.2736H-0.0294847C-0.112187 48.1908 -0.112187 48.1909 -0.112187 48.1082ZM0.218622 51.4162C0.13592 51.0027 0.384027 50.92 0.797539 50.92C0.714836 50.7546 0.714836 50.6719 0.632134 50.5065C0.466729 50.5065 0.384027 50.5065 0.218622 50.5065C0.0532175 50.7546 -0.360294 51.3335 0.218622 51.4162ZM1.12835 60.2654H1.04565V60.0173H0.797539V60.2654H1.12835ZM0.880241 51.1681C0.797539 51.6644 1.21105 52.0779 1.37645 52.6568C1.45916 52.6568 1.45916 52.6568 1.54186 52.6568C1.54186 52.4087 1.54186 52.0779 1.45916 51.8298C1.21105 51.6644 1.04565 51.4162 0.880241 51.1681ZM1.21105 52.9049V53.3184H1.62456C1.62456 53.2357 1.62456 53.153 1.62456 53.0703C1.54186 52.9049 1.37646 52.9049 1.21105 52.9049ZM2.12078 61.6713C2.20348 61.3405 2.12078 61.1751 1.87267 61.1751C1.78997 61.4232 1.62456 61.8367 2.12078 61.6713ZM2.12078 55.5514C2.69969 55.9649 2.9478 56.7092 3.44401 57.2054C3.44401 57.04 3.52672 56.8746 3.60942 56.7092C3.60942 56.6265 3.60942 56.4611 3.52672 56.2957C3.44401 56.2957 3.44401 56.1303 3.44401 56.0476C3.19591 56.0476 3.19591 56.213 2.9478 56.2957C2.61699 55.9649 2.53429 55.5514 2.45159 55.1378C2.28618 55.3033 2.20348 55.386 2.12078 55.5514ZM5.34617 61.2578C5.34617 61.1751 5.34617 61.0097 5.51157 60.927C5.42887 60.927 5.34617 60.8443 5.34617 60.8443C5.18076 60.2654 5.01536 60.1827 5.18076 59.6865C5.09806 59.6038 5.01536 59.6038 4.93266 59.5211C4.76725 59.5211 4.68455 59.5211 4.51915 59.6038C4.51915 58.8595 3.94023 58.2805 3.69212 57.7016C3.27861 58.2805 4.10563 58.8595 3.85753 59.1903C3.19591 59.1903 3.94023 60.1 4.10563 60.5135C4.84995 60.1 4.68455 61.1751 5.34617 61.2578ZM16.6764 78.4599C17.4207 77.3848 15.3532 76.8059 15.105 75.648C14.9396 75.4826 14.5261 75.3999 14.4434 75.1518C14.5261 74.6556 13.8645 74.821 14.0299 74.2421C13.3683 74.0767 12.7894 73.8286 12.7894 73.0843C12.7067 72.9189 12.2105 73.0843 12.2105 72.8362C12.0451 72.0091 10.9699 71.9264 10.9699 70.934C9.8948 70.6032 9.64669 69.6108 8.81967 69.1145C8.90237 69.8589 9.15048 70.5205 9.48129 71.1821C11.218 71.6783 10.0602 73.994 12.0451 74.2421C11.9624 74.6556 12.3759 74.7383 12.0451 74.9864C13.1202 75.2345 14.0299 75.9788 14.1126 76.6405C15.4359 76.8059 15.684 77.9637 16.6764 78.4599ZM18.5785 79.7832C18.4958 80.2794 18.6612 80.5275 19.1575 80.5275C19.0748 80.1967 18.8266 79.9486 18.5785 79.7832ZM26.8488 86.8955C27.5104 87.2264 28.4201 88.6323 29.1644 87.9707C28.9163 87.9707 28.7509 87.888 28.5855 87.7226C28.5855 87.6399 28.6682 87.4745 28.6682 87.3918C28.172 87.2264 27.5104 87.2264 27.4277 86.3993C26.9315 86.7302 26.8488 86.7301 26.4353 86.3166C26.6007 86.0685 26.4353 86.0685 26.9315 86.0685C26.6007 85.4896 25.6909 85.9031 25.1947 85.655C25.112 85.3242 24.9466 84.9934 24.6158 84.828C24.3677 84.9107 24.1196 85.1588 24.1196 85.4896C25.112 85.5723 25.6082 85.9858 25.6082 86.8955C26.2699 86.9782 26.4353 87.061 26.8488 86.8955ZM33.1342 91.3615C33.1342 91.2788 33.1342 91.1961 33.2169 91.1961C33.2169 91.0307 33.2169 90.8653 32.9688 90.948C33.0515 91.1134 32.9688 91.3615 33.1342 91.3615ZM69.854 99.7971H70.0194C70.0194 99.7144 69.9367 99.6317 69.9367 99.549H69.854H69.7713L69.854 99.7971ZM78.9513 99.3836L79.1994 99.3009C79.1994 99.2182 79.1167 99.1355 79.1167 99.0528L78.8686 99.1355L78.9513 99.3836ZM131.054 78.9561C131.467 79.2042 131.467 78.3772 131.054 78.5426V78.9561ZM133.121 76.3097C133.121 76.3924 133.204 76.4751 133.369 76.4751C133.535 76.4751 133.7 76.3924 133.7 76.227C133.618 76.227 133.535 76.2269 133.452 76.1442C133.369 76.2269 133.204 76.227 133.121 76.3097ZM146.436 60.0173C146.602 59.9346 146.684 59.8519 146.684 59.6865C146.602 59.7692 146.519 59.8519 146.436 60.0173Z" fill="white"/>
</svg>
