<svg width="72" height="34" viewBox="0 0 72 34" fill="none" xmlns="http://www.w3.org/2000/svg">
<rect width="71.8125" height="34" fill="#1D1D1B"/>
<path d="M23.3594 24.1406C21.9473 24.1406 20.9277 23.7891 20.3008 23.0859C19.6797 22.3828 19.3691 21.2637 19.3691 19.7285V18.2168H22.4277V20.1504C22.4277 20.5078 22.4805 20.7891 22.5859 20.9941C22.6973 21.1934 22.8877 21.293 23.1572 21.293C23.4385 21.293 23.6318 21.2109 23.7373 21.0469C23.8486 20.8828 23.9043 20.6133 23.9043 20.2383C23.9043 19.7637 23.8574 19.3682 23.7637 19.0518C23.6699 18.7295 23.5059 18.4248 23.2715 18.1377C23.043 17.8447 22.7236 17.5049 22.3135 17.1182L20.9248 15.7998C19.8877 14.8213 19.3691 13.7021 19.3691 12.4424C19.3691 11.124 19.6738 10.1191 20.2832 9.42773C20.8984 8.73633 21.7861 8.39062 22.9463 8.39062C24.3643 8.39062 25.3691 8.76855 25.9609 9.52441C26.5586 10.2803 26.8574 11.4287 26.8574 12.9697H23.7109V11.9062C23.7109 11.6953 23.6494 11.5312 23.5264 11.4141C23.4092 11.2969 23.248 11.2383 23.043 11.2383C22.7969 11.2383 22.6152 11.3086 22.498 11.4492C22.3867 11.584 22.3311 11.7598 22.3311 11.9766C22.3311 12.1934 22.3896 12.4277 22.5068 12.6797C22.624 12.9316 22.8555 13.2217 23.2012 13.5498L24.9854 15.2637C25.3428 15.6035 25.6709 15.9639 25.9697 16.3447C26.2686 16.7197 26.5088 17.1592 26.6904 17.6631C26.8721 18.1611 26.9629 18.7705 26.9629 19.4912C26.9629 20.9443 26.6934 22.084 26.1543 22.9102C25.6211 23.7305 24.6895 24.1406 23.3594 24.1406ZM31.8714 24.1406C30.6351 24.1406 29.6888 23.7686 29.0325 23.0244C28.3821 22.2744 28.057 21.1934 28.057 19.7812V12.4336C28.057 11.1094 28.3792 10.1045 29.0238 9.41895C29.6741 8.7334 30.6234 8.39062 31.8714 8.39062C33.1195 8.39062 34.0657 8.7334 34.7103 9.41895C35.3607 10.1045 35.6859 11.1094 35.6859 12.4336V19.7812C35.6859 21.1934 35.3577 22.2744 34.7015 23.0244C34.0511 23.7686 33.1077 24.1406 31.8714 24.1406ZM31.8978 21.293C32.3665 21.293 32.6009 20.8389 32.6009 19.9307V12.3809C32.6009 11.6191 32.3724 11.2383 31.9154 11.2383C31.3997 11.2383 31.1419 11.6279 31.1419 12.4072V19.9482C31.1419 20.4287 31.2005 20.7744 31.3177 20.9854C31.4349 21.1904 31.6282 21.293 31.8978 21.293ZM37.1139 24V8.53125H40.2077V21.3633H43.3893V24H37.1139ZM44.4482 24V8.53125H48.7021C49.8154 8.53125 50.6533 8.8418 51.2158 9.46289C51.7783 10.0781 52.0595 10.9805 52.0595 12.1699V19.4121C52.0595 20.877 51.8017 22.0078 51.2861 22.8047C50.7763 23.6016 49.8798 24 48.5966 24H44.4482ZM47.5595 21.2666H48.0957C48.664 21.2666 48.9482 20.9912 48.9482 20.4404V12.46C48.9482 11.9443 48.8779 11.6133 48.7373 11.4668C48.6025 11.3145 48.3242 11.2383 47.9023 11.2383H47.5595V21.2666Z" fill="white"/>
</svg>
