<svg width="115" height="19" viewBox="0 0 115 19" fill="none" xmlns="http://www.w3.org/2000/svg">
<g clip-path="url(#clip0_102153_2)">
<path d="M11.0699 0.277488C11.1219 0.219488 11.1029 0.0474883 11.1109 0.000488281C11.0189 0.170488 11.0729 0.326488 11.0699 0.277488Z" fill="#FBED81"/>
<path d="M10.2808 1.89233L10.2178 2.27533L10.2878 1.99433L10.2808 1.89233Z" fill="#FBED81"/>
<path d="M9.96516 2.61195L10.0152 2.64795L9.97816 2.29395C9.81716 2.60595 9.69216 3.11695 9.53516 3.22595C9.76916 3.40595 9.77616 2.72495 9.96516 2.61195Z" fill="#FBED81"/>
<path d="M8.81578 3.19385C8.8027 3.19714 8.78927 3.19882 8.77578 3.19885C8.74605 3.24704 8.71262 3.29285 8.67578 3.33585C8.79278 3.39285 8.65378 3.58585 8.81578 3.19385Z" fill="#FBED81"/>
<path d="M8.77395 3.199C8.64395 3.209 8.86195 3.043 8.77395 3.199V3.199Z" fill="#FBED81"/>
<path d="M8.40573 3.94351L8.44073 3.66051C8.36273 3.64451 8.24073 3.81251 8.24073 3.70551C8.16173 3.96151 8.24773 3.96851 8.40573 3.94351Z" fill="#FBED81"/>
<path d="M8.49907 4.16477C8.46607 4.15977 8.44107 4.17877 8.47907 4.29777L8.49907 4.16477Z" fill="#FBED81"/>
<path d="M8.52702 4.04142C8.58902 4.12942 8.54302 4.02042 8.54702 3.87842L8.49902 4.16542C8.55102 4.17442 8.63402 4.25042 8.52702 4.04142Z" fill="#FBED81"/>
<path d="M8.84432 3.91651C9.02032 3.52751 8.84432 3.38851 8.65332 3.79351C8.76832 3.74251 8.87532 3.64451 8.84432 3.91651Z" fill="#FBED81"/>
<path d="M9.68088 3.5888L9.79888 3.5498V3.3418C9.80088 3.4488 9.62188 3.5058 9.68088 3.5888Z" fill="#FBED81"/>
<path d="M7.86011 5.15283V5.43183C7.96611 5.24683 7.93611 5.18383 7.86011 5.15283Z" fill="#FBED81"/>
<path d="M8.73801 4.58582C8.73267 4.41782 8.73267 4.24582 8.73801 4.06982C8.72201 4.26982 8.71201 4.46182 8.70801 4.65082L8.73801 4.58582Z" fill="#FBED81"/>
<path d="M8.33681 4.77319L8.1748 5.05219L8.24981 4.95219L8.33681 4.77319Z" fill="#FBED81"/>
<path d="M7.74119 5.05016C7.71928 5.06874 7.69296 5.08135 7.66475 5.08678C7.63655 5.09221 7.60742 5.09028 7.58019 5.08116C7.63519 5.13216 7.78019 5.11716 7.86319 5.15316L7.87019 4.96216C7.83719 4.98116 7.79819 5.01116 7.75819 5.03816C7.79619 4.90216 7.61419 4.83816 7.68519 4.74316C7.55209 4.80986 7.44152 4.91418 7.36719 5.04316C7.42291 5.00635 7.4885 4.9873 7.55527 4.98855C7.62205 4.9898 7.68688 5.01129 7.74119 5.05016Z" fill="#FBED81"/>
<path d="M7.21484 5.22197C7.27203 5.16816 7.32301 5.10812 7.36684 5.04297C7.3035 5.09059 7.25157 5.15174 7.21484 5.22197Z" fill="#FBED81"/>
<path d="M7.37891 5.84815L7.60191 5.85615L7.64591 5.77415C7.59873 5.76411 7.54983 5.76559 7.50335 5.77848C7.45687 5.79136 7.41418 5.81526 7.37891 5.84815Z" fill="#FBED81"/>
<path d="M7.59983 5.85596L7.54883 5.94596H7.55483L7.60683 5.85996L7.59983 5.85596Z" fill="#FBED81"/>
<path d="M7.65626 5.75317L7.64526 5.77417C7.66726 5.77517 7.67526 5.77317 7.65626 5.75317Z" fill="#FBED81"/>
<path d="M8.31471 5C8.31938 5.10517 8.33582 5.20949 8.36371 5.311C8.36855 5.32176 8.37424 5.33213 8.38071 5.342L8.06271 5.573C8.01371 5.555 7.94271 5.546 7.92671 5.466V5.666L7.55371 5.937V5.943L7.93071 5.669V5.769L8.07971 5.576L8.06571 5.571L8.38271 5.341C8.41771 5.394 8.47671 5.414 8.58271 5.36C8.51071 5.2 8.35871 5.281 8.31471 5Z" fill="#FBED81"/>
<path d="M7.93513 5.90919V5.77319L7.88013 5.84519L7.93513 5.90919Z" fill="#FBED81"/>
<path d="M7.68367 5.52346C7.69167 5.45846 7.72667 5.33646 7.59967 5.36346C7.52631 5.44655 7.42551 5.5005 7.31567 5.51546C7.43709 5.53811 7.56139 5.54081 7.68367 5.52346Z" fill="#FBED81"/>
<path d="M8.05023 5.35059L8.03223 5.36459C8.04723 5.37959 8.05723 5.38359 8.05023 5.35059Z" fill="#FBED81"/>
<path d="M6.21973 5.66848L6.24273 5.70248V5.66748L6.21973 5.66848Z" fill="#FBED81"/>
<path d="M7.7083 5.55337C7.8083 5.57937 7.8503 5.52237 7.8923 5.45337C7.82571 5.48502 7.75503 5.50724 7.6823 5.51937C7.6803 5.54937 7.6813 5.56837 7.7083 5.55337Z" fill="#FBED81"/>
<path d="M6.9231 5.36066C6.97682 5.39596 7.03414 5.42546 7.0941 5.44866C7.0401 5.39166 6.9321 5.30566 6.9231 5.36066Z" fill="#FBED81"/>
<path d="M7.99306 5.31359L8.00506 5.30259C7.97006 5.26359 7.97606 5.28459 7.99306 5.31359Z" fill="#FBED81"/>
<path d="M7.99356 5.31348C7.95326 5.35475 7.91953 5.40197 7.89355 5.45348C7.94424 5.43122 7.99113 5.40119 8.03255 5.36448C8.0175 5.34915 8.0044 5.33202 7.99356 5.31348Z" fill="#FBED81"/>
<path d="M6.63821 5.66543L6.71921 5.62943C6.59259 5.58981 6.47873 5.51735 6.38921 5.41943C6.26121 5.53143 6.24221 5.60443 6.24121 5.66843L6.66221 5.63343L6.63821 5.66543Z" fill="#FBED81"/>
<path d="M7.1007 5.57357C7.0637 5.78657 6.8727 5.90257 7.0297 6.10357C7.2767 6.05357 7.1797 5.90857 7.3157 5.80357C6.9207 5.91257 7.4157 5.67357 7.1077 5.60357C7.17274 5.56474 7.24317 5.53576 7.3167 5.51757C7.24119 5.50414 7.16718 5.48337 7.0957 5.45557L7.1067 5.46657C7.1277 5.48957 7.1357 5.50457 7.1147 5.49257C7.1147 5.49257 7.1087 5.49257 7.1067 5.49757C7.10765 5.52409 7.1053 5.55063 7.0997 5.57657C6.9777 5.55157 7.0737 5.52757 7.1067 5.49757V5.46657L6.7207 5.63557C6.85033 5.64209 6.97987 5.62095 7.1007 5.57357Z" fill="#FBED81"/>
<path d="M8.84288 5.81429C8.82641 5.81488 8.81022 5.80995 8.79688 5.80029C8.80587 5.83829 8.81588 5.85629 8.84288 5.81429Z" fill="#FBED81"/>
<path d="M8.18594 5.85302L8.13794 5.84302C8.13994 5.85202 8.15894 5.85402 8.18594 5.85302Z" fill="#FBED81"/>
<path d="M8.18579 5.85222C8.34171 5.89081 8.50228 5.9073 8.66279 5.90122C8.65179 5.85922 8.59379 5.79322 8.65679 5.71422C8.74679 5.66922 8.73879 5.76822 8.79779 5.80022C8.77779 5.71922 8.76979 5.52922 8.59779 5.64622L8.60779 5.68822C8.48261 5.77649 8.33773 5.83279 8.18579 5.85222Z" fill="#FBED81"/>
<path d="M8.0876 5.93896L7.7666 6.08696L7.9666 6.23796L7.9426 6.13796C8.1356 6.14696 8.0756 6.02296 8.0876 5.93896Z" fill="#FBED81"/>
<path d="M6.17832 5.35254L6.02832 5.68354L6.16432 5.57354L6.17832 5.35254Z" fill="#FBED81"/>
<path d="M5.725 5.47461L5.625 5.60361L5.735 5.66261L5.725 5.47461Z" fill="#FBED81"/>
<path d="M5.23243 13.4208L5.44343 13.4118C5.43436 13.3696 5.43611 13.3259 5.44853 13.2846C5.46095 13.2434 5.48362 13.2059 5.51443 13.1758C5.31643 13.2848 5.02043 13.4028 5.23243 13.4208Z" fill="#FBED81"/>
<path d="M3.30273 9.16749C3.32364 9.27917 3.37058 9.38435 3.43973 9.47449C3.41373 9.28449 3.45073 9.07249 3.30273 9.16749Z" fill="#FBED81"/>
<path d="M14.6416 17.2458C14.6683 17.2476 14.695 17.2419 14.7187 17.2294C14.7424 17.2168 14.7621 17.1979 14.7756 17.1748C14.7036 17.1768 14.6536 17.1948 14.6416 17.2458Z" fill="#FBED81"/>
<path d="M3.69845 9.72612C3.69845 9.69612 3.68845 9.67412 3.68545 9.64512C3.59031 9.60984 3.50567 9.55101 3.43945 9.47412C3.45845 9.61512 3.51045 9.74312 3.69845 9.72612Z" fill="#FBED81"/>
<path d="M11.9462 1.71871C11.9224 1.66236 11.8849 1.61285 11.8372 1.57471C11.8774 1.61962 11.9139 1.66778 11.9462 1.71871Z" fill="#FBED81"/>
<path d="M3.97168 5.82322C3.98268 5.79822 4.06168 5.79622 3.97168 5.82322V5.82322Z" fill="#FBED81"/>
<path d="M4.12407 5.89993C4.08417 5.87923 4.04134 5.86473 3.99707 5.85693C4.03728 5.8769 4.08 5.89137 4.12407 5.89993Z" fill="#FBED81"/>
<path d="M4.09082 5.80721L4.17482 5.81521C4.18082 5.77921 4.16782 5.75621 4.09082 5.80721Z" fill="#FBED81"/>
<path d="M3.84473 5.8581C3.89495 5.8486 3.9465 5.8486 3.99673 5.8581C3.97673 5.8471 3.96773 5.8361 3.97173 5.8291L3.84473 5.8581Z" fill="#FBED81"/>
<path d="M19.4505 7.73083C19.5252 7.75256 19.6046 7.75256 19.6793 7.73083L20.4375 7.53105L19.3297 6.65402C18.951 6.35435 18.031 6.43126 17.9101 6.28442C17.7888 6.35086 17.6548 6.3905 17.5169 6.40066C17.379 6.41083 17.2406 6.39129 17.1109 6.34336C17.1758 6.41029 17.1748 6.72194 16.9271 6.64303C17.1119 6.02671 16.5025 6.3024 16.3636 5.81894C16.5025 6.14658 15.6314 5.78797 15.8571 6.25745C15.6573 6.17554 15.8791 6.01972 15.7403 5.84791C15.2018 6.01872 14.6543 5.52826 14.02 5.52027C14.007 5.57021 14.029 5.64313 14.02 5.72005C14.014 5.72005 14.008 5.72005 14.001 5.71106C13.8137 5.01201 13.4931 4.35571 13.0569 3.77818C12.6118 3.10952 12.2687 2.37829 12.039 1.60857C12.1059 1.92622 12.027 1.83332 11.9461 1.71745C11.988 1.83432 11.8941 1.91723 11.8761 2.04109C11.8042 1.77472 11.723 1.51068 11.6324 1.24897C11.5325 1.47172 11.2947 0.757507 11.2488 1.00823L11.3427 1.10812C11.2876 1.34773 11.2876 1.59671 11.3427 1.83632L11.1169 1.37782L8.60541 6.46623L6.91411 6.71195C6.92557 6.71073 6.93621 6.70541 6.94408 6.69697L6.9211 6.59708C6.81421 6.61906 6.75227 6.69697 6.8212 6.72993L6.5215 6.77389C6.67834 6.58909 6.46656 6.01972 6.24778 5.71006C6.25377 5.79197 6.26476 5.86688 6.07395 6.00973C6.16086 6.10063 6.56546 6.18154 6.41661 6.37533C6.15787 6.51118 6.18284 6.34236 6.03599 6.26245C6.16586 6.45324 5.83619 6.61107 5.83619 6.87677L4.17585 7.11851C4.17975 7.10366 4.17977 7.08806 4.17592 7.07319C4.17208 7.05833 4.16448 7.0447 4.15388 7.0336L4.00602 7.09154C3.8352 6.90874 4.25378 6.76789 4.04598 6.70097C4.2318 6.52716 4.4296 6.26844 4.73629 6.34136L4.83619 6.62205C4.823 6.59771 4.80436 6.57674 4.78173 6.56078C4.7591 6.54483 4.73308 6.53431 4.70572 6.53006C4.67836 6.5258 4.65038 6.52792 4.62397 6.53626C4.59757 6.54459 4.57344 6.55891 4.55348 6.5781C4.65338 6.43226 5.05297 6.90374 5.13289 6.50718L4.90013 6.33737C5.08594 6.16156 5.29973 5.81894 5.56846 5.87288C5.40962 5.60517 5.51351 5.91383 5.28274 5.60717C5.50152 5.99874 4.62241 5.68608 4.94009 6.08365C4.69633 5.72404 4.59144 5.96677 4.29873 5.6731C4.31971 5.76699 4.41162 5.84191 4.18884 5.82693C4.18107 5.85858 4.16932 5.88912 4.15388 5.91783H4.13789L4.15188 5.92782C4.14389 5.9438 4.14389 5.9458 4.15188 5.92782C4.20667 5.95773 4.252 6.00236 4.28275 6.05668C4.20682 6.29042 3.86217 6.33337 3.76327 6.46423C3.6284 6.43726 3.80123 6.34736 3.71631 6.25546L3.56746 6.45024C3.51951 6.24247 3.17586 6.15057 3.45957 5.98076L3.18685 6.01073C3.06812 5.94444 2.93038 5.92048 2.79624 5.9428L0.0090332 6.55812L2.039 8.27224C2.07742 8.30602 2.12385 8.3294 2.17386 8.34016C2.2348 8.46403 2.57346 8.3991 2.37366 8.44005L2.77326 8.64583L2.7383 8.68678C3.02401 9.00243 3.61142 9.04439 3.69034 9.65871C3.86474 9.715 4.01368 9.83103 4.11092 9.98635L4.01102 10.1512C4.18684 10.2331 4.27675 10.6686 4.46756 10.5857C4.26776 11.0801 5.03 11.2849 5.19983 11.5736L5.37665 11.4098C5.48802 11.5218 5.6182 11.6135 5.76126 11.6805C5.60642 12.0441 6.05397 12.5286 5.71031 12.8132C5.73581 12.8515 5.74548 12.8982 5.73728 12.9435C5.72908 12.9887 5.70366 13.0291 5.66636 13.056C5.66688 13.0465 5.66443 13.0371 5.65937 13.029C5.65466 13.0423 5.65132 13.056 5.64938 13.07C5.60642 13.1079 5.55647 13.1459 5.51351 13.1898C5.56324 13.1644 5.60819 13.1307 5.64638 13.0899C5.63744 13.1987 5.64758 13.3083 5.67635 13.4136L5.44258 13.4236V13.4515C5.34268 13.5514 5.53349 13.5604 5.71431 13.5295C5.74041 13.5937 5.7776 13.6529 5.8242 13.7043C5.44458 13.7342 5.89513 14.0269 5.48554 14.0858C5.66136 14.1957 5.5285 14.6852 5.91711 14.817C5.86416 14.817 5.83319 14.842 5.84118 14.7791C5.77325 14.8999 5.70632 15.0198 5.79923 15.1537H5.49953L5.83719 15.4993C5.63739 15.6391 5.51951 15.6921 5.3287 15.4853C5.59843 15.9508 5.39963 15.8379 5.67735 16.2415L5.49453 16.1925C5.48055 16.3174 5.69433 16.5581 5.5285 16.6061C5.47806 16.6348 5.43524 16.6752 5.40362 16.7239L4.85218 17.5231L6.40362 17.4461C6.85217 17.4242 7.58443 16.8108 8.28074 16.7739C7.89912 16.3484 8.69232 16.8378 8.5185 16.4442C8.6184 16.5441 8.74028 16.5601 8.68933 16.7149C8.95506 16.4303 9.27474 16.642 9.33168 16.2035C9.43158 16.3034 9.35166 16.4093 9.42059 16.4612C9.43358 16.4223 9.47054 16.3054 9.54147 16.3613C9.6124 16.4173 9.54147 16.4842 9.51949 16.5611C9.84217 16.3663 9.68733 15.9917 9.53548 15.6431C9.78823 15.713 9.86015 15.6431 9.86615 15.3624C9.98303 15.4413 10.1409 15.5043 9.95406 15.6531C10.0789 15.6082 10.7533 15.4404 10.6194 15.1657C10.6913 15.2146 10.7922 15.0997 10.8062 15.0528C10.9496 14.9969 11.09 14.9335 11.2268 14.863C11.5095 15.2126 11.4556 14.822 11.7622 15.3035L11.8432 15.0877C12.1149 14.6772 12.1229 15.5612 12.4805 15.5382L12.4436 15.3714C12.6693 15.3015 12.5435 16.1795 12.6673 16.3114C12.6803 16.3663 12.5844 16.3454 12.5245 16.3493C12.7792 16.8098 12.7133 16.1116 13.036 16.2035C13.015 16.3743 12.7762 16.5302 12.958 16.659C12.995 16.8248 13.7682 16.4932 13.8911 16.9077C13.8911 16.7669 13.8911 16.626 14.0679 16.6151C14.2947 16.685 14.4086 17.3233 14.7772 17.0756C14.7871 17.1107 14.7843 17.1482 14.7692 17.1814C14.974 17.1744 15.3606 17.3023 15.5544 17.1645C15.4815 17.4202 15.5834 17.5261 15.7403 17.577L17.4595 18.1314L16.948 16.7C16.8362 16.3863 16.4066 16.0307 16.8861 15.9508L16.7552 15.4164H16.8312C16.8335 15.2951 16.7955 15.1764 16.7232 15.079C16.6509 14.9816 16.5483 14.9109 16.4316 14.878C16.4665 14.7891 16.5434 14.837 16.5824 14.837C16.6404 14.3076 16.6014 14.2616 16.1718 13.899L16.3966 13.8151C16.2418 13.7232 16.6354 13.022 16.2797 12.5735C16.3209 12.5715 16.3614 12.5846 16.3936 12.6105C16.0579 12.145 16.6753 11.3299 16.1229 11.1441C16.2487 11.0502 16.3686 10.9443 16.4675 11.0542C17.1329 10.3749 17.966 9.90544 18.6194 9.29811L18.3037 9.1213L18.5394 8.92152C18.6543 8.92152 18.8082 9.03939 18.6393 9.18423C18.8601 9.24417 18.7902 8.80665 18.7392 8.74771C19.1478 8.54793 18.9011 9.15627 19.002 9.06936L19.1129 8.92452H19.0549C19.0609 8.72474 18.965 8.60387 19.1668 8.42507C19.3366 8.35714 19.3786 8.51897 19.4355 8.48201C19.4525 8.49999 19.4765 8.49299 19.5155 8.41808L19.8152 8.16635L19.5155 8.07845C19.5534 7.85669 19.7972 7.82773 19.4505 7.73083ZM6.20682 12.151L6.37365 12.103L6.24878 11.7754C6.40762 11.8833 6.63738 12.0671 6.87115 12.2668L6.78723 12.7583C6.54244 12.612 6.34187 12.4021 6.20682 12.151ZM6.07795 10.4528C6.0888 10.4166 6.10642 10.3827 6.12989 10.3529L6.36766 10.5857L6.1199 10.8494L6.40062 10.6187L6.63439 10.8454C6.50315 10.9881 6.35677 11.116 6.19783 11.227L6.15487 11.0931L6.1259 11.1471C6.07715 10.9181 6.06101 10.6834 6.07795 10.4498V10.4528ZM14.016 5.73703C14.0109 5.76102 14.0011 5.78379 13.9872 5.80401C13.9734 5.82423 13.9556 5.84153 13.9351 5.8549L13.7562 5.54823L14.016 5.73703ZM6.48654 6.77289L6.13689 6.82383C6.15609 6.79721 6.18039 6.77468 6.20838 6.75753C6.23637 6.74038 6.26749 6.72897 6.29993 6.72395C6.33237 6.71893 6.36548 6.72041 6.39734 6.72829C6.42921 6.73618 6.45919 6.75032 6.48554 6.76989L6.48654 6.77289ZM6.06496 6.82084V6.83482H6.04098L6.06496 6.82084ZM2.98804 6.16156L2.98205 6.17355C2.81822 6.10462 2.87616 6.13259 2.98705 6.15956L2.98804 6.16156ZM3.37566 8.49299C3.06397 8.32718 3.45158 8.20431 3.36966 8.20431C3.00703 7.7638 2.59444 8.20431 2.38365 7.89865L1.31372 6.33737L2.86117 6.42827C2.91497 6.43293 2.9678 6.44538 3.01801 6.46523C3.26277 6.68798 3.09993 6.96468 3.17286 7.14248C3.11183 7.17569 3.04217 7.18962 2.97306 7.18244L2.80223 7.16446L2.91812 7.35225C3.00303 7.4891 2.99304 7.66291 3.09394 7.75181L3.01302 7.50408C3.1359 7.50408 3.31272 7.58699 3.3327 7.70986C3.33456 7.67015 3.32631 7.63063 3.30872 7.59498L4.23879 8.50099C3.95825 8.59762 3.65289 8.59409 3.37466 8.491L3.37566 8.49299ZM5.13589 9.6687C5.18872 9.61915 5.22734 9.55638 5.24778 9.4869L5.44758 9.67869C5.34323 9.69981 5.23534 9.69571 5.13289 9.6667L5.13589 9.6687ZM6.30072 15.5992L6.26176 15.8289L5.88414 15.5293C6.0196 15.5678 6.15905 15.5905 6.29972 15.5972L6.30072 15.5992ZM9.52849 15.4433C9.46555 15.4204 9.45056 15.3105 9.44557 15.1696C9.43468 15.2024 9.42568 15.2358 9.4186 15.2695C9.38929 15.2626 9.36193 15.2491 9.33858 15.23C9.31522 15.211 9.29647 15.187 9.28373 15.1597L9.44257 15.0758V15.1756L9.48253 15.0568L9.55446 15.0188C9.62772 15.061 9.70345 15.0986 9.78123 15.1317L9.52849 15.4433ZM16.7333 15.6981C16.6893 15.7325 16.6526 15.7752 16.6254 15.8239L16.6114 15.786L16.7333 15.6981ZM15.7343 11.8193L15.7173 11.7884L15.8372 11.3768C15.4455 11.6665 15.6294 11.0602 15.3876 11.0971C15.4875 10.9283 15.9201 10.9403 15.7872 11.1341L15.7303 11.1291C15.7472 11.1659 15.7749 11.1966 15.8096 11.2173C15.8444 11.238 15.8847 11.2477 15.9251 11.245L15.7343 11.8193ZM19.3237 8.3941C19.3766 8.24926 19.3906 8.32018 19.4096 8.3941H19.3237Z" fill="#FBED81"/>
<path d="M4.9117 5.58643L4.7207 5.67543C4.75414 5.66768 4.78894 5.66809 4.82218 5.67662C4.85543 5.68514 4.88613 5.70154 4.9117 5.72443C4.8997 5.66843 4.8497 5.59943 4.9117 5.58643Z" fill="#FBED81"/>
<path d="M5.47605 6.36666C5.47605 6.09366 5.34205 6.20266 5.20605 6.31266C5.25005 6.50166 5.36605 6.41866 5.50105 6.36266C5.49301 6.36542 5.48456 6.36677 5.47605 6.36666Z" fill="#FBED81"/>
<path d="M5.66147 6.32855C5.66147 6.21955 5.60547 6.31355 5.53247 6.35155C5.57341 6.33501 5.61734 6.32718 5.66147 6.32855Z" fill="#FBED81"/>
<path d="M3.69077 6.0282C3.76477 6.0672 3.69677 5.7782 3.74577 5.8502C3.78477 5.5962 3.34577 6.2092 3.69077 6.0282Z" fill="#FBED81"/>
<path d="M5.41139 6.92627L5.32639 6.69727L5.27539 6.89727L5.41139 6.92627Z" fill="#FBED81"/>
<path d="M4.28041 6.91293L4.51441 6.94593C4.50541 6.90693 4.53041 6.87993 4.56341 6.85693C4.42341 6.86393 4.26441 6.84393 4.28041 6.91293Z" fill="#FBED81"/>
<path d="M4.56152 6.85799C4.62629 6.86 4.68921 6.83627 4.73652 6.79199C4.67466 6.80317 4.61536 6.82554 4.56152 6.85799Z" fill="#FBED81"/>
<path d="M3.81133 8.1615C3.72933 8.1615 3.64133 8.11951 3.61133 8.20251L3.83633 8.3265C3.91333 8.2855 3.89933 8.2025 3.81133 8.1615Z" fill="#FBED81"/>
<path d="M11.4402 0.680203L11.3252 0.408203L11.3932 0.681203L11.4402 0.680203Z" fill="#FBED81"/>
<path d="M11.2013 0.712281L11.1813 0.363281L11.1113 0.541281C11.16 0.586316 11.1918 0.646668 11.2013 0.712281Z" fill="#FBED81"/>
</g>
<g clip-path="url(#clip1_102153_2)">
<path d="M57.9449 0.277488C57.9969 0.219488 57.9779 0.0474883 57.9859 0.000488281C57.8939 0.170488 57.9479 0.326488 57.9449 0.277488Z" fill="#FBED81"/>
<path d="M57.1558 1.89233L57.0928 2.27533L57.1628 1.99433L57.1558 1.89233Z" fill="#FBED81"/>
<path d="M56.8402 2.61195L56.8902 2.64795L56.8532 2.29395C56.6922 2.60595 56.5672 3.11695 56.4102 3.22595C56.6442 3.40595 56.6512 2.72495 56.8402 2.61195Z" fill="#FBED81"/>
<path d="M55.6908 3.19385C55.6777 3.19714 55.6643 3.19882 55.6508 3.19885C55.6211 3.24704 55.5876 3.29285 55.5508 3.33585C55.6678 3.39285 55.5288 3.58585 55.6908 3.19385Z" fill="#FBED81"/>
<path d="M55.649 3.199C55.519 3.209 55.737 3.043 55.649 3.199V3.199Z" fill="#FBED81"/>
<path d="M55.2807 3.94351L55.3157 3.66051C55.2377 3.64451 55.1157 3.81251 55.1157 3.70551C55.0367 3.96151 55.1227 3.96851 55.2807 3.94351Z" fill="#FBED81"/>
<path d="M55.3741 4.16477C55.3411 4.15977 55.3161 4.17877 55.3541 4.29777L55.3741 4.16477Z" fill="#FBED81"/>
<path d="M55.402 4.04142C55.464 4.12942 55.418 4.02042 55.422 3.87842L55.374 4.16542C55.426 4.17442 55.509 4.25042 55.402 4.04142Z" fill="#FBED81"/>
<path d="M55.7193 3.91651C55.8953 3.52751 55.7193 3.38851 55.5283 3.79351C55.6433 3.74251 55.7503 3.64451 55.7193 3.91651Z" fill="#FBED81"/>
<path d="M56.5559 3.5888L56.6739 3.5498V3.3418C56.6759 3.4488 56.4969 3.5058 56.5559 3.5888Z" fill="#FBED81"/>
<path d="M54.7351 5.15283V5.43183C54.8411 5.24683 54.8111 5.18383 54.7351 5.15283Z" fill="#FBED81"/>
<path d="M55.613 4.58582C55.6077 4.41782 55.6077 4.24582 55.613 4.06982C55.597 4.26982 55.587 4.46182 55.583 4.65082L55.613 4.58582Z" fill="#FBED81"/>
<path d="M55.2118 4.77319L55.0498 5.05219L55.1248 4.95219L55.2118 4.77319Z" fill="#FBED81"/>
<path d="M54.6162 5.05016C54.5943 5.06874 54.568 5.08135 54.5398 5.08678C54.5116 5.09221 54.4824 5.09028 54.4552 5.08116C54.5102 5.13216 54.6552 5.11716 54.7382 5.15316L54.7452 4.96216C54.7122 4.98116 54.6732 5.01116 54.6332 5.03816C54.6712 4.90216 54.4892 4.83816 54.5602 4.74316C54.4271 4.80986 54.3165 4.91418 54.2422 5.04316C54.2979 5.00635 54.3635 4.9873 54.4303 4.98855C54.4971 4.9898 54.5619 5.01129 54.6162 5.05016Z" fill="#FBED81"/>
<path d="M54.0898 5.22197C54.147 5.16816 54.198 5.10812 54.2418 5.04297C54.1785 5.09059 54.1266 5.15174 54.0898 5.22197Z" fill="#FBED81"/>
<path d="M54.2539 5.84815L54.4769 5.85615L54.5209 5.77415C54.4737 5.76411 54.4248 5.76559 54.3784 5.77848C54.3319 5.79136 54.2892 5.81526 54.2539 5.84815Z" fill="#FBED81"/>
<path d="M54.4748 5.85596L54.4238 5.94596H54.4298L54.4818 5.85996L54.4748 5.85596Z" fill="#FBED81"/>
<path d="M54.5313 5.75317L54.5203 5.77417C54.5423 5.77517 54.5503 5.77317 54.5313 5.75317Z" fill="#FBED81"/>
<path d="M55.1897 5C55.1944 5.10517 55.2108 5.20949 55.2387 5.311C55.2436 5.32176 55.2492 5.33213 55.2557 5.342L54.9377 5.573C54.8887 5.555 54.8177 5.546 54.8017 5.466V5.666L54.4287 5.937V5.943L54.8057 5.669V5.769L54.9547 5.576L54.9407 5.571L55.2577 5.341C55.2927 5.394 55.3517 5.414 55.4577 5.36C55.3857 5.2 55.2337 5.281 55.1897 5Z" fill="#FBED81"/>
<path d="M54.8101 5.90919V5.77319L54.7551 5.84519L54.8101 5.90919Z" fill="#FBED81"/>
<path d="M54.5587 5.52346C54.5667 5.45846 54.6017 5.33646 54.4747 5.36346C54.4013 5.44655 54.3005 5.5005 54.1907 5.51546C54.3121 5.53811 54.4364 5.54081 54.5587 5.52346Z" fill="#FBED81"/>
<path d="M54.9252 5.35059L54.9072 5.36459C54.9222 5.37959 54.9322 5.38359 54.9252 5.35059Z" fill="#FBED81"/>
<path d="M53.0947 5.66848L53.1177 5.70248V5.66748L53.0947 5.66848Z" fill="#FBED81"/>
<path d="M54.5833 5.55337C54.6833 5.57937 54.7253 5.52237 54.7673 5.45337C54.7007 5.48502 54.63 5.50724 54.5573 5.51937C54.5553 5.54937 54.5563 5.56837 54.5833 5.55337Z" fill="#FBED81"/>
<path d="M53.7981 5.36066C53.8518 5.39596 53.9091 5.42546 53.9691 5.44866C53.9151 5.39166 53.8071 5.30566 53.7981 5.36066Z" fill="#FBED81"/>
<path d="M54.8681 5.31359L54.8801 5.30259C54.8451 5.26359 54.8511 5.28459 54.8681 5.31359Z" fill="#FBED81"/>
<path d="M54.8686 5.31348C54.8283 5.35475 54.7945 5.40197 54.7686 5.45348C54.8192 5.43122 54.8661 5.40119 54.9076 5.36448C54.8925 5.34915 54.8794 5.33202 54.8686 5.31348Z" fill="#FBED81"/>
<path d="M53.5132 5.66543L53.5942 5.62943C53.4676 5.58981 53.3537 5.51735 53.2642 5.41943C53.1362 5.53143 53.1172 5.60443 53.1162 5.66843L53.5372 5.63343L53.5132 5.66543Z" fill="#FBED81"/>
<path d="M53.9757 5.57357C53.9387 5.78657 53.7477 5.90257 53.9047 6.10357C54.1517 6.05357 54.0547 5.90857 54.1907 5.80357C53.7957 5.91257 54.2907 5.67357 53.9827 5.60357C54.0477 5.56474 54.1182 5.53576 54.1917 5.51757C54.1162 5.50414 54.0422 5.48337 53.9707 5.45557L53.9817 5.46657C54.0027 5.48957 54.0107 5.50457 53.9897 5.49257C53.9897 5.49257 53.9837 5.49257 53.9817 5.49757C53.9827 5.52409 53.9803 5.55063 53.9747 5.57657C53.8527 5.55157 53.9487 5.52757 53.9817 5.49757V5.46657L53.5957 5.63557C53.7253 5.64209 53.8549 5.62095 53.9757 5.57357Z" fill="#FBED81"/>
<path d="M55.7179 5.81429C55.7014 5.81488 55.6852 5.80995 55.6719 5.80029C55.6809 5.83829 55.6909 5.85629 55.7179 5.81429Z" fill="#FBED81"/>
<path d="M55.0609 5.85302L55.0129 5.84302C55.0149 5.85202 55.0339 5.85402 55.0609 5.85302Z" fill="#FBED81"/>
<path d="M55.0608 5.85222C55.2167 5.89081 55.3773 5.9073 55.5378 5.90122C55.5268 5.85922 55.4688 5.79322 55.5318 5.71422C55.6218 5.66922 55.6138 5.76822 55.6728 5.80022C55.6528 5.71922 55.6448 5.52922 55.4728 5.64622L55.4828 5.68822C55.3576 5.77649 55.2127 5.83279 55.0608 5.85222Z" fill="#FBED81"/>
<path d="M54.9626 5.93896L54.6416 6.08696L54.8416 6.23796L54.8176 6.13796C55.0106 6.14696 54.9506 6.02296 54.9626 5.93896Z" fill="#FBED81"/>
<path d="M53.0533 5.35254L52.9033 5.68354L53.0393 5.57354L53.0533 5.35254Z" fill="#FBED81"/>
<path d="M52.6 5.47461L52.5 5.60361L52.61 5.66261L52.6 5.47461Z" fill="#FBED81"/>
<path d="M52.1074 13.4208L52.3184 13.4118C52.3094 13.3696 52.3111 13.3259 52.3235 13.2846C52.3359 13.2434 52.3586 13.2059 52.3894 13.1758C52.1914 13.2848 51.8954 13.4028 52.1074 13.4208Z" fill="#FBED81"/>
<path d="M50.1777 9.16749C50.1986 9.27917 50.2456 9.38435 50.3147 9.47449C50.2887 9.28449 50.3257 9.07249 50.1777 9.16749Z" fill="#FBED81"/>
<path d="M61.5166 17.2458C61.5433 17.2476 61.57 17.2419 61.5937 17.2294C61.6174 17.2168 61.6371 17.1979 61.6506 17.1748C61.5786 17.1768 61.5286 17.1948 61.5166 17.2458Z" fill="#FBED81"/>
<path d="M50.5735 9.72612C50.5735 9.69612 50.5635 9.67412 50.5605 9.64512C50.4653 9.60984 50.3807 9.55101 50.3145 9.47412C50.3335 9.61512 50.3855 9.74312 50.5735 9.72612Z" fill="#FBED81"/>
<path d="M58.8212 1.71871C58.7974 1.66236 58.7599 1.61285 58.7122 1.57471C58.7524 1.61962 58.7889 1.66778 58.8212 1.71871Z" fill="#FBED81"/>
<path d="M50.8467 5.82322C50.8577 5.79822 50.9367 5.79622 50.8467 5.82322V5.82322Z" fill="#FBED81"/>
<path d="M50.9991 5.89993C50.9592 5.87923 50.9163 5.86473 50.8721 5.85693C50.9123 5.8769 50.955 5.89137 50.9991 5.89993Z" fill="#FBED81"/>
<path d="M50.9658 5.80721L51.0498 5.81521C51.0558 5.77921 51.0428 5.75621 50.9658 5.80721Z" fill="#FBED81"/>
<path d="M50.7197 5.8581C50.7699 5.8486 50.8215 5.8486 50.8717 5.8581C50.8517 5.8471 50.8427 5.8361 50.8467 5.8291L50.7197 5.8581Z" fill="#FBED81"/>
<path d="M66.3255 7.73083C66.4002 7.75256 66.4796 7.75256 66.5543 7.73083L67.3125 7.53105L66.2047 6.65402C65.826 6.35435 64.906 6.43126 64.7851 6.28442C64.6638 6.35086 64.5298 6.3905 64.3919 6.40066C64.254 6.41083 64.1156 6.39129 63.9859 6.34336C64.0508 6.41029 64.0498 6.72194 63.8021 6.64303C63.9869 6.02671 63.3775 6.3024 63.2386 5.81894C63.3775 6.14658 62.5064 5.78797 62.7321 6.25745C62.5323 6.17554 62.7541 6.01972 62.6153 5.84791C62.0768 6.01872 61.5293 5.52826 60.895 5.52027C60.882 5.57021 60.904 5.64313 60.895 5.72005C60.889 5.72005 60.883 5.72005 60.876 5.71106C60.6887 5.01201 60.3681 4.35571 59.9319 3.77818C59.4868 3.10952 59.1437 2.37829 58.914 1.60857C58.9809 1.92622 58.902 1.83332 58.8211 1.71745C58.863 1.83432 58.7691 1.91723 58.7511 2.04109C58.6792 1.77472 58.598 1.51068 58.5074 1.24897C58.4075 1.47172 58.1697 0.757507 58.1238 1.00823L58.2177 1.10812C58.1626 1.34773 58.1626 1.59671 58.2177 1.83632L57.9919 1.37782L55.4804 6.46623L53.7891 6.71195C53.8006 6.71073 53.8112 6.70541 53.8191 6.69697L53.7961 6.59708C53.6892 6.61906 53.6273 6.69697 53.6962 6.72993L53.3965 6.77389C53.5533 6.58909 53.3416 6.01972 53.1228 5.71006C53.1288 5.79197 53.1398 5.86688 52.949 6.00973C53.0359 6.10063 53.4405 6.18154 53.2916 6.37533C53.0329 6.51118 53.0578 6.34236 52.911 6.26245C53.0409 6.45324 52.7112 6.61107 52.7112 6.87677L51.0509 7.11851C51.0547 7.10366 51.0548 7.08806 51.0509 7.07319C51.0471 7.05833 51.0395 7.0447 51.0289 7.0336L50.881 7.09154C50.7102 6.90874 51.1288 6.76789 50.921 6.70097C51.1068 6.52716 51.3046 6.26844 51.6113 6.34136L51.7112 6.62205C51.698 6.59771 51.6794 6.57674 51.6567 6.56078C51.6341 6.54483 51.6081 6.53431 51.5807 6.53006C51.5534 6.5258 51.5254 6.52792 51.499 6.53626C51.4726 6.54459 51.4484 6.55891 51.4285 6.5781C51.5284 6.43226 51.928 6.90374 52.0079 6.50718L51.7751 6.33737C51.9609 6.16156 52.1747 5.81894 52.4435 5.87288C52.2846 5.60517 52.3885 5.91383 52.1577 5.60717C52.3765 5.99874 51.4974 5.68608 51.8151 6.08365C51.5713 5.72404 51.4664 5.96677 51.1737 5.6731C51.1947 5.76699 51.2866 5.84191 51.0638 5.82693C51.0561 5.85858 51.0443 5.88912 51.0289 5.91783H51.0129L51.0269 5.92782C51.0189 5.9438 51.0189 5.9458 51.0269 5.92782C51.0817 5.95773 51.127 6.00236 51.1577 6.05668C51.0818 6.29042 50.7372 6.33337 50.6383 6.46423C50.5034 6.43726 50.6762 6.34736 50.5913 6.25546L50.4425 6.45024C50.3945 6.24247 50.0509 6.15057 50.3346 5.98076L50.0618 6.01073C49.9431 5.94444 49.8054 5.92048 49.6712 5.9428L46.884 6.55812L48.914 8.27224C48.9524 8.30602 48.9988 8.3294 49.0489 8.34016C49.1098 8.46403 49.4485 8.3991 49.2487 8.44005L49.6483 8.64583L49.6133 8.68678C49.899 9.00243 50.4864 9.04439 50.5653 9.65871C50.7397 9.715 50.8887 9.83103 50.9859 9.98635L50.886 10.1512C51.0618 10.2331 51.1518 10.6686 51.3426 10.5857C51.1428 11.0801 51.905 11.2849 52.0748 11.5736L52.2516 11.4098C52.363 11.5218 52.4932 11.6135 52.6363 11.6805C52.4814 12.0441 52.929 12.5286 52.5853 12.8132C52.6108 12.8515 52.6205 12.8982 52.6123 12.9435C52.6041 12.9887 52.5787 13.0291 52.5414 13.056C52.5419 13.0465 52.5394 13.0371 52.5344 13.029C52.5297 13.0423 52.5263 13.056 52.5244 13.07C52.4814 13.1079 52.4315 13.1459 52.3885 13.1898C52.4382 13.1644 52.4832 13.1307 52.5214 13.0899C52.5124 13.1987 52.5226 13.3083 52.5513 13.4136L52.3176 13.4236V13.4515C52.2177 13.5514 52.4085 13.5604 52.5893 13.5295C52.6154 13.5937 52.6526 13.6529 52.6992 13.7043C52.3196 13.7342 52.7701 14.0269 52.3605 14.0858C52.5364 14.1957 52.4035 14.6852 52.7921 14.817C52.7392 14.817 52.7082 14.842 52.7162 14.7791C52.6483 14.8999 52.5813 15.0198 52.6742 15.1537H52.3745L52.7122 15.4993C52.5124 15.6391 52.3945 15.6921 52.2037 15.4853C52.4734 15.9508 52.2746 15.8379 52.5523 16.2415L52.3695 16.1925C52.3555 16.3174 52.5693 16.5581 52.4035 16.6061C52.3531 16.6348 52.3102 16.6752 52.2786 16.7239L51.7272 17.5231L53.2786 17.4461C53.7272 17.4242 54.4594 16.8108 55.1557 16.7739C54.7741 16.3484 55.5673 16.8378 55.3935 16.4442C55.4934 16.5441 55.6153 16.5601 55.5643 16.7149C55.8301 16.4303 56.1497 16.642 56.2067 16.2035C56.3066 16.3034 56.2267 16.4093 56.2956 16.4612C56.3086 16.4223 56.3455 16.3054 56.4165 16.3613C56.4874 16.4173 56.4165 16.4842 56.3945 16.5611C56.7172 16.3663 56.5623 15.9917 56.4105 15.6431C56.6632 15.713 56.7352 15.6431 56.7411 15.3624C56.858 15.4413 57.0159 15.5043 56.8291 15.6531C56.9539 15.6082 57.6283 15.4404 57.4944 15.1657C57.5663 15.2146 57.6672 15.0997 57.6812 15.0528C57.8246 14.9969 57.965 14.9335 58.1018 14.863C58.3845 15.2126 58.3306 14.822 58.6372 15.3035L58.7182 15.0877C58.9899 14.6772 58.9979 15.5612 59.3555 15.5382L59.3186 15.3714C59.5443 15.3015 59.4185 16.1795 59.5423 16.3114C59.5553 16.3663 59.4594 16.3454 59.3995 16.3493C59.6542 16.8098 59.5883 16.1116 59.911 16.2035C59.89 16.3743 59.6512 16.5302 59.833 16.659C59.87 16.8248 60.6432 16.4932 60.7661 16.9077C60.7661 16.7669 60.7661 16.626 60.9429 16.6151C61.1697 16.685 61.2836 17.3233 61.6522 17.0756C61.6621 17.1107 61.6593 17.1482 61.6442 17.1814C61.849 17.1744 62.2356 17.3023 62.4294 17.1645C62.3565 17.4202 62.4584 17.5261 62.6153 17.577L64.3345 18.1314L63.823 16.7C63.7112 16.3863 63.2816 16.0307 63.7611 15.9508L63.6302 15.4164H63.7062C63.7085 15.2951 63.6705 15.1764 63.5982 15.079C63.5259 14.9816 63.4233 14.9109 63.3066 14.878C63.3415 14.7891 63.4184 14.837 63.4574 14.837C63.5154 14.3076 63.4764 14.2616 63.0468 13.899L63.2716 13.8151C63.1168 13.7232 63.5104 13.022 63.1547 12.5735C63.1959 12.5715 63.2364 12.5846 63.2686 12.6105C62.9329 12.145 63.5503 11.3299 62.9979 11.1441C63.1237 11.0502 63.2436 10.9443 63.3425 11.0542C64.0079 10.3749 64.841 9.90544 65.4944 9.29811L65.1787 9.1213L65.4144 8.92152C65.5293 8.92152 65.6832 9.03939 65.5143 9.18423C65.7351 9.24417 65.6652 8.80665 65.6142 8.74771C66.0228 8.54793 65.7761 9.15627 65.877 9.06936L65.9879 8.92452H65.9299C65.9359 8.72474 65.84 8.60387 66.0418 8.42507C66.2116 8.35714 66.2536 8.51897 66.3105 8.48201C66.3275 8.49999 66.3515 8.49299 66.3905 8.41808L66.6902 8.16635L66.3905 8.07845C66.4284 7.85669 66.6722 7.82773 66.3255 7.73083ZM53.0818 12.151L53.2486 12.103L53.1238 11.7754C53.2826 11.8833 53.5124 12.0671 53.7462 12.2668L53.6622 12.7583C53.4174 12.612 53.2169 12.4021 53.0818 12.151ZM52.9529 10.4528C52.9638 10.4166 52.9814 10.3827 53.0049 10.3529L53.2427 10.5857L52.9949 10.8494L53.2756 10.6187L53.5094 10.8454C53.3782 10.9881 53.2318 11.116 53.0728 11.227L53.0299 11.0931L53.0009 11.1471C52.9521 10.9181 52.936 10.6834 52.9529 10.4498V10.4528ZM60.891 5.73703C60.8859 5.76102 60.8761 5.78379 60.8622 5.80401C60.8484 5.82423 60.8306 5.84153 60.8101 5.8549L60.6312 5.54823L60.891 5.73703ZM53.3615 6.77289L53.0119 6.82383C53.0311 6.79721 53.0554 6.77468 53.0834 6.75753C53.1114 6.74038 53.1425 6.72897 53.1749 6.72395C53.2074 6.71893 53.2405 6.72041 53.2723 6.72829C53.3042 6.73618 53.3342 6.75032 53.3605 6.76989L53.3615 6.77289ZM52.94 6.82084V6.83482H52.916L52.94 6.82084ZM49.863 6.16156L49.8571 6.17355C49.6932 6.10462 49.7512 6.13259 49.862 6.15956L49.863 6.16156ZM50.2507 8.49299C49.939 8.32718 50.3266 8.20431 50.2447 8.20431C49.882 7.7638 49.4694 8.20431 49.2587 7.89865L48.1887 6.33737L49.7362 6.42827C49.79 6.43293 49.8428 6.44538 49.893 6.46523C50.1378 6.68798 49.9749 6.96468 50.0479 7.14248C49.9868 7.17569 49.9172 7.18962 49.8481 7.18244L49.6772 7.16446L49.7931 7.35225C49.878 7.4891 49.868 7.66291 49.9689 7.75181L49.888 7.50408C50.0109 7.50408 50.1877 7.58699 50.2077 7.70986C50.2096 7.67015 50.2013 7.63063 50.1837 7.59498L51.1138 8.50099C50.8332 8.59762 50.5279 8.59409 50.2497 8.491L50.2507 8.49299ZM52.0109 9.6687C52.0637 9.61915 52.1023 9.55638 52.1228 9.4869L52.3226 9.67869C52.2182 9.69981 52.1103 9.69571 52.0079 9.6667L52.0109 9.6687ZM53.1757 15.5992L53.1368 15.8289L52.7591 15.5293C52.8946 15.5678 53.034 15.5905 53.1747 15.5972L53.1757 15.5992ZM56.4035 15.4433C56.3405 15.4204 56.3256 15.3105 56.3206 15.1696C56.3097 15.2024 56.3007 15.2358 56.2936 15.2695C56.2643 15.2626 56.2369 15.2491 56.2136 15.23C56.1902 15.211 56.1715 15.187 56.1587 15.1597L56.3176 15.0758V15.1756L56.3575 15.0568L56.4295 15.0188C56.5027 15.061 56.5784 15.0986 56.6562 15.1317L56.4035 15.4433ZM63.6083 15.6981C63.5643 15.7325 63.5276 15.7752 63.5004 15.8239L63.4864 15.786L63.6083 15.6981ZM62.6093 11.8193L62.5923 11.7884L62.7122 11.3768C62.3205 11.6665 62.5044 11.0602 62.2626 11.0971C62.3625 10.9283 62.7951 10.9403 62.6622 11.1341L62.6053 11.1291C62.6222 11.1659 62.6499 11.1966 62.6846 11.2173C62.7194 11.238 62.7597 11.2477 62.8001 11.245L62.6093 11.8193ZM66.1987 8.3941C66.2516 8.24926 66.2656 8.32018 66.2846 8.3941H66.1987Z" fill="#FBED81"/>
<path d="M51.7867 5.58643L51.5957 5.67543C51.6291 5.66768 51.6639 5.66809 51.6972 5.67662C51.7304 5.68514 51.7611 5.70154 51.7867 5.72443C51.7747 5.66843 51.7247 5.59943 51.7867 5.58643Z" fill="#FBED81"/>
<path d="M52.3511 6.36666C52.3511 6.09366 52.2171 6.20266 52.0811 6.31266C52.1251 6.50166 52.2411 6.41866 52.3761 6.36266C52.368 6.36542 52.3596 6.36677 52.3511 6.36666Z" fill="#FBED81"/>
<path d="M52.5365 6.32855C52.5365 6.21955 52.4805 6.31355 52.4075 6.35155C52.4484 6.33501 52.4923 6.32718 52.5365 6.32855Z" fill="#FBED81"/>
<path d="M50.5658 6.0282C50.6398 6.0672 50.5718 5.7782 50.6208 5.8502C50.6598 5.5962 50.2208 6.2092 50.5658 6.0282Z" fill="#FBED81"/>
<path d="M52.2864 6.92627L52.2014 6.69727L52.1504 6.89727L52.2864 6.92627Z" fill="#FBED81"/>
<path d="M51.1554 6.91293L51.3894 6.94593C51.3804 6.90693 51.4054 6.87993 51.4384 6.85693C51.2984 6.86393 51.1394 6.84393 51.1554 6.91293Z" fill="#FBED81"/>
<path d="M51.4365 6.85799C51.5013 6.86 51.5642 6.83627 51.6115 6.79199C51.5497 6.80317 51.4904 6.82554 51.4365 6.85799Z" fill="#FBED81"/>
<path d="M50.6863 8.1615C50.6043 8.1615 50.5163 8.11951 50.4863 8.20251L50.7113 8.3265C50.7883 8.2855 50.7743 8.2025 50.6863 8.1615Z" fill="#FBED81"/>
<path d="M58.3152 0.680203L58.2002 0.408203L58.2682 0.681203L58.3152 0.680203Z" fill="#FBED81"/>
<path d="M58.0763 0.712281L58.0563 0.363281L57.9863 0.541281C58.035 0.586316 58.0668 0.646668 58.0763 0.712281Z" fill="#FBED81"/>
</g>
<g clip-path="url(#clip2_102153_2)">
<path d="M81.3824 0.277488C81.4344 0.219488 81.4154 0.0474883 81.4234 0.000488281C81.3314 0.170488 81.3854 0.326488 81.3824 0.277488Z" fill="#FBED81"/>
<path d="M80.5933 1.89233L80.5303 2.27533L80.6003 1.99433L80.5933 1.89233Z" fill="#FBED81"/>
<path d="M80.2777 2.61195L80.3277 2.64795L80.2907 2.29395C80.1297 2.60595 80.0047 3.11695 79.8477 3.22595C80.0817 3.40595 80.0887 2.72495 80.2777 2.61195Z" fill="#FBED81"/>
<path d="M79.1283 3.19385C79.1152 3.19714 79.1018 3.19882 79.0883 3.19885C79.0586 3.24704 79.0251 3.29285 78.9883 3.33585C79.1053 3.39285 78.9663 3.58585 79.1283 3.19385Z" fill="#FBED81"/>
<path d="M79.0865 3.199C78.9565 3.209 79.1745 3.043 79.0865 3.199V3.199Z" fill="#FBED81"/>
<path d="M78.7182 3.94351L78.7532 3.66051C78.6752 3.64451 78.5532 3.81251 78.5532 3.70551C78.4742 3.96151 78.5602 3.96851 78.7182 3.94351Z" fill="#FBED81"/>
<path d="M78.8116 4.16477C78.7786 4.15977 78.7536 4.17877 78.7916 4.29777L78.8116 4.16477Z" fill="#FBED81"/>
<path d="M78.8395 4.04142C78.9015 4.12942 78.8555 4.02042 78.8595 3.87842L78.8115 4.16542C78.8635 4.17442 78.9465 4.25042 78.8395 4.04142Z" fill="#FBED81"/>
<path d="M79.1568 3.91651C79.3328 3.52751 79.1568 3.38851 78.9658 3.79351C79.0808 3.74251 79.1878 3.64451 79.1568 3.91651Z" fill="#FBED81"/>
<path d="M79.9934 3.5888L80.1114 3.5498V3.3418C80.1134 3.4488 79.9344 3.5058 79.9934 3.5888Z" fill="#FBED81"/>
<path d="M78.1726 5.15283V5.43183C78.2786 5.24683 78.2486 5.18383 78.1726 5.15283Z" fill="#FBED81"/>
<path d="M79.0505 4.58582C79.0452 4.41782 79.0452 4.24582 79.0505 4.06982C79.0345 4.26982 79.0245 4.46182 79.0205 4.65082L79.0505 4.58582Z" fill="#FBED81"/>
<path d="M78.6493 4.77319L78.4873 5.05219L78.5623 4.95219L78.6493 4.77319Z" fill="#FBED81"/>
<path d="M78.0537 5.05016C78.0318 5.06874 78.0055 5.08135 77.9773 5.08678C77.9491 5.09221 77.9199 5.09028 77.8927 5.08116C77.9477 5.13216 78.0927 5.11716 78.1757 5.15316L78.1827 4.96216C78.1497 4.98116 78.1107 5.01116 78.0707 5.03816C78.1087 4.90216 77.9267 4.83816 77.9977 4.74316C77.8646 4.80986 77.754 4.91418 77.6797 5.04316C77.7354 5.00635 77.801 4.9873 77.8678 4.98855C77.9346 4.9898 77.9994 5.01129 78.0537 5.05016Z" fill="#FBED81"/>
<path d="M77.5273 5.22197C77.5845 5.16816 77.6355 5.10812 77.6793 5.04297C77.616 5.09059 77.5641 5.15174 77.5273 5.22197Z" fill="#FBED81"/>
<path d="M77.6914 5.84815L77.9144 5.85615L77.9584 5.77415C77.9112 5.76411 77.8623 5.76559 77.8159 5.77848C77.7694 5.79136 77.7267 5.81526 77.6914 5.84815Z" fill="#FBED81"/>
<path d="M77.9123 5.85596L77.8613 5.94596H77.8673L77.9193 5.85996L77.9123 5.85596Z" fill="#FBED81"/>
<path d="M77.9688 5.75317L77.9578 5.77417C77.9798 5.77517 77.9878 5.77317 77.9688 5.75317Z" fill="#FBED81"/>
<path d="M78.6272 5C78.6319 5.10517 78.6483 5.20949 78.6762 5.311C78.6811 5.32176 78.6867 5.33213 78.6932 5.342L78.3752 5.573C78.3262 5.555 78.2552 5.546 78.2392 5.466V5.666L77.8662 5.937V5.943L78.2432 5.669V5.769L78.3922 5.576L78.3782 5.571L78.6952 5.341C78.7302 5.394 78.7892 5.414 78.8952 5.36C78.8232 5.2 78.6712 5.281 78.6272 5Z" fill="#FBED81"/>
<path d="M78.2476 5.90919V5.77319L78.1926 5.84519L78.2476 5.90919Z" fill="#FBED81"/>
<path d="M77.9962 5.52346C78.0042 5.45846 78.0392 5.33646 77.9122 5.36346C77.8388 5.44655 77.738 5.5005 77.6282 5.51546C77.7496 5.53811 77.8739 5.54081 77.9962 5.52346Z" fill="#FBED81"/>
<path d="M78.3627 5.35059L78.3447 5.36459C78.3597 5.37959 78.3697 5.38359 78.3627 5.35059Z" fill="#FBED81"/>
<path d="M76.5322 5.66848L76.5552 5.70248V5.66748L76.5322 5.66848Z" fill="#FBED81"/>
<path d="M78.0208 5.55337C78.1208 5.57937 78.1628 5.52237 78.2048 5.45337C78.1382 5.48502 78.0675 5.50724 77.9948 5.51937C77.9928 5.54937 77.9938 5.56837 78.0208 5.55337Z" fill="#FBED81"/>
<path d="M77.2356 5.36066C77.2893 5.39596 77.3466 5.42546 77.4066 5.44866C77.3526 5.39166 77.2446 5.30566 77.2356 5.36066Z" fill="#FBED81"/>
<path d="M78.3056 5.31359L78.3176 5.30259C78.2826 5.26359 78.2886 5.28459 78.3056 5.31359Z" fill="#FBED81"/>
<path d="M78.3061 5.31348C78.2658 5.35475 78.232 5.40197 78.2061 5.45348C78.2567 5.43122 78.3036 5.40119 78.3451 5.36448C78.33 5.34915 78.3169 5.33202 78.3061 5.31348Z" fill="#FBED81"/>
<path d="M76.9507 5.66543L77.0317 5.62943C76.9051 5.58981 76.7912 5.51735 76.7017 5.41943C76.5737 5.53143 76.5547 5.60443 76.5537 5.66843L76.9747 5.63343L76.9507 5.66543Z" fill="#FBED81"/>
<path d="M77.4132 5.57357C77.3762 5.78657 77.1852 5.90257 77.3422 6.10357C77.5892 6.05357 77.4922 5.90857 77.6282 5.80357C77.2332 5.91257 77.7282 5.67357 77.4202 5.60357C77.4852 5.56474 77.5557 5.53576 77.6292 5.51757C77.5537 5.50414 77.4797 5.48337 77.4082 5.45557L77.4192 5.46657C77.4402 5.48957 77.4482 5.50457 77.4272 5.49257C77.4272 5.49257 77.4212 5.49257 77.4192 5.49757C77.4202 5.52409 77.4178 5.55063 77.4122 5.57657C77.2902 5.55157 77.3862 5.52757 77.4192 5.49757V5.46657L77.0332 5.63557C77.1628 5.64209 77.2924 5.62095 77.4132 5.57357Z" fill="#FBED81"/>
<path d="M79.1554 5.81429C79.1389 5.81488 79.1227 5.80995 79.1094 5.80029C79.1184 5.83829 79.1284 5.85629 79.1554 5.81429Z" fill="#FBED81"/>
<path d="M78.4984 5.85302L78.4504 5.84302C78.4524 5.85202 78.4714 5.85402 78.4984 5.85302Z" fill="#FBED81"/>
<path d="M78.4983 5.85222C78.6542 5.89081 78.8148 5.9073 78.9753 5.90122C78.9643 5.85922 78.9063 5.79322 78.9693 5.71422C79.0593 5.66922 79.0513 5.76822 79.1103 5.80022C79.0903 5.71922 79.0823 5.52922 78.9103 5.64622L78.9203 5.68822C78.7951 5.77649 78.6502 5.83279 78.4983 5.85222Z" fill="#FBED81"/>
<path d="M78.4001 5.93896L78.0791 6.08696L78.2791 6.23796L78.2551 6.13796C78.4481 6.14696 78.3881 6.02296 78.4001 5.93896Z" fill="#FBED81"/>
<path d="M76.4908 5.35254L76.3408 5.68354L76.4768 5.57354L76.4908 5.35254Z" fill="#FBED81"/>
<path d="M76.0375 5.47461L75.9375 5.60361L76.0475 5.66261L76.0375 5.47461Z" fill="#FBED81"/>
<path d="M75.5449 13.4208L75.7559 13.4118C75.7469 13.3696 75.7486 13.3259 75.761 13.2846C75.7734 13.2434 75.7961 13.2059 75.8269 13.1758C75.6289 13.2848 75.3329 13.4028 75.5449 13.4208Z" fill="#FBED81"/>
<path d="M73.6152 9.16749C73.6361 9.27917 73.6831 9.38435 73.7522 9.47449C73.7262 9.28449 73.7632 9.07249 73.6152 9.16749Z" fill="#FBED81"/>
<path d="M84.9541 17.2458C84.9808 17.2476 85.0075 17.2419 85.0312 17.2294C85.0549 17.2168 85.0746 17.1979 85.0881 17.1748C85.0161 17.1768 84.9661 17.1948 84.9541 17.2458Z" fill="#FBED81"/>
<path d="M74.011 9.72612C74.011 9.69612 74.001 9.67412 73.998 9.64512C73.9028 9.60984 73.8182 9.55101 73.752 9.47412C73.771 9.61512 73.823 9.74312 74.011 9.72612Z" fill="#FBED81"/>
<path d="M82.2587 1.71871C82.2349 1.66236 82.1974 1.61285 82.1497 1.57471C82.1899 1.61962 82.2264 1.66778 82.2587 1.71871Z" fill="#FBED81"/>
<path d="M74.2842 5.82322C74.2952 5.79822 74.3742 5.79622 74.2842 5.82322V5.82322Z" fill="#FBED81"/>
<path d="M74.4366 5.89993C74.3967 5.87923 74.3538 5.86473 74.3096 5.85693C74.3498 5.8769 74.3925 5.89137 74.4366 5.89993Z" fill="#FBED81"/>
<path d="M74.4033 5.80721L74.4873 5.81521C74.4933 5.77921 74.4803 5.75621 74.4033 5.80721Z" fill="#FBED81"/>
<path d="M74.1572 5.8581C74.2074 5.8486 74.259 5.8486 74.3092 5.8581C74.2892 5.8471 74.2802 5.8361 74.2842 5.8291L74.1572 5.8581Z" fill="#FBED81"/>
<path d="M89.763 7.73083C89.8377 7.75256 89.9171 7.75256 89.9918 7.73083L90.75 7.53105L89.6422 6.65402C89.2635 6.35435 88.3435 6.43126 88.2226 6.28442C88.1013 6.35086 87.9673 6.3905 87.8294 6.40066C87.6915 6.41083 87.5531 6.39129 87.4234 6.34336C87.4883 6.41029 87.4873 6.72194 87.2396 6.64303C87.4244 6.02671 86.815 6.3024 86.6761 5.81894C86.815 6.14658 85.9439 5.78797 86.1696 6.25745C85.9698 6.17554 86.1916 6.01972 86.0528 5.84791C85.5143 6.01872 84.9668 5.52826 84.3325 5.52027C84.3195 5.57021 84.3415 5.64313 84.3325 5.72005C84.3265 5.72005 84.3205 5.72005 84.3135 5.71106C84.1262 5.01201 83.8056 4.35571 83.3694 3.77818C82.9243 3.10952 82.5812 2.37829 82.3515 1.60857C82.4184 1.92622 82.3395 1.83332 82.2586 1.71745C82.3005 1.83432 82.2066 1.91723 82.1886 2.04109C82.1167 1.77472 82.0355 1.51068 81.9449 1.24897C81.845 1.47172 81.6072 0.757507 81.5613 1.00823L81.6552 1.10812C81.6001 1.34773 81.6001 1.59671 81.6552 1.83632L81.4294 1.37782L78.9179 6.46623L77.2266 6.71195C77.2381 6.71073 77.2487 6.70541 77.2566 6.69697L77.2336 6.59708C77.1267 6.61906 77.0648 6.69697 77.1337 6.72993L76.834 6.77389C76.9908 6.58909 76.7791 6.01972 76.5603 5.71006C76.5663 5.79197 76.5773 5.86688 76.3865 6.00973C76.4734 6.10063 76.878 6.18154 76.7291 6.37533C76.4704 6.51118 76.4953 6.34236 76.3485 6.26245C76.4784 6.45324 76.1487 6.61107 76.1487 6.87677L74.4884 7.11851C74.4922 7.10366 74.4923 7.08806 74.4884 7.07319C74.4846 7.05833 74.477 7.0447 74.4664 7.0336L74.3185 7.09154C74.1477 6.90874 74.5663 6.76789 74.3585 6.70097C74.5443 6.52716 74.7421 6.26844 75.0488 6.34136L75.1487 6.62205C75.1355 6.59771 75.1169 6.57674 75.0942 6.56078C75.0716 6.54483 75.0456 6.53431 75.0182 6.53006C74.9909 6.5258 74.9629 6.52792 74.9365 6.53626C74.9101 6.54459 74.8859 6.55891 74.866 6.5781C74.9659 6.43226 75.3655 6.90374 75.4454 6.50718L75.2126 6.33737C75.3984 6.16156 75.6122 5.81894 75.881 5.87288C75.7221 5.60517 75.826 5.91383 75.5952 5.60717C75.814 5.99874 74.9349 5.68608 75.2526 6.08365C75.0088 5.72404 74.9039 5.96677 74.6112 5.6731C74.6322 5.76699 74.7241 5.84191 74.5013 5.82693C74.4936 5.85858 74.4818 5.88912 74.4664 5.91783H74.4504L74.4644 5.92782C74.4564 5.9438 74.4564 5.9458 74.4644 5.92782C74.5192 5.95773 74.5645 6.00236 74.5952 6.05668C74.5193 6.29042 74.1747 6.33337 74.0758 6.46423C73.9409 6.43726 74.1137 6.34736 74.0288 6.25546L73.88 6.45024C73.832 6.24247 73.4884 6.15057 73.7721 5.98076L73.4993 6.01073C73.3806 5.94444 73.2429 5.92048 73.1087 5.9428L70.3215 6.55812L72.3515 8.27224C72.3899 8.30602 72.4363 8.3294 72.4864 8.34016C72.5473 8.46403 72.886 8.3991 72.6862 8.44005L73.0858 8.64583L73.0508 8.68678C73.3365 9.00243 73.9239 9.04439 74.0028 9.65871C74.1772 9.715 74.3262 9.83103 74.4234 9.98635L74.3235 10.1512C74.4993 10.2331 74.5893 10.6686 74.7801 10.5857C74.5803 11.0801 75.3425 11.2849 75.5123 11.5736L75.6891 11.4098C75.8005 11.5218 75.9307 11.6135 76.0738 11.6805C75.9189 12.0441 76.3665 12.5286 76.0228 12.8132C76.0483 12.8515 76.058 12.8982 76.0498 12.9435C76.0416 12.9887 76.0162 13.0291 75.9789 13.056C75.9794 13.0465 75.9769 13.0371 75.9719 13.029C75.9672 13.0423 75.9638 13.056 75.9619 13.07C75.9189 13.1079 75.869 13.1459 75.826 13.1898C75.8757 13.1644 75.9207 13.1307 75.9589 13.0899C75.9499 13.1987 75.9601 13.3083 75.9888 13.4136L75.7551 13.4236V13.4515C75.6552 13.5514 75.846 13.5604 76.0268 13.5295C76.0529 13.5937 76.0901 13.6529 76.1367 13.7043C75.7571 13.7342 76.2076 14.0269 75.798 14.0858C75.9739 14.1957 75.841 14.6852 76.2296 14.817C76.1767 14.817 76.1457 14.842 76.1537 14.7791C76.0858 14.8999 76.0188 15.0198 76.1117 15.1537H75.812L76.1497 15.4993C75.9499 15.6391 75.832 15.6921 75.6412 15.4853C75.9109 15.9508 75.7121 15.8379 75.9898 16.2415L75.807 16.1925C75.793 16.3174 76.0068 16.5581 75.841 16.6061C75.7906 16.6348 75.7477 16.6752 75.7161 16.7239L75.1647 17.5231L76.7161 17.4461C77.1647 17.4242 77.8969 16.8108 78.5932 16.7739C78.2116 16.3484 79.0048 16.8378 78.831 16.4442C78.9309 16.5441 79.0528 16.5601 79.0018 16.7149C79.2676 16.4303 79.5872 16.642 79.6442 16.2035C79.7441 16.3034 79.6642 16.4093 79.7331 16.4612C79.7461 16.4223 79.783 16.3054 79.854 16.3613C79.9249 16.4173 79.854 16.4842 79.832 16.5611C80.1547 16.3663 79.9998 15.9917 79.848 15.6431C80.1007 15.713 80.1727 15.6431 80.1786 15.3624C80.2955 15.4413 80.4534 15.5043 80.2666 15.6531C80.3914 15.6082 81.0658 15.4404 80.9319 15.1657C81.0038 15.2146 81.1047 15.0997 81.1187 15.0528C81.2621 14.9969 81.4025 14.9335 81.5393 14.863C81.822 15.2126 81.7681 14.822 82.0747 15.3035L82.1557 15.0877C82.4274 14.6772 82.4354 15.5612 82.793 15.5382L82.7561 15.3714C82.9818 15.3015 82.856 16.1795 82.9798 16.3114C82.9928 16.3663 82.8969 16.3454 82.837 16.3493C83.0917 16.8098 83.0258 16.1116 83.3485 16.2035C83.3275 16.3743 83.0887 16.5302 83.2705 16.659C83.3075 16.8248 84.0807 16.4932 84.2036 16.9077C84.2036 16.7669 84.2036 16.626 84.3804 16.6151C84.6072 16.685 84.7211 17.3233 85.0897 17.0756C85.0996 17.1107 85.0968 17.1482 85.0817 17.1814C85.2865 17.1744 85.6731 17.3023 85.8669 17.1645C85.794 17.4202 85.8959 17.5261 86.0528 17.577L87.772 18.1314L87.2605 16.7C87.1487 16.3863 86.7191 16.0307 87.1986 15.9508L87.0677 15.4164H87.1437C87.146 15.2951 87.108 15.1764 87.0357 15.079C86.9634 14.9816 86.8608 14.9109 86.7441 14.878C86.779 14.7891 86.8559 14.837 86.8949 14.837C86.9529 14.3076 86.9139 14.2616 86.4843 13.899L86.7091 13.8151C86.5543 13.7232 86.9479 13.022 86.5922 12.5735C86.6334 12.5715 86.6739 12.5846 86.7061 12.6105C86.3704 12.145 86.9878 11.3299 86.4354 11.1441C86.5612 11.0502 86.6811 10.9443 86.78 11.0542C87.4454 10.3749 88.2785 9.90544 88.9319 9.29811L88.6162 9.1213L88.8519 8.92152C88.9668 8.92152 89.1207 9.03939 88.9518 9.18423C89.1726 9.24417 89.1027 8.80665 89.0517 8.74771C89.4603 8.54793 89.2136 9.15627 89.3145 9.06936L89.4254 8.92452H89.3674C89.3734 8.72474 89.2775 8.60387 89.4793 8.42507C89.6491 8.35714 89.6911 8.51897 89.748 8.48201C89.765 8.49999 89.789 8.49299 89.828 8.41808L90.1277 8.16635L89.828 8.07845C89.8659 7.85669 90.1097 7.82773 89.763 7.73083ZM76.5193 12.151L76.6861 12.103L76.5613 11.7754C76.7201 11.8833 76.9499 12.0671 77.1837 12.2668L77.0997 12.7583C76.8549 12.612 76.6544 12.4021 76.5193 12.151ZM76.3904 10.4528C76.4013 10.4166 76.4189 10.3827 76.4424 10.3529L76.6802 10.5857L76.4324 10.8494L76.7131 10.6187L76.9469 10.8454C76.8157 10.9881 76.6693 11.116 76.5103 11.227L76.4674 11.0931L76.4384 11.1471C76.3896 10.9181 76.3735 10.6834 76.3904 10.4498V10.4528ZM84.3285 5.73703C84.3234 5.76102 84.3136 5.78379 84.2997 5.80401C84.2859 5.82423 84.2681 5.84153 84.2476 5.8549L84.0687 5.54823L84.3285 5.73703ZM76.799 6.77289L76.4494 6.82383C76.4686 6.79721 76.4929 6.77468 76.5209 6.75753C76.5489 6.74038 76.58 6.72897 76.6124 6.72395C76.6449 6.71893 76.678 6.72041 76.7098 6.72829C76.7417 6.73618 76.7717 6.75032 76.798 6.76989L76.799 6.77289ZM76.3775 6.82084V6.83482H76.3535L76.3775 6.82084ZM73.3005 6.16156L73.2946 6.17355C73.1307 6.10462 73.1887 6.13259 73.2995 6.15956L73.3005 6.16156ZM73.6882 8.49299C73.3765 8.32718 73.7641 8.20431 73.6822 8.20431C73.3195 7.7638 72.9069 8.20431 72.6962 7.89865L71.6262 6.33737L73.1737 6.42827C73.2275 6.43293 73.2803 6.44538 73.3305 6.46523C73.5753 6.68798 73.4124 6.96468 73.4854 7.14248C73.4243 7.17569 73.3547 7.18962 73.2856 7.18244L73.1147 7.16446L73.2306 7.35225C73.3155 7.4891 73.3055 7.66291 73.4064 7.75181L73.3255 7.50408C73.4484 7.50408 73.6252 7.58699 73.6452 7.70986C73.6471 7.67015 73.6388 7.63063 73.6212 7.59498L74.5513 8.50099C74.2707 8.59762 73.9654 8.59409 73.6872 8.491L73.6882 8.49299ZM75.4484 9.6687C75.5012 9.61915 75.5398 9.55638 75.5603 9.4869L75.7601 9.67869C75.6557 9.69981 75.5478 9.69571 75.4454 9.6667L75.4484 9.6687ZM76.6132 15.5992L76.5743 15.8289L76.1966 15.5293C76.3321 15.5678 76.4715 15.5905 76.6122 15.5972L76.6132 15.5992ZM79.841 15.4433C79.778 15.4204 79.7631 15.3105 79.7581 15.1696C79.7472 15.2024 79.7382 15.2358 79.7311 15.2695C79.7018 15.2626 79.6744 15.2491 79.6511 15.23C79.6277 15.211 79.609 15.187 79.5962 15.1597L79.7551 15.0758V15.1756L79.795 15.0568L79.867 15.0188C79.9402 15.061 80.0159 15.0986 80.0937 15.1317L79.841 15.4433ZM87.0458 15.6981C87.0018 15.7325 86.9651 15.7752 86.9379 15.8239L86.9239 15.786L87.0458 15.6981ZM86.0468 11.8193L86.0298 11.7884L86.1497 11.3768C85.758 11.6665 85.9419 11.0602 85.7001 11.0971C85.8 10.9283 86.2326 10.9403 86.0997 11.1341L86.0428 11.1291C86.0597 11.1659 86.0874 11.1966 86.1221 11.2173C86.1569 11.238 86.1972 11.2477 86.2376 11.245L86.0468 11.8193ZM89.6362 8.3941C89.6891 8.24926 89.7031 8.32018 89.7221 8.3941H89.6362Z" fill="#FBED81"/>
<path d="M75.2242 5.58643L75.0332 5.67543C75.0666 5.66768 75.1014 5.66809 75.1347 5.67662C75.1679 5.68514 75.1986 5.70154 75.2242 5.72443C75.2122 5.66843 75.1622 5.59943 75.2242 5.58643Z" fill="#FBED81"/>
<path d="M75.7886 6.36666C75.7886 6.09366 75.6546 6.20266 75.5186 6.31266C75.5626 6.50166 75.6786 6.41866 75.8136 6.36266C75.8055 6.36542 75.7971 6.36677 75.7886 6.36666Z" fill="#FBED81"/>
<path d="M75.974 6.32855C75.974 6.21955 75.918 6.31355 75.845 6.35155C75.8859 6.33501 75.9298 6.32718 75.974 6.32855Z" fill="#FBED81"/>
<path d="M74.0033 6.0282C74.0773 6.0672 74.0093 5.7782 74.0583 5.8502C74.0973 5.5962 73.6583 6.2092 74.0033 6.0282Z" fill="#FBED81"/>
<path d="M75.7239 6.92627L75.6389 6.69727L75.5879 6.89727L75.7239 6.92627Z" fill="#FBED81"/>
<path d="M74.5929 6.91293L74.8269 6.94593C74.8179 6.90693 74.8429 6.87993 74.8759 6.85693C74.7359 6.86393 74.5769 6.84393 74.5929 6.91293Z" fill="#FBED81"/>
<path d="M74.874 6.85799C74.9388 6.86 75.0017 6.83627 75.049 6.79199C74.9872 6.80317 74.9279 6.82554 74.874 6.85799Z" fill="#FBED81"/>
<path d="M74.1238 8.1615C74.0418 8.1615 73.9538 8.11951 73.9238 8.20251L74.1488 8.3265C74.2258 8.2855 74.2118 8.2025 74.1238 8.1615Z" fill="#FBED81"/>
<path d="M81.7527 0.680203L81.6377 0.408203L81.7057 0.681203L81.7527 0.680203Z" fill="#FBED81"/>
<path d="M81.5138 0.712281L81.4938 0.363281L81.4238 0.541281C81.4725 0.586316 81.5043 0.646668 81.5138 0.712281Z" fill="#FBED81"/>
</g>
<g clip-path="url(#clip3_102153_2)">
<path d="M104.82 0.277488C104.872 0.219488 104.853 0.0474883 104.861 0.000488281C104.769 0.170488 104.823 0.326488 104.82 0.277488Z" fill="#FBED81"/>
<path d="M104.031 1.89233L103.968 2.27533L104.038 1.99433L104.031 1.89233Z" fill="#FBED81"/>
<path d="M103.715 2.61195L103.765 2.64795L103.728 2.29395C103.567 2.60595 103.442 3.11695 103.285 3.22595C103.519 3.40595 103.526 2.72495 103.715 2.61195Z" fill="#FBED81"/>
<path d="M102.566 3.19385C102.553 3.19714 102.539 3.19882 102.526 3.19885C102.496 3.24704 102.463 3.29285 102.426 3.33585C102.543 3.39285 102.404 3.58585 102.566 3.19385Z" fill="#FBED81"/>
<path d="M102.524 3.199C102.394 3.209 102.612 3.043 102.524 3.199V3.199Z" fill="#FBED81"/>
<path d="M102.156 3.94351L102.191 3.66051C102.113 3.64451 101.991 3.81251 101.991 3.70551C101.912 3.96151 101.998 3.96851 102.156 3.94351Z" fill="#FBED81"/>
<path d="M102.249 4.16477C102.216 4.15977 102.191 4.17877 102.229 4.29777L102.249 4.16477Z" fill="#FBED81"/>
<path d="M102.277 4.04142C102.339 4.12942 102.293 4.02042 102.297 3.87842L102.249 4.16542C102.301 4.17442 102.384 4.25042 102.277 4.04142Z" fill="#FBED81"/>
<path d="M102.594 3.91651C102.77 3.52751 102.594 3.38851 102.403 3.79351C102.518 3.74251 102.625 3.64451 102.594 3.91651Z" fill="#FBED81"/>
<path d="M103.431 3.5888L103.549 3.5498V3.3418C103.551 3.4488 103.372 3.5058 103.431 3.5888Z" fill="#FBED81"/>
<path d="M101.61 5.15283V5.43183C101.716 5.24683 101.686 5.18383 101.61 5.15283Z" fill="#FBED81"/>
<path d="M102.488 4.58582C102.483 4.41782 102.483 4.24582 102.488 4.06982C102.472 4.26982 102.462 4.46182 102.458 4.65082L102.488 4.58582Z" fill="#FBED81"/>
<path d="M102.087 4.77319L101.925 5.05219L102 4.95219L102.087 4.77319Z" fill="#FBED81"/>
<path d="M101.491 5.05016C101.469 5.06874 101.443 5.08135 101.415 5.08678C101.387 5.09221 101.357 5.09028 101.33 5.08116C101.385 5.13216 101.53 5.11716 101.613 5.15316L101.62 4.96216C101.587 4.98116 101.548 5.01116 101.508 5.03816C101.546 4.90216 101.364 4.83816 101.435 4.74316C101.302 4.80986 101.192 4.91418 101.117 5.04316C101.173 5.00635 101.238 4.9873 101.305 4.98855C101.372 4.9898 101.437 5.01129 101.491 5.05016Z" fill="#FBED81"/>
<path d="M100.965 5.22197C101.022 5.16816 101.073 5.10812 101.117 5.04297C101.053 5.09059 101.002 5.15174 100.965 5.22197Z" fill="#FBED81"/>
<path d="M101.129 5.84815L101.352 5.85615L101.396 5.77415C101.349 5.76411 101.3 5.76559 101.253 5.77848C101.207 5.79136 101.164 5.81526 101.129 5.84815Z" fill="#FBED81"/>
<path d="M101.35 5.85596L101.299 5.94596H101.305L101.357 5.85996L101.35 5.85596Z" fill="#FBED81"/>
<path d="M101.406 5.75317L101.395 5.77417C101.417 5.77517 101.425 5.77317 101.406 5.75317Z" fill="#FBED81"/>
<path d="M102.065 5C102.069 5.10517 102.086 5.20949 102.114 5.311C102.119 5.32176 102.124 5.33213 102.131 5.342L101.813 5.573C101.764 5.555 101.693 5.546 101.677 5.466V5.666L101.304 5.937V5.943L101.681 5.669V5.769L101.83 5.576L101.816 5.571L102.133 5.341C102.168 5.394 102.227 5.414 102.333 5.36C102.261 5.2 102.109 5.281 102.065 5Z" fill="#FBED81"/>
<path d="M101.685 5.90919V5.77319L101.63 5.84519L101.685 5.90919Z" fill="#FBED81"/>
<path d="M101.434 5.52346C101.442 5.45846 101.477 5.33646 101.35 5.36346C101.276 5.44655 101.176 5.5005 101.066 5.51546C101.187 5.53811 101.311 5.54081 101.434 5.52346Z" fill="#FBED81"/>
<path d="M101.8 5.35059L101.782 5.36459C101.797 5.37959 101.807 5.38359 101.8 5.35059Z" fill="#FBED81"/>
<path d="M99.9697 5.66848L99.9927 5.70248V5.66748L99.9697 5.66848Z" fill="#FBED81"/>
<path d="M101.458 5.55337C101.558 5.57937 101.6 5.52237 101.642 5.45337C101.576 5.48502 101.505 5.50724 101.432 5.51937C101.43 5.54937 101.431 5.56837 101.458 5.55337Z" fill="#FBED81"/>
<path d="M100.673 5.36066C100.727 5.39596 100.784 5.42546 100.844 5.44866C100.79 5.39166 100.682 5.30566 100.673 5.36066Z" fill="#FBED81"/>
<path d="M101.743 5.31359L101.755 5.30259C101.72 5.26359 101.726 5.28459 101.743 5.31359Z" fill="#FBED81"/>
<path d="M101.744 5.31348C101.703 5.35475 101.67 5.40197 101.644 5.45348C101.694 5.43122 101.741 5.40119 101.783 5.36448C101.767 5.34915 101.754 5.33202 101.744 5.31348Z" fill="#FBED81"/>
<path d="M100.388 5.66543L100.469 5.62943C100.343 5.58981 100.229 5.51735 100.139 5.41943C100.011 5.53143 99.9922 5.60443 99.9912 5.66843L100.412 5.63343L100.388 5.66543Z" fill="#FBED81"/>
<path d="M100.851 5.57357C100.814 5.78657 100.623 5.90257 100.78 6.10357C101.027 6.05357 100.93 5.90857 101.066 5.80357C100.671 5.91257 101.166 5.67357 100.858 5.60357C100.923 5.56474 100.993 5.53576 101.067 5.51757C100.991 5.50414 100.917 5.48337 100.846 5.45557L100.857 5.46657C100.878 5.48957 100.886 5.50457 100.865 5.49257C100.865 5.49257 100.859 5.49257 100.857 5.49757C100.858 5.52409 100.855 5.55063 100.85 5.57657C100.728 5.55157 100.824 5.52757 100.857 5.49757V5.46657L100.471 5.63557C100.6 5.64209 100.73 5.62095 100.851 5.57357Z" fill="#FBED81"/>
<path d="M102.593 5.81429C102.576 5.81488 102.56 5.80995 102.547 5.80029C102.556 5.83829 102.566 5.85629 102.593 5.81429Z" fill="#FBED81"/>
<path d="M101.936 5.85302L101.888 5.84302C101.89 5.85202 101.909 5.85402 101.936 5.85302Z" fill="#FBED81"/>
<path d="M101.936 5.85222C102.092 5.89081 102.252 5.9073 102.413 5.90122C102.402 5.85922 102.344 5.79322 102.407 5.71422C102.497 5.66922 102.489 5.76822 102.548 5.80022C102.528 5.71922 102.52 5.52922 102.348 5.64622L102.358 5.68822C102.233 5.77649 102.088 5.83279 101.936 5.85222Z" fill="#FBED81"/>
<path d="M101.838 5.93896L101.517 6.08696L101.717 6.23796L101.693 6.13796C101.886 6.14696 101.826 6.02296 101.838 5.93896Z" fill="#FBED81"/>
<path d="M99.9283 5.35254L99.7783 5.68354L99.9143 5.57354L99.9283 5.35254Z" fill="#FBED81"/>
<path d="M99.475 5.47461L99.375 5.60361L99.485 5.66261L99.475 5.47461Z" fill="#FBED81"/>
<path d="M98.9824 13.4208L99.1934 13.4118C99.1844 13.3696 99.1861 13.3259 99.1985 13.2846C99.2109 13.2434 99.2336 13.2059 99.2644 13.1758C99.0664 13.2848 98.7704 13.4028 98.9824 13.4208Z" fill="#FBED81"/>
<path d="M97.0527 9.16749C97.0736 9.27917 97.1206 9.38435 97.1897 9.47449C97.1637 9.28449 97.2007 9.07249 97.0527 9.16749Z" fill="#FBED81"/>
<path d="M108.392 17.2458C108.418 17.2476 108.445 17.2419 108.469 17.2294C108.492 17.2168 108.512 17.1979 108.526 17.1748C108.454 17.1768 108.404 17.1948 108.392 17.2458Z" fill="#FBED81"/>
<path d="M97.4485 9.72612C97.4485 9.69612 97.4385 9.67412 97.4355 9.64512C97.3403 9.60984 97.2557 9.55101 97.1895 9.47412C97.2085 9.61512 97.2605 9.74312 97.4485 9.72612Z" fill="#FBED81"/>
<path d="M105.696 1.71871C105.672 1.66236 105.635 1.61285 105.587 1.57471C105.627 1.61962 105.664 1.66778 105.696 1.71871Z" fill="#FBED81"/>
<path d="M97.7217 5.82322C97.7327 5.79822 97.8117 5.79622 97.7217 5.82322V5.82322Z" fill="#FBED81"/>
<path d="M97.8741 5.89993C97.8342 5.87923 97.7913 5.86473 97.7471 5.85693C97.7873 5.8769 97.83 5.89137 97.8741 5.89993Z" fill="#FBED81"/>
<path d="M97.8408 5.80721L97.9248 5.81521C97.9308 5.77921 97.9178 5.75621 97.8408 5.80721Z" fill="#FBED81"/>
<path d="M97.5947 5.8581C97.6449 5.8486 97.6965 5.8486 97.7467 5.8581C97.7267 5.8471 97.7177 5.8361 97.7217 5.8291L97.5947 5.8581Z" fill="#FBED81"/>
<path d="M113.201 7.73083C113.275 7.75256 113.355 7.75256 113.429 7.73083L114.188 7.53105L113.08 6.65402C112.701 6.35435 111.781 6.43126 111.66 6.28442C111.539 6.35086 111.405 6.3905 111.267 6.40066C111.129 6.41083 110.991 6.39129 110.861 6.34336C110.926 6.41029 110.925 6.72194 110.677 6.64303C110.862 6.02671 110.252 6.3024 110.114 5.81894C110.252 6.14658 109.381 5.78797 109.607 6.25745C109.407 6.17554 109.629 6.01972 109.49 5.84791C108.952 6.01872 108.404 5.52826 107.77 5.52027C107.757 5.57021 107.779 5.64313 107.77 5.72005C107.764 5.72005 107.758 5.72005 107.751 5.71106C107.564 5.01201 107.243 4.35571 106.807 3.77818C106.362 3.10952 106.019 2.37829 105.789 1.60857C105.856 1.92622 105.777 1.83332 105.696 1.71745C105.738 1.83432 105.644 1.91723 105.626 2.04109C105.554 1.77472 105.473 1.51068 105.382 1.24897C105.282 1.47172 105.045 0.757507 104.999 1.00823L105.093 1.10812C105.038 1.34773 105.038 1.59671 105.093 1.83632L104.867 1.37782L102.355 6.46623L100.664 6.71195C100.676 6.71073 100.686 6.70541 100.694 6.69697L100.671 6.59708C100.564 6.61906 100.502 6.69697 100.571 6.72993L100.272 6.77389C100.428 6.58909 100.217 6.01972 99.9978 5.71006C100.004 5.79197 100.015 5.86688 99.824 6.00973C99.9109 6.10063 100.315 6.18154 100.167 6.37533C99.9079 6.51118 99.9328 6.34236 99.786 6.26245C99.9159 6.45324 99.5862 6.61107 99.5862 6.87677L97.9259 7.11851C97.9297 7.10366 97.9298 7.08806 97.9259 7.07319C97.9221 7.05833 97.9145 7.0447 97.9039 7.0336L97.756 7.09154C97.5852 6.90874 98.0038 6.76789 97.796 6.70097C97.9818 6.52716 98.1796 6.26844 98.4863 6.34136L98.5862 6.62205C98.573 6.59771 98.5544 6.57674 98.5317 6.56078C98.5091 6.54483 98.4831 6.53431 98.4557 6.53006C98.4284 6.5258 98.4004 6.52792 98.374 6.53626C98.3476 6.54459 98.3234 6.55891 98.3035 6.5781C98.4034 6.43226 98.803 6.90374 98.8829 6.50718L98.6501 6.33737C98.8359 6.16156 99.0497 5.81894 99.3185 5.87288C99.1596 5.60517 99.2635 5.91383 99.0327 5.60717C99.2515 5.99874 98.3724 5.68608 98.6901 6.08365C98.4463 5.72404 98.3414 5.96677 98.0487 5.6731C98.0697 5.76699 98.1616 5.84191 97.9388 5.82693C97.9311 5.85858 97.9193 5.88912 97.9039 5.91783H97.8879L97.9019 5.92782C97.8939 5.9438 97.8939 5.9458 97.9019 5.92782C97.9567 5.95773 98.002 6.00236 98.0327 6.05668C97.9568 6.29042 97.6122 6.33337 97.5133 6.46423C97.3784 6.43726 97.5512 6.34736 97.4663 6.25546L97.3175 6.45024C97.2695 6.24247 96.9259 6.15057 97.2096 5.98076L96.9368 6.01073C96.8181 5.94444 96.6804 5.92048 96.5462 5.9428L93.759 6.55812L95.789 8.27224C95.8274 8.30602 95.8738 8.3294 95.9239 8.34016C95.9848 8.46403 96.3235 8.3991 96.1237 8.44005L96.5233 8.64583L96.4883 8.68678C96.774 9.00243 97.3614 9.04439 97.4403 9.65871C97.6147 9.715 97.7637 9.83103 97.8609 9.98635L97.761 10.1512C97.9368 10.2331 98.0268 10.6686 98.2176 10.5857C98.0178 11.0801 98.78 11.2849 98.9498 11.5736L99.1266 11.4098C99.238 11.5218 99.3682 11.6135 99.5113 11.6805C99.3564 12.0441 99.804 12.5286 99.4603 12.8132C99.4858 12.8515 99.4955 12.8982 99.4873 12.9435C99.4791 12.9887 99.4537 13.0291 99.4164 13.056C99.4169 13.0465 99.4144 13.0371 99.4094 13.029C99.4047 13.0423 99.4013 13.056 99.3994 13.07C99.3564 13.1079 99.3065 13.1459 99.2635 13.1898C99.3132 13.1644 99.3582 13.1307 99.3964 13.0899C99.3874 13.1987 99.3976 13.3083 99.4263 13.4136L99.1926 13.4236V13.4515C99.0927 13.5514 99.2835 13.5604 99.4643 13.5295C99.4904 13.5937 99.5276 13.6529 99.5742 13.7043C99.1946 13.7342 99.6451 14.0269 99.2355 14.0858C99.4114 14.1957 99.2785 14.6852 99.6671 14.817C99.6142 14.817 99.5832 14.842 99.5912 14.7791C99.5233 14.8999 99.4563 15.0198 99.5492 15.1537H99.2495L99.5872 15.4993C99.3874 15.6391 99.2695 15.6921 99.0787 15.4853C99.3484 15.9508 99.1496 15.8379 99.4273 16.2415L99.2445 16.1925C99.2305 16.3174 99.4443 16.5581 99.2785 16.6061C99.2281 16.6348 99.1852 16.6752 99.1536 16.7239L98.6022 17.5231L100.154 17.4461C100.602 17.4242 101.334 16.8108 102.031 16.7739C101.649 16.3484 102.442 16.8378 102.268 16.4442C102.368 16.5441 102.49 16.5601 102.439 16.7149C102.705 16.4303 103.025 16.642 103.082 16.2035C103.182 16.3034 103.102 16.4093 103.171 16.4612C103.184 16.4223 103.221 16.3054 103.291 16.3613C103.362 16.4173 103.291 16.4842 103.269 16.5611C103.592 16.3663 103.437 15.9917 103.285 15.6431C103.538 15.713 103.61 15.6431 103.616 15.3624C103.733 15.4413 103.891 15.5043 103.704 15.6531C103.829 15.6082 104.503 15.4404 104.369 15.1657C104.441 15.2146 104.542 15.0997 104.556 15.0528C104.7 14.9969 104.84 14.9335 104.977 14.863C105.259 15.2126 105.206 14.822 105.512 15.3035L105.593 15.0877C105.865 14.6772 105.873 15.5612 106.231 15.5382L106.194 15.3714C106.419 15.3015 106.293 16.1795 106.417 16.3114C106.43 16.3663 106.334 16.3454 106.274 16.3493C106.529 16.8098 106.463 16.1116 106.786 16.2035C106.765 16.3743 106.526 16.5302 106.708 16.659C106.745 16.8248 107.518 16.4932 107.641 16.9077C107.641 16.7669 107.641 16.626 107.818 16.6151C108.045 16.685 108.159 17.3233 108.527 17.0756C108.537 17.1107 108.534 17.1482 108.519 17.1814C108.724 17.1744 109.111 17.3023 109.304 17.1645C109.232 17.4202 109.333 17.5261 109.49 17.577L111.21 18.1314L110.698 16.7C110.586 16.3863 110.157 16.0307 110.636 15.9508L110.505 15.4164H110.581C110.583 15.2951 110.546 15.1764 110.473 15.079C110.401 14.9816 110.298 14.9109 110.182 14.878C110.217 14.7891 110.293 14.837 110.332 14.837C110.39 14.3076 110.351 14.2616 109.922 13.899L110.147 13.8151C109.992 13.7232 110.385 13.022 110.03 12.5735C110.071 12.5715 110.111 12.5846 110.144 12.6105C109.808 12.145 110.425 11.3299 109.873 11.1441C109.999 11.0502 110.119 10.9443 110.218 11.0542C110.883 10.3749 111.716 9.90544 112.369 9.29811L112.054 9.1213L112.289 8.92152C112.404 8.92152 112.558 9.03939 112.389 9.18423C112.61 9.24417 112.54 8.80665 112.489 8.74771C112.898 8.54793 112.651 9.15627 112.752 9.06936L112.863 8.92452H112.805C112.811 8.72474 112.715 8.60387 112.917 8.42507C113.087 8.35714 113.129 8.51897 113.186 8.48201C113.203 8.49999 113.227 8.49299 113.265 8.41808L113.565 8.16635L113.265 8.07845C113.303 7.85669 113.547 7.82773 113.201 7.73083ZM99.9568 12.151L100.124 12.103L99.9988 11.7754C100.158 11.8833 100.387 12.0671 100.621 12.2668L100.537 12.7583C100.292 12.612 100.092 12.4021 99.9568 12.151ZM99.8279 10.4528C99.8388 10.4166 99.8564 10.3827 99.8799 10.3529L100.118 10.5857L99.8699 10.8494L100.151 10.6187L100.384 10.8454C100.253 10.9881 100.107 11.116 99.9478 11.227L99.9049 11.0931L99.8759 11.1471C99.8271 10.9181 99.811 10.6834 99.8279 10.4498V10.4528ZM107.766 5.73703C107.761 5.76102 107.751 5.78379 107.737 5.80401C107.723 5.82423 107.706 5.84153 107.685 5.8549L107.506 5.54823L107.766 5.73703ZM100.237 6.77289L99.8869 6.82383C99.9061 6.79721 99.9304 6.77468 99.9584 6.75753C99.9864 6.74038 100.017 6.72897 100.05 6.72395C100.082 6.71893 100.115 6.72041 100.147 6.72829C100.179 6.73618 100.209 6.75032 100.236 6.76989L100.237 6.77289ZM99.815 6.82084V6.83482H99.791L99.815 6.82084ZM96.738 6.16156L96.7321 6.17355C96.5682 6.10462 96.6262 6.13259 96.737 6.15956L96.738 6.16156ZM97.1257 8.49299C96.814 8.32718 97.2016 8.20431 97.1197 8.20431C96.757 7.7638 96.3444 8.20431 96.1337 7.89865L95.0637 6.33737L96.6112 6.42827C96.665 6.43293 96.7178 6.44538 96.768 6.46523C97.0128 6.68798 96.8499 6.96468 96.9229 7.14248C96.8618 7.17569 96.7922 7.18962 96.7231 7.18244L96.5522 7.16446L96.6681 7.35225C96.753 7.4891 96.743 7.66291 96.8439 7.75181L96.763 7.50408C96.8859 7.50408 97.0627 7.58699 97.0827 7.70986C97.0846 7.67015 97.0763 7.63063 97.0587 7.59498L97.9888 8.50099C97.7082 8.59762 97.4029 8.59409 97.1247 8.491L97.1257 8.49299ZM98.8859 9.6687C98.9387 9.61915 98.9773 9.55638 98.9978 9.4869L99.1976 9.67869C99.0932 9.69981 98.9853 9.69571 98.8829 9.6667L98.8859 9.6687ZM100.051 15.5992L100.012 15.8289L99.6341 15.5293C99.7696 15.5678 99.909 15.5905 100.05 15.5972L100.051 15.5992ZM103.278 15.4433C103.216 15.4204 103.201 15.3105 103.196 15.1696C103.185 15.2024 103.176 15.2358 103.169 15.2695C103.139 15.2626 103.112 15.2491 103.089 15.23C103.065 15.211 103.046 15.187 103.034 15.1597L103.193 15.0758V15.1756L103.233 15.0568L103.304 15.0188C103.378 15.061 103.453 15.0986 103.531 15.1317L103.278 15.4433ZM110.483 15.6981C110.439 15.7325 110.403 15.7752 110.375 15.8239L110.361 15.786L110.483 15.6981ZM109.484 11.8193L109.467 11.7884L109.587 11.3768C109.196 11.6665 109.379 11.0602 109.138 11.0971C109.238 10.9283 109.67 10.9403 109.537 11.1341L109.48 11.1291C109.497 11.1659 109.525 11.1966 109.56 11.2173C109.594 11.238 109.635 11.2477 109.675 11.245L109.484 11.8193ZM113.074 8.3941C113.127 8.24926 113.141 8.32018 113.16 8.3941H113.074Z" fill="#FBED81"/>
<path d="M98.6617 5.58643L98.4707 5.67543C98.5041 5.66768 98.5389 5.66809 98.5722 5.67662C98.6054 5.68514 98.6361 5.70154 98.6617 5.72443C98.6497 5.66843 98.5997 5.59943 98.6617 5.58643Z" fill="#FBED81"/>
<path d="M99.2261 6.36666C99.2261 6.09366 99.0921 6.20266 98.9561 6.31266C99.0001 6.50166 99.1161 6.41866 99.2511 6.36266C99.243 6.36542 99.2346 6.36677 99.2261 6.36666Z" fill="#FBED81"/>
<path d="M99.4115 6.32855C99.4115 6.21955 99.3555 6.31355 99.2825 6.35155C99.3234 6.33501 99.3673 6.32718 99.4115 6.32855Z" fill="#FBED81"/>
<path d="M97.4408 6.0282C97.5148 6.0672 97.4468 5.7782 97.4958 5.8502C97.5348 5.5962 97.0958 6.2092 97.4408 6.0282Z" fill="#FBED81"/>
<path d="M99.1614 6.92627L99.0764 6.69727L99.0254 6.89727L99.1614 6.92627Z" fill="#FBED81"/>
<path d="M98.0304 6.91293L98.2644 6.94593C98.2554 6.90693 98.2804 6.87993 98.3134 6.85693C98.1734 6.86393 98.0144 6.84393 98.0304 6.91293Z" fill="#FBED81"/>
<path d="M98.3115 6.85799C98.3763 6.86 98.4392 6.83627 98.4865 6.79199C98.4247 6.80317 98.3654 6.82554 98.3115 6.85799Z" fill="#FBED81"/>
<path d="M97.5613 8.1615C97.4793 8.1615 97.3913 8.11951 97.3613 8.20251L97.5863 8.3265C97.6633 8.2855 97.6493 8.2025 97.5613 8.1615Z" fill="#FBED81"/>
<path d="M105.19 0.680203L105.075 0.408203L105.143 0.681203L105.19 0.680203Z" fill="#FBED81"/>
<path d="M104.951 0.712281L104.931 0.363281L104.861 0.541281C104.91 0.586316 104.942 0.646668 104.951 0.712281Z" fill="#FBED81"/>
</g>
<defs>
<clipPath id="clip0_102153_2">
<rect width="20.4375" height="18.125" fill="white"/>
</clipPath>
<clipPath id="clip1_102153_2">
<rect width="20.4375" height="18.125" fill="white" transform="translate(46.875)"/>
</clipPath>
<clipPath id="clip2_102153_2">
<rect width="20.4375" height="18.125" fill="white" transform="translate(70.3125)"/>
</clipPath>
<clipPath id="clip3_102153_2">
<rect width="20.4375" height="18.125" fill="white" transform="translate(93.75)"/>
</clipPath>
</defs>
</svg>
