<svg width="337" height="97" viewBox="0 0 337 97" fill="none" xmlns="http://www.w3.org/2000/svg">
<g clip-path="url(#clip0_5_1214)">
<mask id="mask0_5_1214" style="mask-type:luminance" maskUnits="userSpaceOnUse" x="0" y="0" width="336" height="97">
<path d="M255.907 6.91499C255.504 6.61868 255.504 7.11254 255.403 7.11254C256.108 7.40886 256.008 6.81622 255.907 6.91499Z" fill="white"/>
<path d="M316.233 10.2725H316.031L317.139 10.6676L316.233 10.2725Z" fill="white"/>
<path d="M321.269 14.9153C321.269 14.4215 320.866 14.0264 320.262 13.6313C319.658 13.2362 319.154 12.8411 318.65 12.2485V11.9521H317.845C318.449 12.446 319.154 12.9399 319.758 13.4337C320.362 13.8288 320.866 14.3227 321.269 14.9153Z" fill="white"/>
<path d="M322.477 19.9521C322.578 19.6558 323.182 20.3472 321.974 19.2607C321.974 19.3595 321.974 19.3595 321.974 19.4583C322.276 19.5571 322.376 19.7546 322.477 19.9521Z" fill="white"/>
<path d="M322.074 17.9775C321.57 17.4837 322.275 18.4714 322.074 17.9775V17.9775Z" fill="white"/>
<path d="M324.29 22.0262L323.887 21.7299C323.686 21.5324 323.484 21.4336 323.484 21.4336C323.484 21.6311 323.887 22.3225 323.686 22.2238C324.29 22.8164 324.29 22.6189 324.29 22.0262Z" fill="white"/>
<path d="M325.196 22.5209L324.793 22.2246C324.793 22.2246 324.894 22.4222 325.196 22.5209Z" fill="white"/>
<path d="M323.987 21.4336L324.793 22.125C324.793 21.9275 324.994 21.8287 324.491 21.8287C324.692 21.7299 324.39 21.6311 323.987 21.4336Z" fill="white"/>
<path d="M323.787 20.7423C323.585 20.2484 323.182 19.6558 323.988 20.2484C322.779 18.8656 322.578 19.4583 323.787 20.7423Z" fill="white"/>
<path d="M322.074 14.6186L321.672 13.9272L321.067 13.6309C321.37 13.8284 321.873 14.8161 322.074 14.6186Z" fill="white"/>
<path d="M327.009 27.3599C327.21 27.3599 327.21 26.8661 327.311 26.7673L326.808 26.2734C327.009 26.5698 327.21 27.2612 327.009 27.3599Z" fill="white"/>
<path d="M327.412 26.7679L328.117 27.5581C327.714 26.7679 327.513 26.6692 327.412 26.7679Z" fill="white"/>
<path d="M325.901 22.1256L324.491 21.0391L326.103 22.4219L325.901 22.1256Z" fill="white"/>
<path d="M328.822 31.1138L328.318 30.7188L329.225 31.4102L328.822 31.1138Z" fill="white"/>
<path d="M329.829 33.6821C329.426 33.3858 329.527 34.3735 329.225 34.0772C329.527 34.6698 329.93 35.1637 330.332 35.5588C330.03 34.9662 329.829 34.3735 329.829 33.6821Z" fill="white"/>
<path d="M328.822 29.3359C328.721 29.6323 328.721 29.9286 328.822 30.2249L329.023 29.731L328.822 29.3359Z" fill="white"/>
<path d="M329.023 29.7305C329.124 30.0268 329.225 30.2243 329.326 30.5206C329.326 30.4219 329.225 30.1256 329.023 29.7305Z" fill="white"/>
<path d="M327.109 24.8906C327.613 25.2857 328.519 26.2734 328.217 24.9894C327.714 24.7919 327.915 25.4833 327.109 24.8906Z" fill="white"/>
<path d="M329.023 28.4467L328.822 27.9528C328.721 27.6565 328.621 27.459 328.621 27.459C328.52 27.5578 328.52 27.7553 328.218 27.5578C328.218 27.5578 328.419 27.7553 328.621 28.0516L329.023 28.4467Z" fill="white"/>
<path d="M329.426 28.941L329.023 28.5459L329.225 28.941H329.426Z" fill="white"/>
<path d="M330.735 34.4717C331.037 34.8668 331.34 35.3607 331.44 35.8545C331.34 35.2619 331.239 34.6693 330.937 34.0766C330.735 33.9778 330.433 33.8791 330.735 34.4717Z" fill="white"/>
<path d="M332.749 41.88L332.85 41.7812H332.749V41.88Z" fill="white"/>
<path d="M330.937 33.7806C330.836 33.3855 330.736 33.0891 330.434 32.8916C330.635 33.1879 330.736 33.583 330.937 33.8793C330.937 33.9781 331.038 33.9781 330.937 33.7806Z" fill="white"/>
<path d="M331.541 38.0275C331.541 37.7312 331.541 37.4348 331.541 37.2373C331.441 37.4348 331.441 37.9287 331.541 38.0275Z" fill="white"/>
<path d="M330.03 32.3975C329.93 32.4975 329.93 32.4975 330.03 32.3975V32.3975Z" fill="white"/>
<path d="M330.03 32.3977C330.131 32.5953 330.332 32.6941 330.534 32.8916C330.433 32.6941 330.232 32.3977 330.131 32.2002C330.03 32.299 330.03 32.299 330.03 32.3977Z" fill="white"/>
<path d="M335.67 43.3616C335.468 43.3616 335.267 43.0653 335.065 42.5714C334.864 42.0776 334.864 41.4849 334.965 40.9911C334.461 40.0033 333.353 40.8923 332.749 41.88C332.95 41.88 333.051 41.88 333.454 42.8677C333.655 42.4727 333.555 40.3984 334.058 41.2874C334.562 42.6702 334.159 42.4726 333.958 43.1641C334.36 42.4726 334.864 44.942 335.569 44.5469L335.166 43.2628C335.368 43.2628 335.569 43.6579 335.67 43.3616Z" fill="white"/>
<path d="M332.448 39.7066L332.347 39.3115C332.347 39.8054 332.347 40.398 332.146 40.8919C332.448 41.5833 332.649 41.6821 332.75 41.6821L332.548 40.5956C332.548 40.2005 332.448 39.9042 332.347 39.5091L332.448 39.7066Z" fill="white"/>
<path d="M331.843 37.1392C332.347 37.3368 332.75 38.3245 333.052 37.6331C332.649 36.349 332.448 36.8429 332.045 36.1515C332.75 38.127 331.642 35.5589 331.843 37.1392C331.743 36.7441 331.541 36.4478 331.44 36.0527C331.541 36.4478 331.541 36.7441 331.541 37.1392V37.0405C331.541 36.9417 331.541 36.9417 331.541 37.0405C331.642 37.0405 331.743 37.1392 331.843 37.1392C331.944 37.7319 331.743 37.238 331.642 37.1392C331.642 37.1392 331.642 37.1392 331.541 37.1392C331.642 37.4355 331.843 37.7319 331.944 38.127L332.347 39.1147C332.145 38.4233 332.045 37.7319 331.843 37.1392Z" fill="white"/>
<path d="M329.526 25.582C329.526 25.582 329.526 25.6808 329.426 25.6808C329.627 25.7796 329.728 25.7796 329.526 25.582Z" fill="white"/>
<path d="M329.829 26.5704C329.526 26.4717 329.325 26.1753 329.224 25.9778C329.124 25.4839 329.426 25.879 329.526 25.7803C329.224 25.5827 328.721 24.9901 329.023 25.879L329.124 25.9778C329.426 26.768 329.526 28.052 329.325 27.9532C329.627 27.4594 329.829 27.0643 329.829 26.5704Z" fill="white"/>
<path d="M331.239 31.9043C331.239 31.9043 331.441 32.2994 331.642 32.6945C331.844 33.0896 332.045 33.4847 332.045 33.4847V32.4969L331.844 32.5957C331.642 31.608 331.441 32.0031 331.239 31.9043Z" fill="white"/>
<path d="M332.548 42.1761L332.045 41.9785L332.448 42.3736C332.649 42.5712 332.851 42.8675 332.851 42.8675C332.851 42.7687 332.75 42.5711 332.75 42.4724L332.548 42.1761Z" fill="white"/>
<path d="M332.85 44.5469H332.447L332.749 45.1395L332.85 44.5469Z" fill="white"/>
<path d="M7.15089 69.734L6.74805 69.3389C6.84876 69.5364 7.05018 69.6352 7.15089 69.734Z" fill="white"/>
<path d="M9.66842 73.3885H9.86984C9.66842 73.2898 9.5677 73.2898 9.66842 73.3885Z" fill="white"/>
<path d="M235.967 89.5875C235.161 89.3899 234.154 89.0936 234.355 89.4887L234.657 89.8838C235.06 89.6862 235.564 89.5875 235.967 89.5875Z" fill="white"/>
<path d="M116.725 90.6738L116.825 90.8714L117.43 90.6738H116.725Z" fill="white"/>
<path d="M111.487 92.1551L110.581 91.5625C110.883 91.76 111.185 91.9576 111.487 92.1551Z" fill="white"/>
<path d="M1.20898 46.3242L0.806137 45.6328C0.705426 46.6205 1.00756 46.2254 1.20898 46.3242Z" fill="white"/>
<path d="M328.62 68.6475C328.218 69.0426 327.915 69.4376 327.613 69.9315C328.218 69.3389 328.822 69.0426 328.62 68.6475Z" fill="white"/>
<path d="M11.7829 68.4502C11.5814 68.2526 11.38 68.1538 11.2793 68.2526C11.5814 68.4502 11.7829 68.5489 11.7829 68.4502Z" fill="white"/>
<path d="M326.606 71.6105C326.707 71.5117 326.808 71.4129 326.909 71.4129C327.11 70.9191 327.311 70.524 327.614 70.1289C327.11 70.4252 326.808 71.0179 326.606 71.6105Z" fill="white"/>
<path d="M189.337 0.592773C189.438 0.592773 189.438 0.592773 189.538 0.691546C189.538 0.592773 189.438 0.592773 189.337 0.592773Z" fill="white"/>
<path d="M257.015 7.11244C256.813 7.11244 256.411 7.01367 256.108 7.01367C256.411 7.11244 256.713 7.11244 257.015 7.11244Z" fill="white"/>
<path d="M332.548 54.2265C332.447 54.1278 332.548 53.7327 332.548 54.2265V54.2265Z" fill="white"/>
<path d="M332.548 53.5352L332.649 53.1401C332.649 53.0413 332.548 53.1401 332.548 53.5352Z" fill="white"/>
<path d="M332.447 54.9181C332.447 54.6218 332.548 54.4242 332.548 54.1279C332.548 54.2267 332.447 54.2267 332.447 54.2267C332.447 54.4242 332.447 54.6218 332.447 54.9181Z" fill="white"/>
<path d="M21.6533 12.5443H21.754C22.0562 12.0505 21.8547 12.1493 21.6533 12.5443Z" fill="white"/>
<path d="M195.48 96.304C195.984 95.9089 196.689 95.7114 197.394 95.9089L196.689 94.7236L195.48 96.304Z" fill="white"/>
<path d="M6.64678 60.1528C6.64678 60.6467 6.74749 61.1406 6.8482 61.7332C5.63967 61.2393 4.53185 60.6467 3.52474 59.9553C3.02118 59.659 2.71905 59.659 2.51763 60.4492C4.53185 60.3504 5.9418 61.7332 7.45247 63.116C9.06385 64.4988 10.9774 65.7829 12.8909 65.5853C12.9916 65.8816 13.193 66.2767 13.3944 66.573C13.0923 66.1779 12.8909 66.1779 12.488 65.8816C12.8909 66.8693 13.9987 67.0669 15.4086 67.2644C17.02 67.462 18.5307 67.9558 19.9406 68.746C20.9478 69.5362 21.3506 70.1288 20.0414 69.7337C20.0414 69.7337 20.9478 70.1288 21.9549 70.4252L23.9691 71.1166C24.7748 71.6104 23.9691 71.6104 23.1634 71.1166L25.6812 72.2031C26.9904 72.7957 28.4004 73.2896 28.4004 73.2896H28.2997C29.5082 73.4871 31.9253 73.981 33.1338 74.1785C34.0402 74.8699 32.1267 73.981 32.1267 74.2773L35.853 75.1662C36.3565 75.8576 33.0331 75.1662 31.0189 74.3761C30.9181 75.3638 31.7238 75.5613 33.1338 75.8576C35.148 76.2527 37.1622 76.9441 38.975 77.9319L35.5509 77.0429C35.9537 78.2282 38.8743 78.9196 41.5935 80.4012C41.09 79.9073 36.8601 77.1417 41.1907 78.1294C42.6006 78.8208 44.212 79.2159 45.8234 79.4134C44.917 79.8085 47.0319 80.3024 49.6504 80.9938L48.2405 81.4877C51.3625 82.0803 51.7653 81.784 53.8803 81.9815C56.9016 82.8705 56.7002 83.3643 56.7002 83.957C61.635 85.3398 54.5853 82.3766 60.8293 83.7594C62.7428 84.3521 64.7571 84.7471 66.6706 85.1422C68.7855 85.5373 71.1019 85.7349 74.0225 86.13C76.8424 86.9201 72.9147 86.4263 73.7204 86.7226L77.2452 86.8214C77.9502 86.9201 77.4467 87.0189 77.2452 87.1177C79.8637 87.414 78.3531 86.525 82.2808 87.1177C84.1943 86.6238 88.6256 89.3895 94.3661 89.2907C95.2725 89.6858 93.359 89.587 93.359 89.8833C100.509 90.2784 99.4017 90.3772 105.545 90.3772L107.66 90.871L109.775 91.3649C106.854 90.4759 111.789 90.4759 115.918 90.3772C114.911 89.9821 114.105 89.6858 113.501 89.4882C113.501 89.4882 115.113 89.587 116.623 89.6858L119.745 89.8833C120.35 90.0809 119.544 90.1796 118.335 90.3772C118.839 90.3772 119.242 90.3772 119.544 90.3772C121.457 90.871 120.047 91.0686 118.235 91.2661C117.63 91.0686 117.026 90.871 116.422 90.6735C114.609 90.871 112.796 91.1673 112.696 91.5624C113.401 91.5624 114.105 91.5624 114.911 91.5624C114.408 91.6612 114.105 91.6612 114.206 91.76C114.911 91.8588 115.616 91.76 116.321 91.76L117.127 92.6489L117.731 92.3526C117.731 92.3526 119.645 92.6489 121.659 92.9453C123.673 93.2416 125.587 93.5379 125.587 93.5379C132.032 93.3403 137.773 92.6489 147.239 92.9453C144.621 93.3403 146.333 93.8342 145.829 94.4268C143.614 93.6367 138.377 94.2293 133.543 93.7354C136.061 94.0317 135.255 94.2293 134.55 94.3281C134.55 94.3281 136.866 94.3281 139.082 94.3281C141.298 94.3281 143.614 94.3281 143.614 94.3281C143.11 94.8219 145.225 94.8219 147.441 95.217C146.232 94.1305 154.289 94.9207 158.016 94.7232C158.116 95.1182 157.109 95.4146 152.779 95.1182C157.311 96.106 159.425 94.2293 163.957 95.0195C163.253 94.9207 162.548 94.9207 161.843 95.1182C164.461 94.9207 170.403 95.3158 168.993 95.6121H167.885C171.41 95.8097 176.848 95.9084 181.582 95.8096C186.215 95.7109 190.142 95.4146 190.646 95.0195C190.747 95.1182 189.74 96.106 189.337 96.3035L191.351 95.8096L195.581 94.7232C197.091 94.3281 198.602 93.933 199.71 93.6367L201.523 93.1428C200.516 93.933 205.249 95.6121 199.408 96.2047C201.926 96.3035 204.343 96.3035 206.86 96.0072C205.652 95.9084 203.738 95.0195 205.249 94.9207C209.781 95.6121 208.371 95.3158 213.91 95.8096C212.097 95.7109 213.608 94.4268 216.327 94.3281C216.025 94.5256 217.032 95.5133 216.126 95.7109L219.248 94.9207C220.859 94.5256 222.37 94.1305 222.37 94.1305C220.759 94.4268 222.571 95.1182 224.283 95.3158C223.478 95.1182 230.225 94.9207 231.937 94.7232H228.916C236.671 94.3281 235.261 92.5502 242.512 91.8588C241.807 92.1551 241.505 93.5379 245.433 93.2416C246.037 92.8465 247.346 91.9575 249.058 90.9698C251.173 89.7845 253.389 88.8956 255.705 88.303L257.216 88.5005L259.23 88.0066C260.237 87.7103 261.244 87.5128 261.244 87.5128C259.633 88.5993 258.022 89.4882 256.209 90.2784C253.892 91.3649 251.576 92.2538 249.159 93.044C252.18 92.9453 250.368 93.3403 254.396 92.7477C256.209 92.8465 252.583 93.5379 251.375 93.6367L256.41 93.1428C258.928 92.9453 261.345 92.5502 261.345 92.5502C260.741 92.2538 262.352 91.8588 263.964 91.3649C265.575 90.871 267.186 90.4759 266.683 90.2784C266.683 90.2784 264.467 90.871 262.05 91.3649L258.827 91.8588C257.921 92.0563 257.317 92.1551 257.317 92.1551C256.712 91.8588 257.719 91.1674 259.633 90.4759C260.741 90.0808 261.949 89.6858 263.158 89.3895C264.669 88.9944 266.079 88.698 267.589 88.5005C269.603 88.5005 267.992 89.7845 268.395 89.9821C269.402 89.587 270.409 89.2907 271.517 89.0931C272.625 88.7968 273.632 88.5993 274.74 88.5005L272.524 89.3895C276.552 88.8956 277.056 87.5128 282.092 87.1177C283.602 86.8214 287.731 86.9201 287.329 86.525C283.703 86.4263 279.372 84.4508 279.775 83.5619L284.207 83.068C286.422 82.8705 288.738 82.4754 289.846 82.4754C293.069 82.3766 289.343 84.5496 292.163 84.4508C291.861 84.2533 292.666 83.7594 292.968 83.5619C294.68 83.2656 293.472 84.1545 296.292 83.2656C295.385 82.5742 302.133 81.4877 296.493 82.3766C298.81 81.3889 299.817 81.5864 302.737 80.4999C300.824 80.4999 302.334 78.5245 304.047 77.438C304.651 77.5368 305.255 77.6355 305.859 77.5368C307.068 77.0429 308.276 76.6478 309.284 76.2527C310.291 75.8576 311.197 75.4625 312.103 75.1662C314.017 74.4748 315.83 73.6846 317.542 72.6969C318.348 72.5981 320.563 71.7092 320.664 72.3018C320.765 71.7092 321.167 71.1166 321.671 70.8202C325.297 69.8325 319.556 72.3018 322.98 71.7092C322.074 71.4129 324.39 69.7337 324.894 68.6473C323.887 68.746 322.98 69.1411 322.275 69.8325C321.57 70.4252 320.966 71.1166 320.462 71.808C319.355 71.6104 318.851 70.919 318.952 70.1288C319.153 68.9436 319.657 67.9558 320.462 66.9681C322.175 65.0915 322.98 66.4743 322.98 66.0792C325.095 64.4 324.894 63.5111 324.592 62.8197C324.289 62.1283 324.289 61.4369 326.102 60.0541C328.519 59.0663 329.325 60.2516 330.634 60.1528C330.131 61.7332 327.613 62.4246 326.807 63.4123L328.721 62.2271C328.62 63.116 328.016 63.9062 327.21 64.3013C327.915 64.005 328.62 63.5111 329.224 63.0172C330.03 62.3258 330.735 61.5356 331.44 60.7455C332.85 58.9676 334.058 56.9921 335.368 55.6093C335.066 55.1154 334.763 54.1277 333.958 54.5228L333.857 55.4118C332.246 56.2019 332.749 53.6339 331.641 54.7204C331.239 53.5351 330.131 52.1523 331.138 50.4731L333.051 50.1768C332.548 50.1768 331.742 51.2633 332.246 51.7572C331.641 51.0658 335.066 49.1891 332.648 48.3989L331.339 49.5842C330.836 48.9916 330.231 48.3002 329.627 47.6087C329.023 47.1149 328.62 46.3247 328.721 45.5345C327.009 46.2259 329.023 45.8308 327.009 46.9173C328.217 46.4235 328.419 47.4112 328.419 48.2014C328.419 48.9916 328.318 49.8805 329.728 49.0903C327.21 50.0781 328.519 50.8682 326.102 52.251C326.707 52.251 327.412 51.7572 326.807 53.0412C327.009 53.14 327.109 53.2388 327.21 53.3375C327.311 53.4363 327.311 53.4363 327.21 53.3375C327.512 53.0412 327.915 52.8437 328.318 52.7449C329.627 53.4363 328.721 55.313 329.224 56.0044C328.519 56.6958 328.721 55.7081 327.814 56.0044L328.318 56.9921C326.908 56.9921 325.095 58.6712 325.196 56.9921L324.793 57.6835C324.692 57.9798 324.491 58.1774 324.29 58.3749C323.081 58.9676 322.175 59.8565 321.671 61.0418C320.765 61.6344 321.47 62.9185 321.067 62.2271C321.067 62.2271 320.966 62.3258 320.865 62.6221C320.765 62.9185 320.563 63.2148 320.362 63.4123L319.455 64.5976H319.153C317.945 65.6841 316.837 66.8694 315.628 68.0546C313.715 69.5362 311.6 70.6227 309.284 71.2153C308.78 71.6104 308.377 71.9067 307.773 72.4006C306.866 72.8945 305.859 73.3883 304.852 73.6846H303.442C302.234 74.2773 301.025 74.7711 299.817 75.1662C298.407 75.6601 297.198 76.0552 297.299 76.3515C294.983 76.3515 292.666 77.2404 290.048 78.1294L286.12 79.5122C284.811 79.9073 283.602 80.3024 282.494 80.4999L283.3 80.9938C281.89 81.3889 280.48 81.6852 279.171 82.1791C277.862 82.6729 276.351 83.068 274.639 83.5619L275.545 83.957C273.531 84.5496 271.517 85.0435 269.402 85.241L265.374 85.7349C263.964 85.9324 262.554 86.13 261.244 86.3275C262.151 86.0312 263.057 85.8336 263.964 85.8336C262.151 85.8336 260.338 86.0312 258.525 86.3275C256.813 86.6238 255.202 86.9201 253.59 87.3152C250.368 88.1054 246.943 88.5993 243.62 88.698C242.411 88.9944 241.102 89.0931 239.793 89.0931C239.894 89.0931 239.994 89.0931 240.196 88.9944C239.994 88.9944 239.793 88.9944 239.591 89.0931C238.786 89.0931 237.98 89.0931 237.174 89.0931C237.879 89.0931 238.685 89.1919 239.189 89.1919C237.98 89.2907 236.167 89.587 234.455 89.7845L233.347 89.3895L232.945 89.4882C231.031 89.4882 231.635 89.8833 232.844 90.1796C232.038 90.2784 231.333 90.4759 230.628 90.6735C228.614 89.9821 225.895 91.3649 223.377 90.5747C221.665 90.9698 219.953 91.1674 218.241 91.3649C215.924 91.6612 213.709 91.9575 213.407 92.3526C213.306 92.2538 212.702 92.2538 213.709 92.1551C211.695 92.0563 209.58 92.1551 207.565 92.4514L206.458 91.8588C206.458 91.8588 205.35 92.1551 204.242 92.3526L202.026 92.8465C199.106 92.5502 197.897 92.3526 200.616 91.76C193.969 92.6489 195.178 92.1551 189.437 92.9453L189.74 92.5502C187.625 92.5502 184.301 93.1428 183.093 92.7477C180.776 92.3526 175.036 92.2538 168.389 92.0563C161.742 91.8587 154.289 91.4637 148.549 90.7723C150.16 92.1551 143.412 89.8833 142.405 90.7723C141.902 90.4759 140.391 90.1796 142.405 90.0808C136.262 89.9821 133.845 88.9944 129.313 89.3895C128.809 89.0931 130.824 89.0931 130.421 88.8956C129.615 88.9944 128.709 88.8956 127.903 88.7968C127.399 88.5993 128.91 88.5993 129.917 88.5993C123.975 88.1054 122.666 88.8956 121.558 89.6858C119.342 88.9944 116.925 88.7968 114.609 89.1919C113.803 88.7968 112.393 88.303 116.12 88.698C114.105 88.4017 104.034 86.8214 103.128 87.414C102.02 87.1177 100.912 87.0189 99.7038 87.0189C95.2725 86.3275 94.8697 86.2287 90.5391 85.5373L91.6469 85.8336C88.9277 86.2287 87.8199 85.4386 84.1943 84.8459L84.3957 84.7471C77.346 82.7717 80.5687 84.3521 74.0225 82.2778L73.7204 82.7717C72.5118 83.1668 71.1019 82.6729 69.3898 81.9815C67.4763 81.0926 65.462 80.4999 63.3471 80.1048L64.3542 80.6975C63.1457 80.5987 61.9372 80.0061 61.1315 79.1171C60.5272 78.3269 59.7215 77.7343 58.8151 77.2404C58.513 77.0429 59.8222 77.3392 60.6279 77.438C56.2973 75.4625 58.6137 77.8331 54.2831 76.7466C54.1824 76.2527 56.9016 76.3515 54.3838 75.4625C53.981 75.1662 51.5639 74.7711 48.9454 74.2773C46.3269 73.7834 43.6077 72.9932 42.7013 72.2031C42.8021 72.6969 43.0035 73.092 40.8885 72.5981C38.0686 71.7092 36.7594 69.2399 32.8317 68.8448C32.7309 68.6472 32.8317 68.5485 32.9324 68.5485C30.7167 67.8571 26.9904 66.0792 25.0769 65.6841C25.8826 65.289 25.5805 64.7951 24.8755 64.2025C23.9691 63.5111 22.962 62.9185 21.9549 62.4246C19.7392 61.2393 17.9264 59.9553 20.1421 59.7577C19.9406 59.659 19.8399 59.4614 19.6385 59.3627C19.4371 59.0663 19.135 58.77 18.8328 58.3749L18.0271 57.3872C17.9264 57.2884 17.725 57.0909 17.6243 56.8933H18.1278C17.4229 55.0167 16.0129 54.424 14.8044 53.7326C15.0058 53.2388 15.5094 53.6339 15.8115 53.6339C15.8115 52.9425 15.8115 52.3498 15.8115 51.9547C15.9122 51.5596 15.8115 51.1646 15.7108 50.7695C15.5094 50.3744 15.3079 49.9793 15.0058 49.683C14.7037 49.2879 14.4015 48.794 13.898 48.2014L15.4086 48.0038C15.2072 47.8063 15.3079 47.51 15.5094 47.0161C15.8115 46.5222 16.315 46.0284 16.7179 45.337C17.1207 44.7443 17.8257 44.0529 18.2286 43.2628C18.43 42.9664 18.6314 42.5714 18.7321 42.1763C18.9335 41.8799 19.0342 41.4849 19.135 41.0898C19.2357 41.0898 19.5378 41.1885 19.5378 41.4849C19.7392 39.9045 22.3577 38.1266 24.6741 36.7438C26.8897 35.2622 28.7025 34.0769 26.9904 33.188L27.1918 32.8917C27.3933 32.5953 27.494 32.3978 27.6954 32.2003L28.6018 31.2125C24.3719 33.5831 27.0911 30.4224 24.6741 31.3113C25.9833 30.3236 30.1125 29.1383 28.4004 30.3236L27.8968 30.4224C29.5082 31.3113 33.9395 27.6567 35.4501 28.1506C40.2843 25.7801 45.3198 23.8046 50.4561 22.2243C55.9952 20.4463 61.9372 18.9648 67.7784 17.4832L66.4692 17.3844L64.9585 16.7918C64.9585 16.7918 65.9656 16.4955 67.0734 16.2979L69.1884 15.804C70.5983 15.7053 71.6054 15.9028 68.5841 16.5942C70.7997 16.5942 72.9147 15.1126 72.814 14.9151C79.2595 13.9274 71.9076 16.1991 73.7204 15.804L76.1374 15.2114H75.4324C76.9431 14.52 76.5403 14.1249 80.468 13.4335C83.0865 13.1372 82.3815 13.6311 83.3886 13.4335C83.4893 13.4335 83.7915 13.4335 84.8993 13.1372C84.8993 13.1372 86.3092 12.8409 87.7192 12.6433L90.6398 12.1495L87.6185 12.0507C89.7334 11.3593 93.0569 11.1617 89.532 10.9642C92.1505 11.063 97.6896 10.2728 103.128 9.58139C108.566 8.88999 113.803 8.19858 115.213 8.19858C119.141 7.30963 123.27 6.81576 127.299 6.61822C125.989 6.61822 124.781 6.02559 129.011 5.72927C128.406 7.21085 137.068 5.72927 140.895 6.51945C137.571 6.02559 152.678 5.72927 147.542 5.03786C151.066 4.93909 147.944 5.53172 150.764 5.72927C158.922 4.84032 169.295 5.43295 179.568 5.13664C179.769 4.93909 177.956 4.64277 180.172 4.34646L185.711 5.23541C187.725 5.13664 187.625 4.14891 191.351 4.84032C190.847 4.64277 190.042 4.44523 191.452 4.34646C201.623 4.84032 212.097 4.93909 222.672 5.23541C233.045 5.43295 243.419 6.12436 253.691 7.50717C251.073 7.01331 252.986 7.11208 255.101 7.21085C253.792 7.01331 255.403 6.71699 255.202 6.51945L263.46 7.70472C265.374 7.11208 272.725 8.29735 274.035 7.70472L271.215 7.60594C275.344 7.11208 267.086 5.53172 268.093 4.64277C263.561 5.23541 257.82 2.66733 250.468 3.55628C249.058 3.25996 251.878 3.35873 251.173 3.06242C248.555 3.35873 245.936 3.35873 243.318 2.96364L243.821 2.86487C232.844 2.46978 228.413 1.77838 216.025 1.08697L216.831 1.58083C215.32 1.48206 213.91 1.38329 212.4 1.08697C209.177 1.77838 219.852 1.38329 216.831 2.07469C213.507 1.28451 198.099 1.97592 195.782 0.889424C191.653 0.889424 196.89 1.48206 192.862 1.38329L191.754 1.08697L190.646 1.48206C187.927 1.38329 186.617 0.988197 186.517 0.69188C187.222 0.69188 188.43 0.593107 189.135 0.593107C185.61 0.198018 179.165 0.69188 177.956 0.593107L181.985 0.790652C170.705 1.08697 156.807 0.988197 146.132 2.27224L147.038 2.46978C138.981 3.35873 140.29 2.56855 131.428 3.35873L131.73 3.25996C129.615 3.65505 127.5 3.95137 125.284 4.14891C127.299 3.65505 120.652 4.05014 123.371 3.45751C114.911 4.74155 119.242 4.14891 114.307 5.6305L112.796 5.33418C110.883 6.02559 108.969 6.51945 106.955 6.71699C110.178 5.92681 103.632 6.51945 107.156 5.6305C103.531 5.72927 100.006 6.12436 96.4811 7.01331C94.1647 7.60594 91.6469 7.90226 89.2299 7.70472C86.6114 9.1863 97.5889 7.01331 95.6754 7.60594C97.9917 7.60594 93.2583 8.79121 90.4384 9.1863C88.7263 9.28507 87.0142 9.38385 85.3021 9.28507C82.5829 9.28507 79.763 9.48262 77.1445 10.0753C77.8495 9.97648 77.7488 9.87771 78.4538 9.77894C75.5332 9.87771 73.9218 10.8654 70.1955 11.1617C69.4905 12.0507 66.167 11.9519 66.9727 12.7421L72.7132 11.2605C71.2026 11.7544 69.994 12.347 68.3827 12.9397C66.2677 13.7298 64.0521 14.3225 61.8364 14.6188C62.5414 14.1249 63.3471 13.7298 64.1528 13.4335C62.1386 13.6311 61.3329 14.3225 59.3187 14.52C58.8151 14.1249 60.4265 13.6311 62.6421 13.1372C64.7571 12.6433 66.7713 12.0507 68.7855 11.3593C66.3684 11.4581 62.8436 13.4335 63.2464 12.2482C62.8436 13.0384 61.2322 13.3347 59.3187 13.7298C57.5059 14.1249 55.2902 14.6188 53.981 15.5077L53.3767 15.1126C52.571 15.6065 51.6646 16.0016 50.7582 16.2979L51.6646 15.2114C49.3483 16.5942 44.3127 16.693 41.8957 17.977C48.2405 15.9028 44.5141 17.977 47.8376 17.3844C41.4928 20.4463 40.5864 17.8783 32.9324 21.1378C33.7381 20.6439 37.7665 19.7549 36.4573 20.5451C34.6445 21.1378 32.7309 21.6316 30.8174 22.0267C25.9833 24.2985 32.7309 22.0267 31.321 23.1132C28.199 23.5083 29.5082 24.3972 27.9975 25.385L26.789 25.0886C20.9478 27.558 27.9975 26.3727 22.6598 28.5457C22.6598 28.3481 22.6598 28.0518 22.6598 27.8543C22.6598 27.558 22.7606 27.1629 22.7606 27.1629L21.8542 27.8543C21.552 28.0518 21.2499 28.2494 21.0485 28.5457L20.0414 27.953C18.9335 29.6322 17.725 29.9285 15.4086 31.3113C16.8186 31.1138 17.5236 31.9039 15.9122 33.188C13.9987 33.9782 15.2072 32.4966 13.2937 34.3732C12.9916 33.8794 12.2866 33.188 14.603 32.5953C14.3008 32.4966 14.3008 32.1015 13.9987 31.9039C11.6823 32.6941 10.8766 34.2745 10.071 34.9659C10.4738 34.6696 10.7759 34.472 11.2795 34.2745C11.2795 34.2745 10.9774 34.9659 10.6752 35.7561C10.4738 36.4475 10.3731 37.2376 10.3731 37.2376C9.46669 37.6327 9.36598 37.2376 9.26527 36.8426C8.86242 37.4352 9.16456 37.8303 8.56029 38.7192C7.55318 38.4229 6.34465 38.3241 6.94891 37.1389C6.74749 37.6327 6.54607 38.0278 6.34465 38.5217C6.14323 39.2131 5.9418 39.9045 5.9418 39.9045C5.33754 40.0033 3.52474 41.1885 3.32332 40.7934C2.51763 41.4849 2.61834 42.4726 2.51763 43.5591C2.61834 44.3493 2.81976 45.4358 2.01407 46.4235C2.31621 46.621 2.51763 46.9173 2.51763 47.2137C1.91336 49.0903 0.402695 50.8682 2.61834 53.14L0.90625 54.5228C2.01407 56.3007 2.92047 52.6461 4.83398 55.6093C6.54607 57.5848 3.42403 56.4983 3.2226 57.2884C4.02829 57.6835 5.33754 58.2762 6.44536 59.0663C6.94891 59.3627 7.35176 59.8565 7.7546 60.3504C8.15745 60.7455 8.35887 61.2393 8.45958 61.7332C7.7546 61.3381 7.15034 60.7455 6.64678 60.1528ZM41.09 78.1294C39.9821 77.9319 37.6658 77.5368 37.5651 77.1417C38.7736 76.9441 40.0829 77.3392 41.09 78.1294ZM123.572 92.0563C122.364 92.0563 121.256 91.9575 120.047 91.5624C121.256 91.6612 122.465 91.76 123.572 92.0563ZM324.491 59.8565C323.383 60.6467 323.786 60.3504 324.491 59.8565V59.8565ZM326.304 58.1774C326.203 57.9798 326.002 57.9798 325.8 58.0786C326.102 58.1774 325.901 58.5725 325.397 59.0663C325.901 58.9676 326.304 58.77 326.304 58.1774ZM83.59 13.3347L82.5829 13.4335C84.3957 12.8409 83.9929 13.1372 83.59 13.3347Z" fill="white"/>
<path d="M112.897 91.9574C112.796 91.8587 112.796 91.7599 112.796 91.6611C112.695 91.6611 112.595 91.7599 112.897 91.9574Z" fill="white"/>
<path d="M1.3097 46.423C1.3097 46.3242 1.3097 46.3242 1.20898 46.3242L1.3097 46.423Z" fill="white"/>
<path d="M322.074 85.1426C321.873 85.2414 321.571 85.3401 321.369 85.4389C321.369 85.4389 321.571 85.4389 322.074 85.1426Z" fill="white"/>
<path d="M332.648 48.9912L332.749 49.9789C332.749 49.6826 332.749 49.3863 332.951 49.09C332.85 49.09 332.648 49.2875 332.648 48.9912Z" fill="white"/>
<path d="M334.562 38.8181C334.461 38.7193 334.461 38.5218 334.361 38.3242L334.159 38.423C334.361 39.1144 334.663 39.5095 334.562 38.8181Z" fill="white"/>
<path d="M334.26 47.8058C334.663 47.707 334.462 47.0156 334.361 46.3242V46.423C333.757 46.3242 334.059 47.0156 334.26 47.8058Z" fill="white"/>
<path d="M334.361 46.0283C334.361 45.8308 334.361 45.5345 334.361 45.3369C334.059 45.3369 334.26 45.6332 334.361 46.0283Z" fill="white"/>
<path d="M332.649 56.0042C332.85 55.7079 332.145 55.7079 332.347 55.5104C331.944 55.0165 332.548 57.8809 332.649 56.0042Z" fill="white"/>
<path d="M335.569 47.2139L335.065 47.5102L335.468 47.9053L335.569 47.2139Z" fill="white"/>
<path d="M334.965 53.6339C334.965 53.6339 335.066 53.3376 335.066 53.0413L335.166 52.4487C335.066 52.4487 335.066 52.3499 335.066 52.1523C334.965 52.8438 334.764 53.6339 334.965 53.6339Z" fill="white"/>
<path d="M335.066 51.9545C335.166 51.6582 335.066 51.2631 335.066 50.9668C334.965 51.3619 334.965 51.6582 335.066 51.9545Z" fill="white"/>
<path d="M335.67 49.0898L335.569 49.4849V50.3739L335.67 49.0898Z" fill="white"/>
<path d="M331.34 67.2644L330.937 68.5484C331.037 68.746 331.239 68.4496 331.44 67.9558C331.44 67.5607 331.642 67.1656 331.34 67.2644Z" fill="white"/>
<path d="M334.16 63.6104C333.958 63.9067 333.858 63.9067 333.656 64.1042L334.261 64.3018L334.16 63.6104Z" fill="white"/>
<path d="M332.851 67.7586C332.951 67.9562 332.448 69.7341 333.153 68.1537C333.052 67.9562 333.455 66.6721 332.851 67.7586Z" fill="white"/>
<path d="M319.254 85.142L319.556 84.9445L318.952 84.1543L319.254 85.142Z" fill="white"/>
<path d="M239.894 94.7231C241.606 94.5255 240.096 94.0317 241.707 93.9329C242.009 93.6366 240.398 94.0317 240.801 93.7354C239.794 94.2292 239.189 94.2292 239.894 94.7231Z" fill="white"/>
<path d="M240.599 93.7358C240.8 93.637 240.901 93.5382 241.102 93.4395C240.901 93.5382 240.699 93.637 240.599 93.7358Z" fill="white"/>
<path d="M274.236 8.29701L275.243 8.6921L274.639 8.19824L274.236 8.29701Z" fill="white"/>
<path d="M315.729 8.00098L315.83 8.69238L316.535 8.29729C316.334 8.19852 315.931 8.19852 315.729 8.00098Z" fill="white"/>
<path d="M15.5093 82.3763L15.7107 82.2775C15.7107 82.0799 15.5093 81.8824 15.1064 81.4873L15.5093 82.3763Z" fill="white"/>
<path d="M5.94238 68.8453L6.04309 69.1416L6.24452 68.4502L5.94238 68.8453Z" fill="white"/>
<path d="M0.705078 56.3994C0.805789 56.8933 1.00721 57.4859 1.10792 58.0785C0.705078 56.8933 1.41006 56.1031 0.705078 56.3994Z" fill="white"/>
</mask>
<g mask="url(#mask0_5_1214)">
<path d="M276.251 6.61782C274.237 6.71659 272.223 6.71659 270.208 6.42027C259.936 5.235 253.39 6.22273 244.326 5.03746C238.182 4.24728 228.413 4.14851 222.27 3.4571C205.35 1.38288 188.532 2.76569 171.512 3.16078C163.656 3.35833 156.203 4.74114 148.348 4.5436C128.407 4.04973 108.064 7.80308 88.4249 11.1613C59.0173 16.2975 18.1285 27.0637 8.25886 43.9538C7.55388 51.0654 7.35246 51.7568 10.2731 56.9917C13.5965 62.9181 15.8122 63.3131 17.9271 64.3009C27.5954 69.1407 36.6594 76.1535 47.4355 77.6351C52.3703 78.3265 57.3052 80.7958 62.24 81.586C75.131 83.6602 88.022 88.3025 100.812 88.4013C105.445 88.4013 108.164 88.105 112.596 89.389C116.523 90.5743 120.35 89.1915 124.278 90.278C127.501 91.1669 130.925 90.0804 134.248 90.0804C139.586 90.0804 147.643 92.7473 152.981 93.0436C168.087 93.735 171.914 94.7227 183.597 93.3399C197.193 91.7596 211.595 92.451 225.09 90.8706C231.737 90.0804 238.283 89.389 244.93 88.5989C262.554 86.5246 280.682 84.3516 296.595 76.7462C299.717 75.2646 303.544 73.4867 306.565 75.1658C308.176 74.3756 309.989 74.1781 311.701 73.4867C319.255 70.5235 327.412 61.2389 329.829 58.4733C331.844 53.0408 331.541 47.312 331.944 40.1016C332.347 32.0023 328.722 24.2981 325.197 16.8901C323.082 12.5442 320.161 9.58099 315.629 7.90186C312.708 6.81536 309.889 5.43255 306.767 5.13623C302.537 4.64237 301.63 5.43255 296.494 5.72886C292.163 6.02518 286.524 4.74114 282.193 5.72886C280.179 6.12395 278.265 6.42027 276.251 6.61782Z" stroke="#202020" stroke-width="13.9632" stroke-miterlimit="10" stroke-dasharray="698.16 698.16"/>
</g>
</g>
<defs>
<clipPath id="clip0_5_1214">
<rect width="336.375" height="96.7969" fill="white"/>
</clipPath>
</defs>
</svg>
