<svg width="139" height="97" viewBox="0 0 139 97" fill="none" xmlns="http://www.w3.org/2000/svg">
<g clip-path="url(#clip0_5_1555)">
<mask id="mask0_5_1555" style="mask-type:luminance" maskUnits="userSpaceOnUse" x="0" y="0" width="139" height="97">
<path d="M105.439 6.91499C105.273 6.61868 105.273 7.11254 105.231 7.11254C105.522 7.40886 105.48 6.81622 105.439 6.91499Z" fill="white"/>
<path d="M130.295 10.2725H130.212L130.668 10.6676L130.295 10.2725Z" fill="white"/>
<path d="M132.369 14.9153C132.369 14.4215 132.203 14.0264 131.954 13.6313C131.705 13.2362 131.497 12.8411 131.29 12.2485V11.9521H130.958C131.207 12.446 131.497 12.9399 131.746 13.4337C131.995 13.8288 132.203 14.3227 132.369 14.9153Z" fill="white"/>
<path d="M132.868 19.9521C132.909 19.6558 133.158 20.3472 132.66 19.2607C132.66 19.3595 132.66 19.3595 132.66 19.4583C132.785 19.5571 132.826 19.7546 132.868 19.9521Z" fill="white"/>
<path d="M132.701 17.9775C132.494 17.4837 132.784 18.4714 132.701 17.9775V17.9775Z" fill="white"/>
<path d="M133.614 22.0262L133.448 21.7299C133.365 21.5324 133.282 21.4336 133.282 21.4336C133.282 21.6311 133.448 22.3225 133.365 22.2238C133.614 22.8164 133.614 22.6189 133.614 22.0262Z" fill="white"/>
<path d="M133.987 22.5209L133.821 22.2246C133.821 22.2246 133.863 22.4222 133.987 22.5209Z" fill="white"/>
<path d="M133.489 21.4336L133.821 22.125C133.821 21.9275 133.904 21.8287 133.697 21.8287C133.78 21.7299 133.655 21.6311 133.489 21.4336Z" fill="white"/>
<path d="M133.407 20.7423C133.324 20.2484 133.158 19.6558 133.49 20.2484C132.992 18.8656 132.909 19.4583 133.407 20.7423Z" fill="white"/>
<path d="M132.701 14.6186L132.535 13.9272L132.286 13.6309C132.411 13.8284 132.618 14.8161 132.701 14.6186Z" fill="white"/>
<path d="M134.734 27.3599C134.817 27.3599 134.817 26.8661 134.859 26.7673L134.651 26.2734C134.734 26.5698 134.817 27.2612 134.734 27.3599Z" fill="white"/>
<path d="M134.9 26.7679L135.191 27.5581C135.025 26.7679 134.942 26.6692 134.9 26.7679Z" fill="white"/>
<path d="M134.278 22.1256L133.697 21.0391L134.361 22.4219L134.278 22.1256Z" fill="white"/>
<path d="M135.482 31.1138L135.274 30.7188L135.648 31.4102L135.482 31.1138Z" fill="white"/>
<path d="M135.896 33.6821C135.73 33.3858 135.772 34.3735 135.647 34.0772C135.772 34.6698 135.938 35.1637 136.104 35.5588C135.979 34.9662 135.896 34.3735 135.896 33.6821Z" fill="white"/>
<path d="M135.481 29.3359C135.44 29.6323 135.44 29.9286 135.481 30.2249L135.564 29.731L135.481 29.3359Z" fill="white"/>
<path d="M135.564 29.7305C135.606 30.0268 135.647 30.2243 135.689 30.5206C135.689 30.4219 135.647 30.1256 135.564 29.7305Z" fill="white"/>
<path d="M134.776 24.8906C134.984 25.2857 135.357 26.2734 135.233 24.9894C135.025 24.7919 135.108 25.4833 134.776 24.8906Z" fill="white"/>
<path d="M135.564 28.4467L135.481 27.9528C135.44 27.6565 135.398 27.459 135.398 27.459C135.357 27.5578 135.357 27.7553 135.232 27.5578C135.232 27.5578 135.315 27.7553 135.398 28.0516L135.564 28.4467Z" fill="white"/>
<path d="M135.73 28.941L135.564 28.5459L135.647 28.941H135.73Z" fill="white"/>
<path d="M136.269 34.4717C136.394 34.8668 136.518 35.3607 136.56 35.8545C136.518 35.2619 136.477 34.6693 136.352 34.0766C136.269 33.9778 136.145 33.8791 136.269 34.4717Z" fill="white"/>
<path d="M137.1 41.88L137.141 41.7812H137.1V41.88Z" fill="white"/>
<path d="M136.353 33.7806C136.311 33.3855 136.27 33.0891 136.145 32.8916C136.228 33.1879 136.27 33.583 136.353 33.8793C136.353 33.9781 136.394 33.9781 136.353 33.7806Z" fill="white"/>
<path d="M136.601 38.0275C136.601 37.7312 136.601 37.4348 136.601 37.2373C136.56 37.4348 136.56 37.9287 136.601 38.0275Z" fill="white"/>
<path d="M135.979 32.3975C135.938 32.4962 135.938 32.4962 135.979 32.3975V32.3975Z" fill="white"/>
<path d="M135.979 32.3977C136.021 32.5953 136.104 32.6941 136.187 32.8916C136.145 32.6941 136.062 32.3977 136.021 32.2002C135.979 32.299 135.979 32.299 135.979 32.3977Z" fill="white"/>
<path d="M138.303 43.3616C138.22 43.3616 138.137 43.0653 138.054 42.5714C137.971 42.0776 137.971 41.4849 138.013 40.9911C137.805 40.0033 137.349 40.8923 137.1 41.88C137.183 41.88 137.224 41.88 137.39 42.8677C137.473 42.4727 137.432 40.3984 137.639 41.2874C137.847 42.6702 137.681 42.4726 137.598 43.1641C137.764 42.4726 137.971 44.942 138.262 44.5469L138.096 43.2628C138.179 43.2628 138.262 43.6579 138.303 43.3616Z" fill="white"/>
<path d="M136.975 39.7066L136.934 39.3115C136.934 39.8054 136.934 40.398 136.851 40.8919C136.975 41.5833 137.058 41.6821 137.1 41.6821L137.017 40.5956C137.017 40.2005 136.975 39.9042 136.934 39.5091L136.975 39.7066Z" fill="white"/>
<path d="M136.727 37.1392C136.934 37.3368 137.1 38.3245 137.224 37.6331C137.058 36.349 136.976 36.8429 136.81 36.1515C137.1 38.127 136.644 35.5589 136.727 37.1392C136.685 36.7441 136.602 36.4478 136.561 36.0527C136.602 36.4478 136.602 36.7441 136.602 37.1392V37.0405C136.602 36.9417 136.602 36.9417 136.602 37.0405C136.644 37.0405 136.685 37.1392 136.727 37.1392C136.768 37.7319 136.685 37.238 136.644 37.1392C136.644 37.1392 136.644 37.1392 136.602 37.1392C136.644 37.4355 136.727 37.7319 136.768 38.127L136.934 39.1147C136.851 38.4233 136.81 37.7319 136.727 37.1392Z" fill="white"/>
<path d="M135.772 25.582C135.772 25.582 135.772 25.6808 135.73 25.6808C135.813 25.7796 135.855 25.7796 135.772 25.582Z" fill="white"/>
<path d="M135.897 26.5704C135.772 26.4717 135.689 26.1753 135.648 25.9778C135.606 25.4839 135.731 25.879 135.772 25.7803C135.648 25.5827 135.44 24.9901 135.565 25.879L135.606 25.9778C135.731 26.768 135.772 28.052 135.689 27.9532C135.814 27.4594 135.897 27.0643 135.897 26.5704Z" fill="white"/>
<path d="M136.478 31.9043C136.478 31.9043 136.561 32.2994 136.644 32.6945C136.727 33.0896 136.81 33.4847 136.81 33.4847V32.4969L136.727 32.5957C136.644 31.608 136.561 32.0031 136.478 31.9043Z" fill="white"/>
<path d="M137.017 42.1761L136.81 41.9785L136.976 42.3736C137.059 42.5712 137.142 42.8675 137.142 42.8675C137.142 42.7687 137.1 42.5711 137.1 42.4724L137.017 42.1761Z" fill="white"/>
<path d="M137.142 44.5469H136.976L137.1 45.1395L137.142 44.5469Z" fill="white"/>
<path d="M2.94528 69.734L2.7793 69.3389C2.82079 69.5364 2.90378 69.6352 2.94528 69.734Z" fill="white"/>
<path d="M3.98308 73.3885H4.06607C3.98308 73.2898 3.94158 73.2898 3.98308 73.3885Z" fill="white"/>
<path d="M97.2225 89.5875C96.8906 89.3899 96.4756 89.0936 96.5586 89.4887L96.6831 89.8838C96.8491 89.6862 97.0565 89.5875 97.2225 89.5875Z" fill="white"/>
<path d="M48.0928 90.6738L48.1343 90.8714L48.3832 90.6738H48.0928Z" fill="white"/>
<path d="M45.9347 92.1551L45.5613 91.5625C45.6858 91.76 45.8102 91.9576 45.9347 92.1551Z" fill="white"/>
<path d="M0.497465 46.3242L0.331484 45.6328C0.289989 46.6205 0.414475 46.2254 0.497465 46.3242Z" fill="white"/>
<path d="M135.398 68.6475C135.232 69.0426 135.108 69.4376 134.983 69.9315C135.232 69.3389 135.481 69.0426 135.398 68.6475Z" fill="white"/>
<path d="M4.85494 68.4502C4.77195 68.2526 4.68896 68.1538 4.64746 68.2526C4.77195 68.4502 4.85494 68.5489 4.85494 68.4502Z" fill="white"/>
<path d="M134.569 71.6105C134.61 71.5117 134.652 71.4129 134.693 71.4129C134.776 70.9191 134.859 70.524 134.984 70.1289C134.776 70.4252 134.652 71.0179 134.569 71.6105Z" fill="white"/>
<path d="M78.0107 0.592773C78.0522 0.592773 78.0522 0.592773 78.0937 0.691546C78.0937 0.592773 78.0522 0.592773 78.0107 0.592773Z" fill="white"/>
<path d="M105.895 7.11244C105.812 7.11244 105.646 7.01367 105.521 7.01367C105.646 7.11244 105.77 7.11244 105.895 7.11244Z" fill="white"/>
<path d="M137.016 54.2265C136.975 54.1278 137.016 53.7327 137.016 54.2265V54.2265Z" fill="white"/>
<path d="M137.017 53.5352L137.058 53.1401C137.058 53.0413 137.017 53.1401 137.017 53.5352Z" fill="white"/>
<path d="M136.976 54.9181C136.976 54.6218 137.017 54.4242 137.017 54.1279C137.017 54.2267 136.976 54.2267 136.976 54.2267C136.976 54.4242 136.976 54.6218 136.976 54.9181Z" fill="white"/>
<path d="M8.92114 12.5443H8.96264C9.08712 12.0505 9.00413 12.1493 8.92114 12.5443Z" fill="white"/>
<path d="M80.542 96.304C80.7495 95.9089 81.0399 95.7114 81.3304 95.9089L81.0399 94.7236L80.542 96.304Z" fill="white"/>
<path d="M2.73827 60.1528C2.73827 60.6467 2.77977 61.1406 2.82126 61.7332C2.32332 61.2393 1.86687 60.6467 1.45192 59.9553C1.24445 59.659 1.11996 59.659 1.03697 60.4492C1.86687 60.3504 2.44781 61.7332 3.07024 63.116C3.73416 64.4988 4.52257 65.7829 5.31098 65.5853C5.35247 65.8816 5.43546 66.2767 5.51845 66.573C5.39397 66.1779 5.31098 66.1779 5.145 65.8816C5.31098 66.8693 5.76742 67.0669 6.34836 67.2644C7.01228 67.462 7.63471 67.9558 8.21564 68.746C8.63059 69.5362 8.79657 70.1288 8.25714 69.7337C8.25714 69.7337 8.63059 70.1288 9.04554 70.4252L9.87545 71.1166C10.2074 71.6104 9.87545 71.6104 9.54349 71.1166L10.5809 72.2031C11.1203 72.7957 11.7012 73.2896 11.7012 73.2896H11.6597C12.1577 73.4871 13.1536 73.981 13.6515 74.1785C14.025 74.8699 13.2366 73.981 13.2366 74.2773L14.7719 75.1662C14.9794 75.8576 13.61 75.1662 12.7801 74.3761C12.7386 75.3638 13.0706 75.5613 13.6515 75.8576C14.4814 76.2527 15.3113 76.9441 16.0582 77.9319L14.6474 77.0429C14.8134 78.2282 16.0167 78.9196 17.1371 80.4012C16.9296 79.9073 15.1868 77.1417 16.9711 78.1294C17.5521 78.8208 18.216 79.2159 18.8799 79.4134C18.5065 79.8085 19.3779 80.3024 20.4567 80.9938L19.8758 81.4877C21.1621 82.0803 21.3281 81.784 22.1995 81.9815C23.4444 82.8705 23.3614 83.3643 23.3614 83.957C25.3947 85.3398 22.49 82.3766 25.0627 83.7594C25.8511 84.3521 26.681 84.7471 27.4694 85.1422C28.3408 85.5373 29.2952 85.7349 30.4986 86.13C31.6604 86.9201 30.0421 86.4263 30.3741 86.7226L31.8264 86.8214C32.1169 86.9201 31.9094 87.0189 31.8264 87.1177C32.9053 87.414 32.2829 86.525 33.9012 87.1177C34.6896 86.6238 36.5154 89.3895 38.8806 89.2907C39.2541 89.6858 38.4656 89.587 38.4656 89.8833C41.4118 90.2784 40.9554 90.3772 43.4866 90.3772L44.358 90.871L45.2294 91.3649C44.026 90.4759 46.0593 90.4759 47.7606 90.3772C47.3456 89.9821 47.0137 89.6858 46.7647 89.4882C46.7647 89.4882 47.4286 89.587 48.051 89.6858L49.3374 89.8833C49.5864 90.0809 49.2544 90.1796 48.7565 90.3772C48.9639 90.3772 49.1299 90.3772 49.2544 90.3772C50.0428 90.871 49.4619 91.0686 48.715 91.2661C48.466 91.0686 48.217 90.871 47.968 90.6735C47.2211 90.871 46.4742 91.1673 46.4327 91.5624C46.7232 91.5624 47.0137 91.5624 47.3456 91.5624C47.1381 91.6612 47.0137 91.6612 47.0552 91.76C47.3456 91.8588 47.6361 91.76 47.9266 91.76L48.2585 92.6489L48.5075 92.3526C48.5075 92.3526 49.2959 92.6489 50.1258 92.9453C50.9557 93.2416 51.7441 93.5379 51.7441 93.5379C54.3998 93.3403 56.765 92.6489 60.6656 92.9453C59.5867 93.3403 60.2921 93.8342 60.0847 94.4268C59.1718 93.6367 57.014 94.2293 55.0222 93.7354C56.0596 94.0317 55.7277 94.2293 55.4372 94.3281C55.4372 94.3281 56.3916 94.3281 57.3045 94.3281C58.2174 94.3281 59.1718 94.3281 59.1718 94.3281C58.9643 94.8219 59.8357 94.8219 60.7486 95.217C60.2506 94.1305 63.5702 94.9207 65.1056 94.7232C65.1471 95.1182 64.7321 95.4146 62.9478 95.1182C64.8151 96.106 65.6865 94.2293 67.5538 95.0195C67.2633 94.9207 66.9729 94.9207 66.6824 95.1182C67.7613 94.9207 70.2095 95.3158 69.6285 95.6121H69.1721C70.6244 95.8097 72.8652 95.9084 74.8155 95.8096C76.7242 95.7109 78.3425 95.4146 78.55 95.0195C78.5915 95.1182 78.1766 96.106 78.0106 96.3035L78.8405 95.8096L80.5833 94.7232C81.2057 94.3281 81.8281 93.933 82.2846 93.6367L83.0315 93.1428C82.6166 93.933 84.5668 95.6121 82.1601 96.2047C83.1975 96.3035 84.1934 96.3035 85.2307 96.0072C84.7328 95.9084 83.9444 95.0195 84.5668 94.9207C86.4341 95.6121 85.8532 95.3158 88.1354 95.8096C87.3885 95.7109 88.0109 94.4268 89.1313 94.3281C89.0068 94.5256 89.4218 95.5133 89.0483 95.7109L90.3347 94.9207C90.9986 94.5256 91.621 94.1305 91.621 94.1305C90.9571 94.4268 91.704 95.1182 92.4094 95.3158C92.0775 95.1182 94.8576 94.9207 95.5631 94.7232H94.3182C97.5133 94.3281 96.9324 92.5502 99.9201 91.8588C99.6296 92.1551 99.5051 93.5379 101.123 93.2416C101.372 92.8465 101.912 91.9575 102.617 90.9698C103.489 89.7845 104.402 88.8956 105.356 88.303L105.978 88.5005L106.808 88.0066C107.223 87.7103 107.638 87.5128 107.638 87.5128C106.974 88.5993 106.31 89.4882 105.563 90.2784C104.609 91.3649 103.655 92.2538 102.659 93.044C103.904 92.9453 103.157 93.3403 104.816 92.7477C105.563 92.8465 104.07 93.5379 103.572 93.6367L105.646 93.1428C106.684 92.9453 107.68 92.5502 107.68 92.5502C107.431 92.2538 108.095 91.8588 108.759 91.3649C109.422 90.871 110.086 90.4759 109.879 90.2784C109.879 90.2784 108.966 90.871 107.97 91.3649L106.642 91.8588C106.269 92.0563 106.02 92.1551 106.02 92.1551C105.771 91.8588 106.186 91.1674 106.974 90.4759C107.431 90.0808 107.929 89.6858 108.427 89.3895C109.049 88.9944 109.63 88.698 110.252 88.5005C111.082 88.5005 110.418 89.7845 110.584 89.9821C110.999 89.587 111.414 89.2907 111.871 89.0931C112.327 88.7968 112.742 88.5993 113.199 88.5005L112.286 89.3895C113.945 88.8956 114.153 87.5128 116.228 87.1177C116.85 86.8214 118.551 86.9201 118.385 86.525C116.892 86.4263 115.107 84.4508 115.273 83.5619L117.099 83.068C118.012 82.8705 118.966 82.4754 119.423 82.4754C120.751 82.3766 119.215 84.5496 120.377 84.4508C120.253 84.2533 120.585 83.7594 120.709 83.5619C121.415 83.2656 120.917 84.1545 122.078 83.2656C121.705 82.5742 124.485 81.4877 122.161 82.3766C123.116 81.3889 123.531 81.5864 124.734 80.4999C123.946 80.4999 124.568 78.5245 125.274 77.438C125.523 77.5368 125.772 77.6355 126.021 77.5368C126.518 77.0429 127.016 76.6478 127.431 76.2527C127.846 75.8576 128.22 75.4625 128.593 75.1662C129.382 74.4748 130.129 73.6846 130.834 72.6969C131.166 72.5981 132.079 71.7092 132.12 72.3018C132.162 71.7092 132.328 71.1166 132.535 70.8202C134.029 69.8325 131.664 72.3018 133.075 71.7092C132.701 71.4129 133.656 69.7337 133.863 68.6473C133.448 68.746 133.075 69.1411 132.784 69.8325C132.494 70.4252 132.245 71.1166 132.037 71.808C131.581 71.6104 131.373 70.919 131.415 70.1288C131.498 68.9436 131.705 67.9558 132.037 66.9681C132.743 65.0915 133.075 66.4743 133.075 66.0792C133.946 64.4 133.863 63.5111 133.739 62.8197C133.614 62.1283 133.614 61.4369 134.361 60.0541C135.357 59.0663 135.689 60.2516 136.228 60.1528C136.021 61.7332 134.984 62.4246 134.652 63.4123L135.44 62.2271C135.398 63.116 135.149 63.9062 134.818 64.3013C135.108 64.005 135.398 63.5111 135.647 63.0172C135.979 62.3258 136.27 61.5356 136.56 60.7455C137.141 58.9676 137.639 56.9921 138.179 55.6093C138.054 55.1154 137.93 54.1277 137.598 54.5228L137.556 55.4118C136.892 56.2019 137.1 53.6339 136.643 54.7204C136.477 53.5351 136.021 52.1523 136.436 50.4731L137.224 50.1768C137.017 50.1768 136.685 51.2633 136.892 51.7572C136.643 51.0658 138.054 49.1891 137.058 48.3989L136.519 49.5842C136.311 48.9916 136.062 48.3002 135.813 47.6087C135.564 47.1149 135.398 46.3247 135.44 45.5345C134.735 46.2259 135.564 45.8308 134.735 46.9173C135.232 46.4235 135.315 47.4112 135.315 48.2014C135.315 48.9916 135.274 49.8805 135.855 49.0903C134.818 50.0781 135.357 50.8682 134.361 52.251C134.61 52.251 134.901 51.7572 134.652 53.0412C134.735 53.14 134.776 53.2388 134.818 53.3375C134.859 53.4363 134.859 53.4363 134.818 53.3375C134.942 53.0412 135.108 52.8437 135.274 52.7449C135.813 53.4363 135.44 55.313 135.647 56.0044C135.357 56.6958 135.44 55.7081 135.066 56.0044L135.274 56.9921C134.693 56.9921 133.946 58.6712 133.988 56.9921L133.822 57.6835C133.78 57.9798 133.697 58.1774 133.614 58.3749C133.116 58.9676 132.743 59.8565 132.535 61.0418C132.162 61.6344 132.452 62.9185 132.286 62.2271C132.286 62.2271 132.245 62.3258 132.203 62.6221C132.162 62.9185 132.079 63.2148 131.996 63.4123L131.622 64.5976H131.498C131 65.6841 130.544 66.8694 130.046 68.0546C129.257 69.5362 128.386 70.6227 127.431 71.2153C127.224 71.6104 127.058 71.9067 126.809 72.4006C126.435 72.8945 126.021 73.3883 125.606 73.6846H125.025C124.527 74.2773 124.029 74.7711 123.531 75.1662C122.95 75.6601 122.452 76.0552 122.493 76.3515C121.539 76.3515 120.585 77.2404 119.506 78.1294L117.887 79.5122C117.348 79.9073 116.85 80.3024 116.394 80.4999L116.726 80.9938C116.145 81.3889 115.564 81.6852 115.024 82.1791C114.485 82.6729 113.862 83.068 113.157 83.5619L113.53 83.957C112.701 84.5496 111.871 85.0435 110.999 85.241L109.339 85.7349C108.759 85.9324 108.178 86.13 107.638 86.3275C108.012 86.0312 108.385 85.8336 108.759 85.8336C108.012 85.8336 107.265 86.0312 106.518 86.3275C105.812 86.6238 105.148 86.9201 104.485 87.3152C103.157 88.1054 101.746 88.5993 100.376 88.698C99.8786 88.9944 99.3391 89.0931 98.7997 89.0931C98.8412 89.0931 98.8827 89.0931 98.9657 88.9944C98.8827 88.9944 98.7997 88.9944 98.7167 89.0931C98.3847 89.0931 98.0528 89.0931 97.7208 89.0931C98.0113 89.0931 98.3432 89.1919 98.5507 89.1919C98.0528 89.2907 97.3059 89.587 96.6004 89.7845L96.144 89.3895L95.978 89.4882C95.1896 89.4882 95.4386 89.8833 95.9365 90.1796C95.6045 90.2784 95.3141 90.4759 95.0236 90.6735C94.1937 89.9821 93.0733 91.3649 92.036 90.5747C91.3305 90.9698 90.6251 91.1674 89.9197 91.3649C88.9653 91.6612 88.0524 91.9575 87.9279 92.3526C87.8864 92.2538 87.6375 92.2538 88.0524 92.1551C87.2225 92.0563 86.3511 92.1551 85.5212 92.4514L85.0648 91.8588C85.0648 91.8588 84.6083 92.1551 84.1519 92.3526L83.239 92.8465C82.0356 92.5502 81.5377 92.3526 82.658 91.76C79.9194 92.6489 80.4173 92.1551 78.0521 92.9453L78.1766 92.5502C77.3052 92.5502 75.9358 93.1428 75.4379 92.7477C74.4835 92.3526 72.1183 92.2538 69.3796 92.0563C66.6409 91.8587 63.5702 91.4637 61.205 90.7723C61.8689 92.1551 59.0888 89.8833 58.6738 90.7723C58.4663 90.4759 57.8439 90.1796 58.6738 90.0808C56.1426 89.9821 55.1467 88.9944 53.2794 89.3895C53.072 89.0931 53.9019 89.0931 53.7359 88.8956C53.4039 88.9944 53.0305 88.8956 52.6985 88.7968C52.491 88.5993 53.1135 88.5993 53.5284 88.5993C51.0802 88.1054 50.5407 88.8956 50.0843 89.6858C49.1714 88.9944 48.1755 88.7968 47.2211 89.1919C46.8892 88.7968 46.3082 88.303 47.8436 88.698C47.0137 88.4017 42.8641 86.8214 42.4907 87.414C42.0342 87.1177 41.5778 87.0189 41.0798 87.0189C39.2541 86.3275 39.0881 86.2287 37.3038 85.5373L37.7602 85.8336C36.6399 86.2287 36.1834 85.4386 34.6896 84.8459L34.7726 84.7471C31.8679 82.7717 33.1958 84.3521 30.4986 82.2778L30.3741 82.7717C29.8761 83.1668 29.2952 82.6729 28.5898 81.9815C27.8014 81.0926 26.9715 80.4999 26.1001 80.1048L26.515 80.6975C26.0171 80.5987 25.5191 80.0061 25.1872 79.1171C24.9382 78.3269 24.6062 77.7343 24.2328 77.2404C24.1083 77.0429 24.6477 77.3392 24.9797 77.438C23.1954 75.4625 24.1498 77.8331 22.3655 76.7466C22.324 76.2527 23.4444 76.3515 22.407 75.4625C22.241 75.1662 21.2451 74.7711 20.1663 74.2773C19.0874 73.7834 17.967 72.9932 17.5936 72.2031C17.6351 72.6969 17.718 73.092 16.8466 72.5981C15.6848 71.7092 15.1453 69.2399 13.527 68.8448C13.4855 68.6472 13.527 68.5485 13.5685 68.5485C12.6556 67.8571 11.1203 66.0792 10.3319 65.6841C10.6639 65.289 10.5394 64.7951 10.2489 64.2025C9.87545 63.5111 9.4605 62.9185 9.04554 62.4246C8.13265 61.2393 7.38574 59.9553 8.29863 59.7577C8.21564 59.659 8.17415 59.4614 8.09116 59.3627C8.00816 59.0663 7.88368 58.77 7.75919 58.3749L7.42723 57.3872C7.38574 57.2884 7.30275 57.0909 7.26125 56.8933H7.46873C7.17826 55.0167 6.59733 54.424 6.09939 53.7326C6.18238 53.2388 6.38985 53.6339 6.51434 53.6339C6.51434 52.9425 6.51434 52.3498 6.51434 51.9547C6.55583 51.5596 6.51434 51.1646 6.47284 50.7695C6.38985 50.3744 6.30686 49.9793 6.18238 49.683C6.05789 49.2879 5.9334 48.794 5.72593 48.2014L6.34836 48.0038C6.26537 47.8063 6.30686 47.51 6.38985 47.0161C6.51434 46.5222 6.72181 46.0284 6.88779 45.337C7.05378 44.7443 7.34424 44.0529 7.51022 43.2628C7.59321 42.9664 7.6762 42.5714 7.7177 42.1763C7.80069 41.8799 7.84218 41.4849 7.88368 41.0898C7.92517 41.0898 8.04966 41.1885 8.04966 41.4849C8.13265 39.9045 9.21153 38.1266 10.1659 36.7438C11.0788 35.2622 11.8257 34.0769 11.1203 33.188L11.2033 32.8917C11.2863 32.5953 11.3278 32.3978 11.4108 32.2003L11.7842 31.2125C10.0414 33.5831 11.1618 30.4224 10.1659 31.3113C10.7054 30.3236 12.4067 29.1383 11.7012 30.3236L11.4938 30.4224C12.1577 31.3113 13.9835 27.6567 14.6059 28.1506C16.5977 25.7801 18.6724 23.8046 20.7887 22.2243C23.0709 20.4463 25.5191 18.9648 27.9259 17.4832L27.3864 17.3844L26.764 16.7918C26.764 16.7918 27.1789 16.4955 27.6354 16.2979L28.5068 15.804C29.0877 15.7053 29.5027 15.9028 28.2578 16.5942C29.1707 16.5942 30.0421 15.1126 30.0006 14.9151C32.6563 13.9274 29.6272 16.1991 30.3741 15.804L31.37 15.2114H31.0795C31.7019 14.52 31.5359 14.1249 33.1543 13.4335C34.2331 13.1372 33.9427 13.6311 34.3576 13.4335C34.3991 13.4335 34.5236 13.4335 34.98 13.1372C34.98 13.1372 35.561 12.8409 36.1419 12.6433L37.3453 12.1495L36.1004 12.0507C36.9718 11.3593 38.3412 11.1617 36.8888 10.9642C37.9677 11.063 40.2499 10.2728 42.4907 9.58139C44.7314 8.88999 46.8892 8.19858 47.4701 8.19858C49.0884 7.30963 50.7897 6.81576 52.4495 6.61822C51.9101 6.61822 51.4122 6.02559 53.155 5.72927C52.906 7.21085 56.4746 5.72927 58.0514 6.51945C56.682 6.02559 62.9063 5.72927 60.7901 5.03786C62.2424 4.93909 60.9561 5.53172 62.1179 5.72927C65.479 4.84032 69.753 5.43295 73.9855 5.13664C74.0685 4.93909 73.3216 4.64277 74.2345 4.34646L76.5168 5.23541C77.3467 5.13664 77.3052 4.14891 78.8405 4.84032C78.633 4.64277 78.301 4.44523 78.882 4.34646C83.073 4.84032 87.3885 4.93909 91.7455 5.23541C96.0195 5.43295 100.294 6.12436 104.526 7.50717C103.447 7.01331 104.236 7.11208 105.107 7.21085C104.568 7.01331 105.231 6.71699 105.148 6.51945L108.551 7.70472C109.339 7.11208 112.369 8.29735 112.908 7.70472L111.746 7.60594C113.447 7.11208 110.045 5.53172 110.46 4.64277C108.593 5.23541 106.227 2.66733 103.198 3.55628C102.617 3.25996 103.779 3.35873 103.489 3.06242C102.41 3.35873 101.331 3.35873 100.252 2.96364L100.459 2.86487C95.9365 2.46978 94.1107 1.77838 89.0068 1.08697L89.3388 1.58083C88.7163 1.48206 88.1354 1.38329 87.513 1.08697C86.1851 1.77838 90.5836 1.38329 89.3388 2.07469C87.9694 1.28451 81.6207 1.97592 80.6663 0.889424C78.965 0.889424 81.1227 1.48206 79.4629 1.38329L79.0065 1.08697L78.55 1.48206C77.4296 1.38329 76.8902 0.988197 76.8487 0.69188C77.1392 0.69188 77.6371 0.593107 77.9276 0.593107C76.4753 0.198018 73.8196 0.69188 73.3216 0.593107L74.9814 0.790652C70.334 1.08697 64.6076 0.988197 60.2091 2.27224L60.5826 2.46978C57.263 3.35873 57.8024 2.56855 54.1508 3.35873L54.2753 3.25996C53.4039 3.65505 52.5325 3.95137 51.6196 4.14891C52.4495 3.65505 49.7108 4.05014 50.8312 3.45751C47.3456 4.74155 49.1299 4.14891 47.0966 5.6305L46.4742 5.33418C45.6858 6.02559 44.8974 6.51945 44.0675 6.71699C45.3953 5.92681 42.6982 6.51945 44.1505 5.6305C42.6567 5.72927 41.2043 6.12436 39.752 7.01331C38.7976 7.60594 37.7602 7.90226 36.7643 7.70472C35.6855 9.1863 40.2084 7.01331 39.42 7.60594C40.3744 7.60594 38.4242 8.79121 37.2623 9.1863C36.5569 9.28507 35.8514 9.38385 35.146 9.28507C34.0257 9.28507 32.8638 9.48262 31.7849 10.0753C32.0754 9.97648 32.0339 9.87771 32.3244 9.77894C31.121 9.87771 30.4571 10.8654 28.9217 11.1617C28.6313 12.0507 27.2619 11.9519 27.5939 12.7421L29.9591 11.2605C29.3367 11.7544 28.8388 12.347 28.1748 12.9397C27.3034 13.7298 26.3905 14.3225 25.4776 14.6188C25.7681 14.1249 26.1001 13.7298 26.432 13.4335C25.6021 13.6311 25.2702 14.3225 24.4403 14.52C24.2328 14.1249 24.8967 13.6311 25.8096 13.1372C26.681 12.6433 27.5109 12.0507 28.3408 11.3593C27.3449 11.4581 25.8926 13.4335 26.0586 12.2482C25.8926 13.0384 25.2287 13.3347 24.4403 13.7298C23.6934 14.1249 22.7805 14.6188 22.241 15.5077L21.992 15.1126C21.6601 15.6065 21.2866 16.0016 20.9132 16.2979L21.2866 15.2114C20.3322 16.5942 18.2575 16.693 17.2616 17.977C19.8758 15.9028 18.3405 17.977 19.7098 17.3844C17.0956 20.4463 16.7222 17.8783 13.5685 21.1378C13.9005 20.6439 15.5603 19.7549 15.0209 20.5451C14.2739 21.1378 13.4855 21.6316 12.6971 22.0267C10.7054 24.2985 13.4855 22.0267 12.9046 23.1132C11.6182 23.5083 12.1577 24.3972 11.5353 25.385L11.0373 25.0886C8.63059 27.558 11.5353 26.3727 9.33601 28.5457C9.33601 28.3481 9.33601 28.0518 9.33601 27.8543C9.33601 27.558 9.37751 27.1629 9.37751 27.1629L9.00405 27.8543C8.87957 28.0518 8.75508 28.2494 8.67209 28.5457L8.25714 27.953C7.80069 29.6322 7.30275 29.9285 6.34836 31.3113C6.92929 31.1138 7.21976 31.9039 6.55583 33.188C5.76742 33.9782 6.26537 32.4966 5.47696 34.3732C5.35247 33.8794 5.06201 33.188 6.0164 32.5953C5.89191 32.4966 5.89191 32.1015 5.76742 31.9039C4.81303 32.6941 4.48107 34.2745 4.14911 34.9659C4.31509 34.6696 4.43958 34.472 4.64705 34.2745C4.64705 34.2745 4.52257 34.9659 4.39808 35.7561C4.31509 36.4475 4.2736 37.2376 4.2736 37.2376C3.90014 37.6327 3.85864 37.2376 3.81715 36.8426C3.65117 37.4352 3.77565 37.8303 3.52668 38.7192C3.11173 38.4229 2.61379 38.3241 2.86276 37.1389C2.77977 37.6327 2.69678 38.0278 2.61379 38.5217C2.5308 39.2131 2.44781 39.9045 2.44781 39.9045C2.19884 40.0033 1.45192 41.1885 1.36893 40.7934C1.03697 41.4849 1.07847 42.4726 1.03697 43.5591C1.07847 44.3493 1.16146 45.4358 0.829494 46.4235C0.95398 46.621 1.03697 46.9173 1.03697 47.2137C0.787999 49.0903 0.165571 50.8682 1.07847 53.14L0.373047 54.5228C0.829494 56.3007 1.20295 52.6461 1.99136 55.6093C2.69678 57.5848 1.41043 56.4983 1.32744 57.2884C1.6594 57.6835 2.19884 58.2762 2.65528 59.0663C2.86276 59.3627 3.02874 59.8565 3.19472 60.3504C3.3607 60.7455 3.44369 61.2393 3.48519 61.7332C3.19472 61.3381 2.94575 60.7455 2.73827 60.1528ZM16.9296 78.1294C16.4732 77.9319 15.5188 77.5368 15.4773 77.1417C15.9752 76.9441 16.5147 77.3392 16.9296 78.1294ZM50.9142 92.0563C50.4163 92.0563 49.9598 91.9575 49.4619 91.5624C49.9598 91.6612 50.4578 91.76 50.9142 92.0563ZM133.697 59.8565C133.241 60.6467 133.407 60.3504 133.697 59.8565V59.8565ZM134.444 58.1774C134.403 57.9798 134.32 57.9798 134.237 58.0786C134.361 58.1774 134.278 58.5725 134.071 59.0663C134.278 58.9676 134.444 58.77 134.444 58.1774ZM34.4406 13.3347L34.0257 13.4335C34.7726 12.8409 34.6066 13.1372 34.4406 13.3347Z" fill="white"/>
<path d="M46.5156 91.9574C46.4741 91.8587 46.4741 91.7599 46.4741 91.6611C46.4326 91.6611 46.3911 91.7599 46.5156 91.9574Z" fill="white"/>
<path d="M0.538565 46.423C0.538565 46.3242 0.538566 46.3242 0.49707 46.3242L0.538565 46.423Z" fill="white"/>
<path d="M132.702 85.1426C132.619 85.2414 132.494 85.3401 132.411 85.4389C132.411 85.4389 132.494 85.4389 132.702 85.1426Z" fill="white"/>
<path d="M137.059 48.9912L137.1 49.9789C137.1 49.6826 137.1 49.3863 137.183 49.09C137.142 49.09 137.059 49.2875 137.059 48.9912Z" fill="white"/>
<path d="M137.847 38.8181C137.805 38.7193 137.805 38.5218 137.764 38.3242L137.681 38.423C137.764 39.1144 137.888 39.5095 137.847 38.8181Z" fill="white"/>
<path d="M137.722 47.8058C137.888 47.707 137.805 47.0156 137.763 46.3242V46.423C137.514 46.3242 137.639 47.0156 137.722 47.8058Z" fill="white"/>
<path d="M137.764 46.0283C137.764 45.8308 137.764 45.5345 137.764 45.3369C137.64 45.3369 137.722 45.6332 137.764 46.0283Z" fill="white"/>
<path d="M137.058 56.0042C137.141 55.7079 136.85 55.7079 136.933 55.5104C136.767 55.0165 137.016 57.8809 137.058 56.0042Z" fill="white"/>
<path d="M138.261 47.2139L138.054 47.5102L138.22 47.9053L138.261 47.2139Z" fill="white"/>
<path d="M138.013 53.6339C138.013 53.6339 138.055 53.3376 138.055 53.0413L138.096 52.4487C138.055 52.4487 138.055 52.3499 138.055 52.1523C138.013 52.8438 137.93 53.6339 138.013 53.6339Z" fill="white"/>
<path d="M138.055 51.9545C138.096 51.6582 138.055 51.2631 138.055 50.9668C138.013 51.3619 138.013 51.6582 138.055 51.9545Z" fill="white"/>
<path d="M138.303 49.0898L138.262 49.4849V50.3739L138.303 49.0898Z" fill="white"/>
<path d="M136.519 67.2644L136.353 68.5484C136.394 68.746 136.477 68.4496 136.56 67.9558C136.56 67.5607 136.643 67.1656 136.519 67.2644Z" fill="white"/>
<path d="M137.681 63.6104C137.598 63.9067 137.557 63.9067 137.474 64.1042L137.723 64.3018L137.681 63.6104Z" fill="white"/>
<path d="M137.141 67.7586C137.182 67.9562 136.975 69.7341 137.265 68.1537C137.224 67.9562 137.39 66.6721 137.141 67.7586Z" fill="white"/>
<path d="M131.539 85.142L131.664 84.9445L131.415 84.1543L131.539 85.142Z" fill="white"/>
<path d="M98.8407 94.7231C99.5461 94.5255 98.9237 94.0317 99.5876 93.9329C99.7121 93.6366 99.0482 94.0317 99.2142 93.7354C98.7992 94.2292 98.5502 94.2292 98.8407 94.7231Z" fill="white"/>
<path d="M99.1318 93.7358C99.2148 93.637 99.2563 93.5382 99.3393 93.4395C99.2563 93.5382 99.1733 93.637 99.1318 93.7358Z" fill="white"/>
<path d="M112.991 8.29701L113.406 8.6921L113.157 8.19824L112.991 8.29701Z" fill="white"/>
<path d="M130.087 8.00098L130.129 8.69238L130.419 8.29729C130.336 8.19852 130.17 8.19852 130.087 8.00098Z" fill="white"/>
<path d="M6.38961 82.3763L6.4726 82.2775C6.4726 82.0799 6.38961 81.8824 6.22363 81.4873L6.38961 82.3763Z" fill="white"/>
<path d="M2.44824 68.8453L2.48974 69.1416L2.57273 68.4502L2.44824 68.8453Z" fill="white"/>
<path d="M0.290039 56.3994C0.331534 56.8933 0.414525 57.4859 0.45602 58.0785C0.290039 56.8933 0.580506 56.1031 0.290039 56.3994Z" fill="white"/>
</mask>
<g mask="url(#mask0_5_1555)">
<path d="M113.821 6.61782C112.991 6.71659 112.161 6.71659 111.331 6.42027C107.099 5.235 104.402 6.22273 100.667 5.03746C98.136 4.24728 94.111 4.14851 91.5797 3.4571C84.6086 1.38288 77.6789 2.76569 70.6662 3.16078C67.4295 3.35833 64.3589 4.74114 61.1223 4.5436C52.9062 4.04973 44.5242 7.80308 36.4326 11.1613C24.316 16.2975 7.46896 27.0637 3.40243 43.9538C3.11196 51.0654 3.02897 51.7568 4.23233 56.9917C5.60168 62.9181 6.51457 63.3131 7.38597 64.3009C11.3695 69.1407 15.1041 76.1535 19.5441 77.6351C21.5773 78.3265 23.6106 80.7958 25.6439 81.586C30.9552 83.6602 36.2666 88.3025 41.5365 88.4013C43.4453 88.4013 44.5657 88.105 46.3915 89.389C48.0098 90.5743 49.5866 89.1915 51.2049 90.278C52.5328 91.1669 53.9436 90.0804 55.3129 90.0804C57.5122 90.0804 60.8318 92.7473 63.031 93.0436C69.2553 93.735 70.8321 94.7227 75.6456 93.3399C81.2474 91.7596 87.1813 92.451 92.7416 90.8706C95.4803 90.0804 98.1775 89.389 100.916 88.5989C108.178 86.5246 115.647 84.3516 122.203 76.7462C123.49 75.2646 125.066 73.4867 126.311 75.1658C126.975 74.3756 127.722 74.1781 128.427 73.4867C131.54 70.5235 134.901 61.2389 135.897 58.4733C136.727 53.0408 136.602 47.312 136.768 40.1016C136.934 32.0023 135.44 24.2981 133.988 16.8901C133.116 12.5442 131.913 9.58099 130.046 7.90186C128.842 6.81536 127.681 5.43255 126.394 5.13623C124.651 4.64237 124.278 5.43255 122.162 5.72886C120.377 6.02518 118.054 4.74114 116.269 5.72886C115.439 6.12395 114.651 6.42027 113.821 6.61782Z" stroke="#202020" stroke-width="8.96282" stroke-miterlimit="10" stroke-dasharray="448.14 448.14"/>
</g>
</g>
<defs>
<clipPath id="clip0_5_1555">
<rect width="138.594" height="96.7969" fill="white"/>
</clipPath>
</defs>
</svg>
